<svg xmlns="http://www.w3.org/2000/svg" width="29" height="40" viewBox="0 0 29 40" fill="none"><path d="M7.29715 39V8.53L0.972148 10.015V4.625L10.2671 0.499997H14.6121V39H7.29715ZM24.3871 39.385C23.1038 39.385 22.0404 38.9817 21.1971 38.175C20.3904 37.3683 19.9871 36.3967 19.9871 35.26C19.9871 34.0867 20.3904 33.0967 21.1971 32.29C22.0404 31.4833 23.1038 31.08 24.3871 31.08C25.6704 31.08 26.7154 31.4833 27.5221 32.29C28.3654 33.0967 28.7871 34.0867 28.7871 35.26C28.7871 36.3967 28.3654 37.3683 27.5221 38.175C26.7154 38.9817 25.6704 39.385 24.3871 39.385Z" fill="url(#paint0_linear_165_3966)"></path><defs><linearGradient id="paint0_linear_165_3966" x1="31" y1="20" x2="-1" y2="20" gradientUnits="userSpaceOnUse"><stop stop-color="#6083FF"></stop><stop offset="1" stop-color="#5F5DFF"></stop></linearGradient></defs></svg>