<svg xmlns="http://www.w3.org/2000/svg" width="40" height="41" viewBox="0 0 40 41" fill="none"><path d="M0.72121 40V34.885C3.06788 32.9417 5.34121 31.0167 7.54121 29.11C9.77788 27.2033 11.7579 25.315 13.4812 23.445C15.2412 21.575 16.6345 19.76 17.6612 18C18.7245 16.2033 19.2562 14.4617 19.2562 12.775C19.2562 11.1983 18.8162 9.805 17.9362 8.595C17.0929 7.385 15.6812 6.78 13.7012 6.78C11.6845 6.78 10.1629 7.44 9.13621 8.76C8.10954 10.08 7.59621 11.675 7.59621 13.545H0.77621C0.849544 10.7217 1.47288 8.375 2.64621 6.505C3.81954 4.59833 5.37788 3.18667 7.32121 2.27C9.26454 1.31667 11.4462 0.839999 13.8662 0.839999C17.7895 0.839999 20.8329 1.92167 22.9962 4.085C25.1962 6.21166 26.2962 8.98 26.2962 12.39C26.2962 14.5167 25.8012 16.5883 24.8112 18.605C23.8579 20.6217 22.5929 22.565 21.0162 24.435C19.4395 26.305 17.7345 28.065 15.9012 29.715C14.0679 31.3283 12.2895 32.8317 10.5662 34.225H27.2312V40H0.72121ZM35.3871 40.385C34.1038 40.385 33.0404 39.9817 32.1971 39.175C31.3904 38.3683 30.9871 37.3967 30.9871 36.26C30.9871 35.0867 31.3904 34.0967 32.1971 33.29C33.0404 32.4833 34.1038 32.08 35.3871 32.08C36.6704 32.08 37.7154 32.4833 38.5221 33.29C39.3654 34.0967 39.7871 35.0867 39.7871 36.26C39.7871 37.3967 39.3654 38.3683 38.5221 39.175C37.7154 39.9817 36.6704 40.385 35.3871 40.385Z" fill="url(#paint0_linear_165_3970)"></path><defs><linearGradient id="paint0_linear_165_3970" x1="42" y1="21" x2="-3" y2="21" gradientUnits="userSpaceOnUse"><stop stop-color="#6083FF"></stop><stop offset="1" stop-color="#5F5DFF"></stop></linearGradient></defs></svg>