<svg xmlns="http://www.w3.org/2000/svg" width="41" height="41" viewBox="0 0 41 41" fill="none"><path d="M13.9084 40.66C11.3784 40.66 9.08677 40.22 7.03344 39.34C4.9801 38.4233 3.3301 37.03 2.08344 35.16C0.83677 33.29 0.17677 30.9433 0.103437 28.12H7.03344C7.0701 29.99 7.6751 31.5667 8.84844 32.85C10.0584 34.0967 11.7451 34.72 13.9084 34.72C15.9618 34.72 17.5384 34.1517 18.6384 33.015C19.7384 31.8783 20.2884 30.4483 20.2884 28.725C20.2884 26.7083 19.5551 25.1867 18.0884 24.16C16.6584 23.0967 14.8068 22.565 12.5334 22.565H9.67344V16.79H12.5884C14.4584 16.79 16.0168 16.35 17.2634 15.47C18.5101 14.59 19.1334 13.2883 19.1334 11.565C19.1334 10.135 18.6568 8.99833 17.7034 8.155C16.7868 7.275 15.5034 6.835 13.8534 6.835C12.0568 6.835 10.6451 7.36667 9.61844 8.43C8.62844 9.49333 8.07844 10.795 7.96844 12.335H1.09344C1.2401 8.77833 2.46844 5.97333 4.77844 3.92C7.1251 1.86667 10.1501 0.839999 13.8534 0.839999C16.4934 0.839999 18.7118 1.31667 20.5084 2.27C22.3418 3.18667 23.7168 4.415 24.6334 5.955C25.5868 7.495 26.0634 9.2 26.0634 11.07C26.0634 13.2333 25.4584 15.0667 24.2484 16.57C23.0751 18.0367 21.6084 19.0267 19.8484 19.54C22.0118 19.98 23.7718 21.0433 25.1284 22.73C26.4851 24.38 27.1634 26.47 27.1634 29C27.1634 31.1267 26.6501 33.07 25.6234 34.83C24.5968 36.59 23.0934 38.0017 21.1134 39.065C19.1701 40.1283 16.7684 40.66 13.9084 40.66ZM36.3871 40.385C35.1038 40.385 34.0404 39.9817 33.1971 39.175C32.3904 38.3683 31.9871 37.3967 31.9871 36.26C31.9871 35.0867 32.3904 34.0967 33.1971 33.29C34.0404 32.4833 35.1038 32.08 36.3871 32.08C37.6704 32.08 38.7154 32.4833 39.5221 33.29C40.3654 34.0967 40.7871 35.0867 40.7871 36.26C40.7871 37.3967 40.3654 38.3683 39.5221 39.175C38.7154 39.9817 37.6704 40.385 36.3871 40.385Z" fill="url(#paint0_linear_165_3982)"></path><defs><linearGradient id="paint0_linear_165_3982" x1="43" y1="21" x2="-3" y2="21" gradientUnits="userSpaceOnUse"><stop stop-color="#6083FF"></stop><stop offset="1" stop-color="#5F5DFF"></stop></linearGradient></defs></svg>