<svg xmlns="http://www.w3.org/2000/svg" width="44" height="40" viewBox="0 0 44 40" fill="none"><path d="M19.4427 39V31.85H0.467734V26.24L18.5077 0.499997H26.4827V25.745H31.5427V31.85H26.4827V39H19.4427ZM8.00273 25.745H19.8827V8.255L8.00273 25.745ZM39.3871 39.385C38.1038 39.385 37.0404 38.9817 36.1971 38.175C35.3904 37.3683 34.9871 36.3967 34.9871 35.26C34.9871 34.0867 35.3904 33.0967 36.1971 32.29C37.0404 31.4833 38.1038 31.08 39.3871 31.08C40.6704 31.08 41.7154 31.4833 42.5221 32.29C43.3654 33.0967 43.7871 34.0867 43.7871 35.26C43.7871 36.3967 43.3654 37.3683 42.5221 38.175C41.7154 38.9817 40.6704 39.385 39.3871 39.385Z" fill="url(#paint0_linear_165_3986)"></path><defs><linearGradient id="paint0_linear_165_3986" x1="46" y1="20" x2="-2" y2="20" gradientUnits="userSpaceOnUse"><stop stop-color="#6083FF"></stop><stop offset="1" stop-color="#5F5DFF"></stop></linearGradient></defs></svg>