<svg xmlns="http://www.w3.org/2000/svg" width="42" height="40" viewBox="0 0 42 40" fill="none"><path d="M14.7757 39.66C11.9523 39.66 9.514 39.165 7.46066 38.175C5.444 37.185 3.849 35.8283 2.67566 34.105C1.539 32.345 0.878997 30.365 0.695663 28.165H7.57066C7.90066 29.7417 8.70733 31.0617 9.99066 32.125C11.274 33.1517 12.869 33.665 14.7757 33.665C16.829 33.665 18.4973 32.9133 19.7807 31.41C21.1007 29.9067 21.7607 28.0367 21.7607 25.8C21.7607 23.49 21.1007 21.6567 19.7807 20.3C18.4973 18.9433 16.8657 18.265 14.8857 18.265C13.2357 18.265 11.8057 18.6683 10.5957 19.475C9.38566 20.2817 8.524 21.29 8.01066 22.5H1.24566L4.54566 0.499997H25.8857V6.66H9.82566L8.06566 15.57C8.87233 14.69 9.97233 13.975 11.3657 13.425C12.759 12.8383 14.3173 12.545 16.0407 12.545C18.7907 12.545 21.0823 13.1683 22.9157 14.415C24.749 15.625 26.1423 17.2383 27.0957 19.255C28.049 21.235 28.5257 23.3983 28.5257 25.745C28.5257 28.4217 27.939 30.805 26.7657 32.895C25.629 34.985 24.0157 36.635 21.9257 37.845C19.8723 39.055 17.489 39.66 14.7757 39.66ZM37.3871 39.385C36.1038 39.385 35.0404 38.9817 34.1971 38.175C33.3904 37.3683 32.9871 36.3967 32.9871 35.26C32.9871 34.0867 33.3904 33.0967 34.1971 32.29C35.0404 31.4833 36.1038 31.08 37.3871 31.08C38.6704 31.08 39.7154 31.4833 40.5221 32.29C41.3654 33.0967 41.7871 34.0867 41.7871 35.26C41.7871 36.3967 41.3654 37.3683 40.5221 38.175C39.7154 38.9817 38.6704 39.385 37.3871 39.385Z" fill="url(#paint0_linear_165_3990)"></path><defs><linearGradient id="paint0_linear_165_3990" x1="44" y1="20" x2="-3" y2="20" gradientUnits="userSpaceOnUse"><stop stop-color="#6083FF"></stop><stop offset="1" stop-color="#5F5DFF"></stop></linearGradient></defs></svg>