<svg xmlns="http://www.w3.org/2000/svg" width="41" height="41" viewBox="0 0 41 41" fill="none"><path d="M15.5636 40.66C12.6669 40.66 10.2286 40.1283 8.24859 39.065C6.26859 38.0017 4.67359 36.5717 3.46359 34.775C2.25359 32.9783 1.37359 30.98 0.823593 28.78C0.31026 26.58 0.0535931 24.325 0.0535931 22.015C0.0535931 17.725 0.658593 14.0033 1.86859 10.85C3.07859 7.66 4.82026 5.20333 7.09359 3.48C9.36693 1.72 12.1169 0.839999 15.3436 0.839999C17.9836 0.839999 20.2203 1.37167 22.0536 2.435C23.9236 3.46167 25.3719 4.81833 26.3986 6.505C27.4253 8.19167 28.0303 10.0067 28.2136 11.95H21.6686C21.3386 10.2633 20.6236 8.96166 19.5236 8.045C18.4236 7.12833 17.0119 6.67 15.2886 6.67C12.8319 6.67 10.8519 7.80667 9.34859 10.08C7.84526 12.3167 7.03859 15.745 6.92859 20.365C7.80859 18.8617 9.12859 17.615 10.8886 16.625C12.6486 15.635 14.6103 15.14 16.7736 15.14C18.9003 15.14 20.8986 15.6533 22.7686 16.68C24.6386 17.7067 26.1419 19.155 27.2786 21.025C28.4519 22.895 29.0386 25.095 29.0386 27.625C29.0386 29.935 28.4703 32.08 27.3336 34.06C26.2336 36.04 24.6569 37.635 22.6036 38.845C20.5869 40.055 18.2403 40.66 15.5636 40.66ZM15.1786 34.61C17.2319 34.61 18.9186 33.9867 20.2386 32.74C21.5953 31.4567 22.2736 29.8433 22.2736 27.9C22.2736 25.8467 21.5953 24.1967 20.2386 22.95C18.8819 21.7033 17.1586 21.08 15.0686 21.08C13.7119 21.08 12.4836 21.3917 11.3836 22.015C10.3203 22.6017 9.47693 23.4083 8.85359 24.435C8.23026 25.425 7.91859 26.5433 7.91859 27.79C7.91859 29.77 8.59693 31.4017 9.95359 32.685C11.3469 33.9683 13.0886 34.61 15.1786 34.61ZM36.3871 40.385C35.1038 40.385 34.0404 39.9817 33.1971 39.175C32.3904 38.3683 31.9871 37.3967 31.9871 36.26C31.9871 35.0867 32.3904 34.0967 33.1971 33.29C34.0404 32.4833 35.1038 32.08 36.3871 32.08C37.6704 32.08 38.7154 32.4833 39.5221 33.29C40.3654 34.0967 40.7871 35.0867 40.7871 36.26C40.7871 37.3967 40.3654 38.3683 39.5221 39.175C38.7154 39.9817 37.6704 40.385 36.3871 40.385Z" fill="url(#paint0_linear_165_3994)"></path><defs><linearGradient id="paint0_linear_165_3994" x1="43" y1="21" x2="-3" y2="21" gradientUnits="userSpaceOnUse"><stop stop-color="#6083FF"></stop><stop offset="1" stop-color="#5F5DFF"></stop></linearGradient></defs></svg>