<svg xmlns="http://www.w3.org/2000/svg" width="31" height="34" viewBox="0 0 31 34" fill="none"><path d="M27.1875 14.25V15.625C27.7345 15.625 28.2591 15.8423 28.6459 16.2291C29.0327 16.6159 29.25 17.1405 29.25 17.6875V30.0625C29.25 30.6095 29.0327 31.1341 28.6459 31.5209C28.2591 31.9077 27.7345 32.125 27.1875 32.125C26.6405 32.125 26.1159 31.9077 25.7291 31.5209C25.3423 31.1341 25.125 30.6095 25.125 30.0625V3.9375C25.1239 3.02615 24.7614 2.15244 24.1169 1.50802C23.4725 0.863604 22.5988 0.501092 21.6875 0.5H3.8125C2.90115 0.501092 2.02744 0.863604 1.38302 1.50802C0.738604 2.15244 0.376092 3.02615 0.375 3.9375V30.0625C0.376092 30.9738 0.738604 31.8476 1.38302 32.492C2.02744 33.1364 2.90115 33.4989 3.8125 33.5H27.1875C28.0988 33.4989 28.9725 33.1364 29.6169 32.492C30.2614 31.8476 30.6239 30.9738 30.625 30.0625V17.6875C30.6239 16.7762 30.2614 15.9024 29.6169 15.258C28.9725 14.6136 28.0988 14.2511 27.1875 14.25ZM1.75 30.0625V3.9375C1.75 3.39049 1.96731 2.86588 2.3541 2.47909C2.74089 2.0923 3.26549 1.875 3.8125 1.875H21.6875C22.2345 1.875 22.7591 2.0923 23.1459 2.47909C23.5327 2.86588 23.75 3.39049 23.75 3.9375V30.0625C23.7525 30.8088 24.0004 31.5335 24.4554 32.125H3.8125C3.26549 32.125 2.74089 31.9077 2.3541 31.5209C1.96731 31.1341 1.75 30.6095 1.75 30.0625Z" fill="url(#paint0_linear_97_70)" stroke="url(#paint1_linear_97_70)" stroke-width="0.3"></path><path d="M7.25 21.125H5.875V28H7.25V21.125Z" fill="url(#paint2_linear_97_70)" stroke="url(#paint3_linear_97_70)" stroke-width="0.3"></path><path d="M11.3751 14.25H10.0001V28H11.3751V14.25Z" fill="url(#paint4_linear_97_70)" stroke="url(#paint5_linear_97_70)" stroke-width="0.3"></path><path d="M15.5 21.125H14.125V28H15.5V21.125Z" fill="url(#paint6_linear_97_70)" stroke="url(#paint7_linear_97_70)" stroke-width="0.3"></path><path d="M19.625 14.25H18.25V28H19.625V14.25Z" fill="url(#paint8_linear_97_70)" stroke="url(#paint9_linear_97_70)" stroke-width="0.3"></path><defs><linearGradient id="paint0_linear_97_70" x1="30.625" y1="17" x2="0.375" y2="17" gradientUnits="userSpaceOnUse"><stop stop-color="#6083FF"></stop><stop offset="1" stop-color="#5F5DFF"></stop></linearGradient><linearGradient id="paint1_linear_97_70" x1="30.625" y1="17" x2="0.375" y2="17" gradientUnits="userSpaceOnUse"><stop stop-color="#6083FF"></stop><stop offset="1" stop-color="#5F5DFF"></stop></linearGradient><linearGradient id="paint2_linear_97_70" x1="7.25" y1="24.5625" x2="5.875" y2="24.5625" gradientUnits="userSpaceOnUse"><stop stop-color="#6083FF"></stop><stop offset="1" stop-color="#5F5DFF"></stop></linearGradient><linearGradient id="paint3_linear_97_70" x1="7.25" y1="24.5625" x2="5.875" y2="24.5625" gradientUnits="userSpaceOnUse"><stop stop-color="#6083FF"></stop><stop offset="1" stop-color="#5F5DFF"></stop></linearGradient><linearGradient id="paint4_linear_97_70" x1="11.3751" y1="21.125" x2="10.0001" y2="21.125" gradientUnits="userSpaceOnUse"><stop stop-color="#6083FF"></stop><stop offset="1" stop-color="#5F5DFF"></stop></linearGradient><linearGradient id="paint5_linear_97_70" x1="11.3751" y1="21.125" x2="10.0001" y2="21.125" gradientUnits="userSpaceOnUse"><stop stop-color="#6083FF"></stop><stop offset="1" stop-color="#5F5DFF"></stop></linearGradient><linearGradient id="paint6_linear_97_70" x1="15.5" y1="24.5625" x2="14.125" y2="24.5625" gradientUnits="userSpaceOnUse"><stop stop-color="#6083FF"></stop><stop offset="1" stop-color="#5F5DFF"></stop></linearGradient><linearGradient id="paint7_linear_97_70" x1="15.5" y1="24.5625" x2="14.125" y2="24.5625" gradientUnits="userSpaceOnUse"><stop stop-color="#6083FF"></stop><stop offset="1" stop-color="#5F5DFF"></stop></linearGradient><linearGradient id="paint8_linear_97_70" x1="19.625" y1="21.125" x2="18.25" y2="21.125" gradientUnits="userSpaceOnUse"><stop stop-color="#6083FF"></stop><stop offset="1" stop-color="#5F5DFF"></stop></linearGradient><linearGradient id="paint9_linear_97_70" x1="19.625" y1="21.125" x2="18.25" y2="21.125" gradientUnits="userSpaceOnUse"><stop stop-color="#6083FF"></stop><stop offset="1" stop-color="#5F5DFF"></stop></linearGradient></defs></svg>