<svg xmlns="http://www.w3.org/2000/svg" width="91" height="90" viewBox="0 0 91 90" fill="none"><path d="M20.625 18.45H9.375C8.88067 18.45 8.49205 18.2865 8.22776 18.0222C7.96347 17.758 7.8 17.3693 7.8 16.875C7.8 16.3807 7.96347 15.992 8.22776 15.7278C8.49205 15.4635 8.88067 15.3 9.375 15.3H20.625C21.1193 15.3 21.508 15.4635 21.7723 15.7278C22.0365 15.992 22.2 16.3807 22.2 16.875C22.2 17.3693 22.0365 17.758 21.7723 18.0222C21.508 18.2865 21.1193 18.45 20.625 18.45Z" fill="url(#paint0_linear_160_70)" stroke="white" stroke-width="0.6"></path><path d="M16.875 70.95H9.375C8.88067 70.95 8.49205 70.7865 8.22776 70.5222C7.96347 70.258 7.8 69.8693 7.8 69.375C7.8 68.8807 7.96347 68.492 8.22776 68.2278C8.49205 67.9635 8.88067 67.8 9.375 67.8H16.875C17.3693 67.8 17.758 67.9635 18.0222 68.2278C18.2865 68.492 18.45 68.8807 18.45 69.375C18.45 69.8693 18.2865 70.258 18.0222 70.5222C17.758 70.7865 17.3693 70.95 16.875 70.95Z" fill="url(#paint1_linear_160_70)" stroke="white" stroke-width="0.6"></path><path d="M39.375 70.95H24.375C23.8807 70.95 23.492 70.7865 23.2278 70.5222C22.9635 70.258 22.8 69.8693 22.8 69.375C22.8 68.8807 22.9635 68.492 23.2278 68.2278C23.492 67.9635 23.8807 67.8 24.375 67.8H39.375C39.8693 67.8 40.258 67.9635 40.5222 68.2278C40.7865 68.492 40.95 68.8807 40.95 69.375C40.95 69.8693 40.7865 70.258 40.5222 70.5222C40.258 70.7865 39.8693 70.95 39.375 70.95Z" fill="url(#paint2_linear_160_70)" stroke="white" stroke-width="0.6"></path><path d="M39.375 18.45H28.125C27.6307 18.45 27.242 18.2865 26.9778 18.0222C26.7135 17.758 26.55 17.3693 26.55 16.875C26.55 16.3807 26.7135 15.992 26.9778 15.7278C27.242 15.4635 27.6307 15.3 28.125 15.3H39.375C39.8693 15.3 40.258 15.4635 40.5223 15.7278C40.7865 15.992 40.95 16.3807 40.95 16.875C40.95 17.3693 40.7865 17.758 40.5223 18.0222C40.258 18.2865 39.8693 18.45 39.375 18.45Z" fill="url(#paint3_linear_160_70)" stroke="white" stroke-width="0.6"></path><path d="M39.375 25.95H35.625C35.1307 25.95 34.742 25.7865 34.4778 25.5222C34.2135 25.258 34.05 24.8693 34.05 24.375C34.05 23.8807 34.2135 23.492 34.4778 23.2278C34.742 22.9635 35.1307 22.8 35.625 22.8H39.375C39.8693 22.8 40.258 22.9635 40.5222 23.2278C40.7865 23.492 40.95 23.8807 40.95 24.375C40.95 24.8693 40.7865 25.258 40.5222 25.5222C40.258 25.7865 39.8693 25.95 39.375 25.95Z" fill="url(#paint4_linear_160_70)" stroke="white" stroke-width="0.6"></path><path d="M39.375 33.45H35.625C35.1307 33.45 34.742 33.2865 34.4778 33.0222C34.2135 32.758 34.05 32.3693 34.05 31.875C34.05 31.3807 34.2135 30.992 34.4778 30.7278C34.742 30.4635 35.1307 30.3 35.625 30.3H39.375C39.8693 30.3 40.258 30.4635 40.5222 30.7278C40.7865 30.992 40.95 31.3807 40.95 31.875C40.95 32.3693 40.7865 32.758 40.5222 33.0222C40.258 33.2865 39.8693 33.45 39.375 33.45Z" fill="url(#paint5_linear_160_70)" stroke="white" stroke-width="0.6"></path><path d="M39.375 40.95H35.625C35.1307 40.95 34.742 40.7865 34.4778 40.5222C34.2135 40.258 34.05 39.8693 34.05 39.375C34.05 38.8807 34.2135 38.492 34.4778 38.2278C34.742 37.9635 35.1307 37.8 35.625 37.8H39.375C39.8693 37.8 40.258 37.9635 40.5222 38.2278C40.7865 38.492 40.95 38.8807 40.95 39.375C40.95 39.8693 40.7865 40.258 40.5222 40.5222C40.258 40.7865 39.8693 40.95 39.375 40.95Z" fill="url(#paint6_linear_160_70)" stroke="white" stroke-width="0.6"></path><path d="M39.375 48.45H35.625C35.1307 48.45 34.742 48.2865 34.4778 48.0222C34.2135 47.758 34.05 47.3693 34.05 46.875C34.05 46.3807 34.2135 45.992 34.4778 45.7278C34.742 45.4635 35.1307 45.3 35.625 45.3H39.375C39.8693 45.3 40.258 45.4635 40.5222 45.7278C40.7865 45.992 40.95 46.3807 40.95 46.875C40.95 47.3693 40.7865 47.758 40.5222 48.0222C40.258 48.2865 39.8693 48.45 39.375 48.45Z" fill="url(#paint7_linear_160_70)" stroke="white" stroke-width="0.6"></path><path d="M39.375 55.9499H35.625C35.1307 55.9499 34.742 55.7865 34.4778 55.5222C34.2135 55.2579 34.05 54.8693 34.05 54.3749C34.05 53.8806 34.2135 53.492 34.4778 53.2277C34.742 52.9634 35.1307 52.7999 35.625 52.7999H39.375C39.8693 52.7999 40.258 52.9634 40.5222 53.2277C40.7865 53.492 40.95 53.8806 40.95 54.3749C40.95 54.8693 40.7865 55.2579 40.5222 55.5222C40.258 55.7865 39.8693 55.9499 39.375 55.9499Z" fill="url(#paint8_linear_160_70)" stroke="white" stroke-width="0.6"></path><path d="M39.375 63.45H35.625C35.1307 63.45 34.742 63.2865 34.4778 63.0222C34.2135 62.758 34.05 62.3693 34.05 61.875C34.05 61.3807 34.2135 60.992 34.4778 60.7278C34.742 60.4635 35.1307 60.3 35.625 60.3H39.375C39.8693 60.3 40.258 60.4635 40.5222 60.7278C40.7865 60.992 40.95 61.3807 40.95 61.875C40.95 62.3693 40.7865 62.758 40.5222 63.0222C40.258 63.2865 39.8693 63.45 39.375 63.45Z" fill="url(#paint9_linear_160_70)" stroke="white" stroke-width="0.6"></path><path d="M28.125 25.95H9.375C8.88067 25.95 8.49205 25.7865 8.22776 25.5222C7.96347 25.258 7.8 24.8693 7.8 24.375C7.8 23.8807 7.96347 23.492 8.22776 23.2278C8.49205 22.9635 8.88067 22.8 9.375 22.8H28.125C28.6193 22.8 29.008 22.9635 29.2722 23.2278C29.5365 23.492 29.7 23.8807 29.7 24.375C29.7 24.8693 29.5365 25.258 29.2722 25.5222C29.008 25.7865 28.6193 25.95 28.125 25.95Z" fill="url(#paint10_linear_160_70)" stroke="white" stroke-width="0.6"></path><path d="M24.375 63.45H13.125C10.2907 63.45 7.8 60.9593 7.8 58.125V35.625C7.8 32.7907 10.2907 30.3 13.125 30.3H24.375C27.2093 30.3 29.7 32.7907 29.7 35.625V58.125C29.7 60.9593 27.2093 63.45 24.375 63.45ZM13.125 33.45C12.4943 33.45 11.9455 33.6615 11.5535 34.0535C11.1615 34.4455 10.95 34.9943 10.95 35.625V58.125C10.95 58.7557 11.1615 59.3045 11.5535 59.6965C11.9455 60.0885 12.4943 60.3 13.125 60.3H24.375C25.0057 60.3 25.5545 60.0885 25.9465 59.6965C26.3385 59.3045 26.55 58.7557 26.55 58.125V35.625C26.55 34.9943 26.3385 34.4455 25.9465 34.0535C25.5545 33.6615 25.0057 33.45 24.375 33.45H13.125Z" fill="url(#paint11_linear_160_70)" stroke="white" stroke-width="0.6"></path><path d="M81.075 40.125V40.1619L81.084 40.1978C81.4483 41.6549 81.45 43.4902 81.45 45C81.45 46.4994 81.4483 48.3198 81.0915 49.772C80.8802 50.215 80.8806 50.6703 81.0524 51.0713C81.2247 51.4733 81.56 51.801 81.9832 52.0145L87.2129 55.0028C89.7235 56.8049 90.3775 59.9785 88.6446 62.0579L88.6281 62.0778L88.6152 62.1001L82.9951 71.8415C82.643 72.367 82.1085 72.9034 81.5203 73.356C80.9283 73.8113 80.3016 74.1666 79.7802 74.3404C79.2842 74.5057 78.5907 74.5126 77.8678 74.377C77.1488 74.2422 76.4387 73.9735 75.9165 73.6254L75.9079 73.6197L75.8989 73.6145L70.6489 70.6145L70.6416 70.6104L70.6342 70.6067C70.1784 70.3788 69.7261 70.3842 69.3023 70.4902C68.8952 70.592 68.4954 70.7919 68.1314 70.9739L68.1159 70.9817L68.0828 70.9982L68.0548 71.0222C65.4575 73.2485 62.8632 74.7309 59.8947 75.8441L59.88 75.8496L59.8659 75.8567C59.0002 76.2895 58.575 77.153 58.575 78V84.375C58.575 87.2093 56.0843 89.7 53.25 89.7H5.625C2.79069 89.7 0.3 87.2093 0.3 84.375V5.625C0.3 2.79069 2.79069 0.3 5.625 0.3H53.25C56.0843 0.3 58.575 2.79069 58.575 5.625V11.625C58.575 12.472 59.0002 13.3355 59.8659 13.7683L59.88 13.7754L59.8947 13.7809C62.8441 14.8869 65.4319 16.7307 68.0559 18.605C68.4622 19.0054 68.8899 19.2261 69.3378 19.2821C69.7854 19.338 70.2175 19.225 70.6241 19.0233L76.9893 16.4024L77.0447 16.3796L77.0872 16.3371C78.0985 15.3258 79.4609 15.2994 80.9273 15.666C82.3567 16.0234 83.4021 16.7249 84.1067 18.1342L84.1107 18.1422L84.1152 18.1499L89.7396 27.8988C89.7397 27.899 89.7398 27.8992 89.7398 27.8993C91.147 30.3624 90.1006 33.5587 87.605 34.9874L81.9839 37.9853L81.9445 38.0063L81.9129 38.0379C81.4854 38.4653 81.075 39.2902 81.075 40.125ZM48.7707 24.0757L48.45 24.0536V24.375V65.625V65.9464L48.7707 65.9243C59.7983 65.1638 68.55 56.0373 68.55 45C68.55 33.9627 59.7983 24.8362 48.7707 24.0757ZM22.5 3.45H22.2V3.75V5.625C22.2 6.25567 22.4115 6.80455 22.8035 7.19651C23.1955 7.58847 23.7443 7.8 24.375 7.8H35.625C36.2557 7.8 36.8046 7.58847 37.1965 7.19651C37.5885 6.80455 37.8 6.25567 37.8 5.625V3.75V3.45H37.5H22.5ZM19.05 3.75V3.45H18.75H5.625C4.99433 3.45 4.44545 3.66153 4.0535 4.05349C3.66154 4.44545 3.45 4.99433 3.45 5.625V75V75.3H3.75H45H45.3V75V3.75V3.45H45H41.25H40.95V3.75V5.625C40.95 8.45931 38.4593 10.95 35.625 10.95H24.375C21.5407 10.95 19.05 8.45931 19.05 5.625V3.75ZM3.75 78.45H3.45V78.75V84.375C3.45 85.0057 3.66154 85.5546 4.0535 85.9465C4.44545 86.3385 4.99433 86.55 5.625 86.55H45H45.3V86.25V78.75V78.45H45H3.75ZM80.4622 70.7121L80.4901 70.6842L80.5099 70.6499L86.116 60.9327C86.5504 60.4786 86.6628 59.8961 86.4348 59.3261C86.211 58.7666 85.6754 58.2538 84.8917 57.8604L79.6544 54.8678C79.6535 54.8672 79.6526 54.8667 79.6518 54.8662C77.8823 53.803 76.8212 51.6789 77.1691 49.5609C77.55 48.029 77.55 46.5019 77.55 45.0165V45V44.9835C77.55 43.4981 77.55 41.9711 77.1691 40.4392C76.8214 38.3227 77.8808 36.2 79.648 35.1361L85.2662 32.1397L85.2792 32.1328L85.2915 32.1246C85.8943 31.7227 86.3244 31.2023 86.4905 30.6487C86.6573 30.0929 86.5497 29.5206 86.116 29.0673L80.5099 19.3501L80.4901 19.3158L80.4622 19.2879L80.4537 19.2794C80.2723 19.098 80.0722 18.8979 79.8675 18.7444C79.6941 18.6143 79.4864 18.4933 79.2535 18.4594C79.0521 18.283 78.8211 18.1688 78.5625 18.1688C78.2807 18.1688 78.0315 18.3046 77.8179 18.5086L72.6012 21.4895L72.5809 21.5011L72.5626 21.5157C70.8287 22.9029 68.3628 22.581 66.5624 21.1407L66.5523 21.1326L66.5415 21.1254C64.28 19.6177 61.6388 18.1081 58.9932 16.9743L58.9817 16.9693L58.9699 16.9654C56.8488 16.2584 55.425 14.1277 55.425 12V5.625C55.425 4.99433 55.2135 4.44545 54.8215 4.05349C54.4296 3.66153 53.8807 3.45 53.25 3.45H48.75H48.45V3.75V20.625V20.9079L48.7324 20.9245C61.3371 21.6659 71.7 31.6718 71.7 44.625C71.7 57.5841 61.331 67.9594 48.7324 68.7005L48.45 68.7171V69V85.875V86.175H48.75H52.5C53.1307 86.175 53.6796 85.9635 54.0715 85.5715C54.4635 85.1796 54.675 84.6307 54.675 84V77.625C54.675 75.4993 56.0961 73.3707 58.2139 72.6616C60.8775 71.8993 63.5295 70.3831 65.799 68.4955C67.6129 67.4155 70.1029 67.0866 71.8457 68.1322L71.8522 68.1361L71.8589 68.1397L77.4476 71.1204C77.6988 71.3507 78.0372 71.451 78.3257 71.499C78.6316 71.55 78.9331 71.55 79.1194 71.55H79.125C79.4104 71.55 79.6628 71.4092 79.8675 71.2556C80.0722 71.1021 80.2724 70.902 80.4537 70.7206L80.4622 70.7121Z" fill="url(#paint12_linear_160_70)" stroke="white" stroke-width="0.6"></path><defs><linearGradient id="paint0_linear_160_70" x1="22.5" y1="16.875" x2="7.5" y2="16.875" gradientUnits="userSpaceOnUse"><stop stop-color="#263238"></stop><stop offset="0.0001" stop-color="#263238"></stop></linearGradient><linearGradient id="paint1_linear_160_70" x1="18.75" y1="69.375" x2="7.5" y2="69.375" gradientUnits="userSpaceOnUse"><stop stop-color="#263238"></stop><stop offset="0.0001" stop-color="#263238"></stop></linearGradient><linearGradient id="paint2_linear_160_70" x1="41.25" y1="69.375" x2="22.5" y2="69.375" gradientUnits="userSpaceOnUse"><stop stop-color="#263238"></stop><stop offset="0.0001" stop-color="#263238"></stop></linearGradient><linearGradient id="paint3_linear_160_70" x1="41.25" y1="16.875" x2="26.25" y2="16.875" gradientUnits="userSpaceOnUse"><stop stop-color="#263238"></stop><stop offset="0.0001" stop-color="#263238"></stop></linearGradient><linearGradient id="paint4_linear_160_70" x1="41.25" y1="24.375" x2="33.75" y2="24.375" gradientUnits="userSpaceOnUse"><stop stop-color="#263238"></stop><stop offset="0.0001" stop-color="#263238"></stop></linearGradient><linearGradient id="paint5_linear_160_70" x1="41.25" y1="31.875" x2="33.75" y2="31.875" gradientUnits="userSpaceOnUse"><stop stop-color="#263238"></stop><stop offset="0.0001" stop-color="#263238"></stop></linearGradient><linearGradient id="paint6_linear_160_70" x1="41.25" y1="39.375" x2="33.75" y2="39.375" gradientUnits="userSpaceOnUse"><stop stop-color="#263238"></stop><stop offset="0.0001" stop-color="#263238"></stop></linearGradient><linearGradient id="paint7_linear_160_70" x1="41.25" y1="46.875" x2="33.75" y2="46.875" gradientUnits="userSpaceOnUse"><stop stop-color="#263238"></stop><stop offset="0.0001" stop-color="#263238"></stop></linearGradient><linearGradient id="paint8_linear_160_70" x1="41.25" y1="54.3749" x2="33.75" y2="54.3749" gradientUnits="userSpaceOnUse"><stop stop-color="#263238"></stop><stop offset="0.0001" stop-color="#263238"></stop></linearGradient><linearGradient id="paint9_linear_160_70" x1="41.25" y1="61.875" x2="33.75" y2="61.875" gradientUnits="userSpaceOnUse"><stop stop-color="#263238"></stop><stop offset="0.0001" stop-color="#263238"></stop></linearGradient><linearGradient id="paint10_linear_160_70" x1="30" y1="24.375" x2="7.5" y2="24.375" gradientUnits="userSpaceOnUse"><stop stop-color="#263238"></stop><stop offset="0.0001" stop-color="#263238"></stop></linearGradient><linearGradient id="paint11_linear_160_70" x1="30" y1="46.875" x2="7.5" y2="46.875" gradientUnits="userSpaceOnUse"><stop stop-color="#263238"></stop><stop offset="0.0001" stop-color="#263238"></stop></linearGradient><linearGradient id="paint12_linear_160_70" x1="90.6719" y1="45" x2="-1.4941e-07" y2="45" gradientUnits="userSpaceOnUse"><stop stop-color="#263238"></stop><stop offset="0.0001" stop-color="#263238"></stop></linearGradient></defs></svg>