<svg xmlns="http://www.w3.org/2000/svg" width="90" height="84" viewBox="0 0 90 84" fill="none"><path d="M33.4 72V72.35H33.75H56.25H56.6V72V70.125C56.6 69.642 56.7595 69.2668 57.0131 69.0131C57.2668 68.7595 57.642 68.6 58.125 68.6H88.125C88.608 68.6 88.9832 68.7595 89.2369 69.0131C89.4905 69.2668 89.65 69.642 89.65 70.125V77.625C89.65 80.4317 87.1817 82.9 84.375 82.9H5.625C2.8183 82.9 0.35 80.4317 0.35 77.625V70.125C0.35 69.642 0.50946 69.2668 0.763112 69.0131C1.01676 68.7595 1.39204 68.6 1.875 68.6H31.875C32.358 68.6 32.7332 68.7595 32.9869 69.0131C33.2405 69.2668 33.4 69.642 33.4 70.125V72ZM3.75 71.65H3.4V72V77.625C3.4 78.267 3.61554 78.8293 4.01814 79.2319C4.42074 79.6345 4.98296 79.85 5.625 79.85H84.375C85.017 79.85 85.5793 79.6345 85.9819 79.2319C86.3845 78.8293 86.6 78.267 86.6 77.625V72V71.65H86.25H60H59.65V72V73.875C59.65 74.358 59.4905 74.7332 59.2369 74.9869C58.9832 75.2405 58.608 75.4 58.125 75.4H31.875C31.392 75.4 31.0168 75.2405 30.7631 74.9869C30.5095 74.7332 30.35 74.358 30.35 73.875V72V71.65H30H3.75Z" fill="#263238" stroke="white" stroke-width="0.7"></path><path d="M41.25 22.9C37.3183 22.9 34.1 19.6817 34.1 15.75C34.1 11.8183 37.3183 8.6 41.25 8.6C45.1817 8.6 48.4 11.8183 48.4 15.75C48.4 19.6817 45.1817 22.9 41.25 22.9ZM41.25 11.65C40.0455 11.65 39.0145 12.053 38.2838 12.7838C37.553 13.5145 37.15 14.5455 37.15 15.75C37.15 16.9545 37.553 17.9855 38.2838 18.7162C39.0145 19.447 40.0455 19.85 41.25 19.85C42.4545 19.85 43.4855 19.447 44.2162 18.7162C44.947 17.9855 45.35 16.9545 45.35 15.75C45.35 14.5455 44.947 13.5145 44.2162 12.7838C43.4855 12.053 42.4545 11.65 41.25 11.65Z" fill="#263238" stroke="white" stroke-width="0.7"></path><path d="M67.5 37.9C63.5683 37.9 60.35 34.6817 60.35 30.75C60.35 26.8183 63.5683 23.6 67.5 23.6C71.4317 23.6 74.65 26.8183 74.65 30.75C74.65 34.6817 71.4317 37.9 67.5 37.9ZM67.5 26.65C66.2955 26.65 65.2645 27.053 64.5338 27.7838C63.803 28.5145 63.4 29.5455 63.4 30.75C63.4 31.9545 63.803 32.9855 64.5338 33.7162C65.2645 34.447 66.2955 34.85 67.5 34.85C68.7045 34.85 69.7355 34.447 70.4662 33.7162C71.197 32.9855 71.6 31.9545 71.6 30.75C71.6 29.5455 71.197 28.5145 70.4662 27.7838C69.7355 27.053 68.7045 26.65 67.5 26.65Z" fill="#263238" stroke="white" stroke-width="0.7"></path><path d="M55.9 8.24999V8.59999H56.25H84.375C87.1817 8.59999 89.65 11.0683 89.65 13.875V62.6249C89.65 63.1079 89.4905 63.4832 89.2369 63.7368C88.9832 63.9905 88.608 64.1499 88.125 64.1499H1.875C1.39204 64.1499 1.01676 63.9905 0.763112 63.7368C0.50946 63.4832 0.35 63.1079 0.35 62.6249V13.875C0.35 11.0683 2.8183 8.59999 5.625 8.59999H7.5H7.85V8.24999V6.37499C7.85 3.5683 10.3183 1.1 13.125 1.1H50.625C53.4317 1.1 55.9 3.5683 55.9 6.37499V8.24999ZM55.187 27.5934L55.1221 27.7231L55.168 27.8607C55.252 28.1128 55.3338 28.3416 55.4104 28.5559C55.6896 29.337 55.9 29.9255 55.9 30.75C55.9 34.6706 52.693 37.9 48.375 37.9C44.4433 37.9 41.225 34.6817 41.225 30.75V30.4H40.875H37.125H36.775V30.75V40.125C36.775 40.767 36.9905 41.3292 37.3931 41.7318C37.7957 42.1344 38.358 42.35 39 42.35H67.5C68.9461 42.35 70.3413 42.7112 71.3775 43.7474L78.5025 50.8724L79.1 51.4699V50.625V21.375C79.1 20.7329 78.8845 20.1707 78.4819 19.7681C78.0793 19.3655 77.517 19.15 76.875 19.15H56.25H55.9V19.5V25.125C55.9 26.1608 55.5606 26.8462 55.187 27.5934ZM45 30.4H44.65V30.75C44.65 31.9545 45.053 32.9855 45.7838 33.7162C46.5145 34.4469 47.5455 34.85 48.75 34.85C49.9545 34.85 50.9855 34.4469 51.7162 33.7162C52.447 32.9855 52.85 31.9545 52.85 30.75V30.375V29.8087L52.3435 30.0619C51.9912 30.238 51.7436 30.3181 51.505 30.3579C51.2577 30.3991 51.0069 30.4 50.625 30.4H45ZM10.9 35.625V36.4699L11.4975 35.8725L18.6225 28.7475C19.3113 28.0587 20.7239 27.35 22.125 27.35H50.625C51.267 27.35 51.8293 27.1344 52.2319 26.7318C52.6345 26.3292 52.85 25.767 52.85 25.125V6.37499C52.85 5.73296 52.6345 5.17073 52.2319 4.76813C51.8293 4.36554 51.267 4.15 50.625 4.15H13.125C12.483 4.15 11.9207 4.36554 11.5181 4.76813C11.1155 5.17073 10.9 5.73296 10.9 6.37499V35.625ZM86.25 61.0999H86.6V60.7499V13.875C86.6 13.233 86.3845 12.6707 85.9819 12.2681C85.5793 11.8655 85.017 11.65 84.375 11.65H56.25H55.9V12V15.75V16.1H56.25H76.875C78.2719 16.1 79.5971 16.7121 80.6234 17.6491C81.6445 18.5814 82.3449 19.8131 82.525 21.0253V54.7499C82.525 55.3622 82.2324 55.9567 81.6633 56.2749H81.663H81.6612H81.6593H81.6575H81.6556H81.6538H81.652H81.6502H81.6484H81.6466H81.6448H81.643H81.6412H81.6394H81.6377H81.6359H81.6342H81.6324H81.6307H81.6289H81.6272H81.6255H81.6238H81.6221H81.6204H81.6187H81.617H81.6153H81.6136H81.612H81.6103H81.6086H81.607H81.6053H81.6037H81.6021H81.6004H81.5988H81.5972H81.5956H81.594H81.5924H81.5908H81.5892H81.5876H81.5861H81.5845H81.5829H81.5814H81.5798H81.5783H81.5767H81.5752H81.5737H81.5721H81.5706H81.5691H81.5676H81.5661H81.5646H81.5631H81.5616H81.5601H81.5587H81.5572H81.5557H81.5543H81.5528H81.5513H81.5499H81.5484H81.547H81.5456H81.5441H81.5427H81.5413H81.5399H81.5385H81.5371H81.5357H81.5343H81.5329H81.5315H81.5301H81.5287H81.5273H81.526H81.5246H81.5232H81.5219H81.5205H81.5192H81.5178H81.5165H81.5152H81.5138H81.5125H81.5112H81.5098H81.5085H81.5072H81.5059H81.5046H81.5033H81.502H81.5007H81.4994H81.4981H81.4968H81.4955H81.4943H81.493H81.4917H81.4904H81.4892H81.4879H81.4867H81.4854H81.4842H81.4829H81.4817H81.4804H81.4792H81.478H81.4767H81.4755H81.4743H81.473H81.4718H81.4706H81.4694H81.4682H81.467H81.4658H81.4645H81.4633H81.4621H81.461H81.4598H81.4586H81.4574H81.4562H81.455H81.4538H81.4526H81.4515H81.4503H81.4491H81.4479H81.4468H81.4456H81.4445H81.4433H81.4421H81.441H81.4398H81.4387H81.4375H81.4364H81.4352H81.4341H81.4329H81.4318H81.4306H81.4295H81.4284H81.4272H81.4261H81.4249H81.4238H81.4227H81.4216H81.4204H81.4193H81.4182H81.4171H81.4159H81.4148H81.4137H81.4126H81.4115H81.4103H81.4092H81.4081H81.407H81.4059H81.4048H81.4037H81.4025H81.4014H81.4003H81.3992H81.3981H81.397H81.3959H81.3948H81.3937H81.3926H81.3915H81.3904H81.3893H81.3882H81.3871H81.386H81.3849H81.3838H81.3827H81.3816H81.3805H81.3794H81.3783H81.3772H81.3761H81.375H81.3739H81.3728H81.3717H81.3706H81.3695H81.3684H81.3673H81.3662H81.3651H81.364H81.3629H81.3618H81.3607H81.3596H81.3585H81.3574H81.3563H81.3552H81.3541H81.353H81.3519H81.3508H81.3497H81.3486H81.3475H81.3463H81.3452H81.3441H81.343H81.3419H81.3408H81.3397H81.3385H81.3374H81.3363H81.3352H81.3341H81.3329H81.3318H81.3307H81.3296H81.3284H81.3273H81.3262H81.3251H81.3239H81.3228H81.3216H81.3205H81.3194H81.3182H81.3171H81.3159H81.3148H81.3136H81.3125H81.3113H81.3102H81.309H81.3079H81.3067H81.3055H81.3044H81.3032H81.3021H81.3009H81.2997H81.2985H81.2974H81.2962H81.295H81.2938H81.2926H81.2914H81.2902H81.289H81.2879H81.2867H81.2855H81.2842H81.283H81.2818H81.2806H81.2794H81.2782H81.277H81.2757H81.2745H81.2733H81.272H81.2708H81.2696H81.2683H81.2671H81.2658H81.2646H81.2633H81.2621H81.2608H81.2596H81.2583H81.257H81.2557H81.2545H81.2532H81.2519H81.2506H81.2493H81.248H81.2467H81.2454H81.2441H81.2428H81.2415H81.2402H81.2388H81.2375H81.2362H81.2348H81.2335H81.2322H81.2308H81.2295H81.2281H81.2268H81.2254H81.224H81.2227H81.2213H81.2199H81.2185H81.2171H81.2157H81.2143H81.2129H81.2115H81.2101H81.2087H81.2073H81.2059H81.2044H81.203H81.2016H81.2001H81.1987H81.1972H81.1957H81.1943H81.1928H81.1913H81.1899H81.1884H81.1869H81.1854H81.1839H81.1824H81.1809H81.1794H81.1779H81.1763H81.1748H81.1733H81.1717H81.1702H81.1686H81.1671H81.1655H81.1639H81.1624H81.1608H81.1592H81.1576H81.156H81.1544H81.1528H81.1512H81.1496H81.1479H81.1463H81.1447H81.143H81.1414H81.1397H81.138H81.1364H81.1347H81.133H81.1313H81.1296H81.1279H81.1262H81.1245H81.1228H81.1211H81.1193H81.1176H81.1158H81.1141H81.1123H81.1106H81.1088H81.107H81.1052H81.1034H81.1016H81.0998H81.098H81.0962H81.0944H81.0925H81.0907H81.0888H81.087H81.0851H81.0833H81.0814H81.0795H81.0776H81.0757H81.0738H81.0719H81.07H81.068H81.0661H81.0642H81.0622H81.0602H81.0583H81.0563H81.0543H81.0523H81.0503H81.0483H81.0463H81.0443H81.0423H81.0402H81.0382H81.0361H81.0341H81.032H81.0299H81.0279H81.0258H81.0237H81.0215H81.0194H81.0173H81.0152H81.013H81.0109H81.0087H81.0066H81.0044H81.0022H81C80.2216 56.2749 80.0039 56.2589 79.7475 56.0025L69.6225 45.8775L69.52 45.775H69.375C69.3298 45.775 69.2497 45.7621 69.1273 45.7287C69.0095 45.6966 68.8786 45.653 68.7357 45.6054L68.7308 45.6038C68.5938 45.5581 68.4454 45.5086 68.3069 45.4709C68.1716 45.434 68.0173 45.4 67.875 45.4H39.375C36.5683 45.4 34.1 42.9317 34.1 40.125V30.75V30.4H33.75H22.125C21.8233 30.4 21.5601 30.5486 21.3525 30.7043C21.145 30.86 20.9427 31.0622 20.7623 31.2427L20.7525 31.2525L10.7183 41.2867C10.6242 41.2998 10.5298 41.3222 10.4431 41.3459C10.3047 41.3836 10.1564 41.433 10.0195 41.4787L10.0143 41.4804C9.87145 41.528 9.7405 41.5716 9.62275 41.6037C9.50031 41.6371 9.42019 41.65 9.375 41.65H9.37281H9.37062H9.36845H9.36628H9.36412H9.36197H9.35983H9.35769H9.35557H9.35345H9.35134H9.34924H9.34715H9.34506H9.34299H9.34092H9.33886H9.33681H9.33476H9.33273H9.3307H9.32868H9.32666H9.32466H9.32266H9.32067H9.31869H9.31672H9.31475H9.31279H9.31084H9.3089H9.30696H9.30503H9.30311H9.3012H9.29929H9.29739H9.2955H9.29362H9.29174H9.28987H9.28801H9.28615H9.2843H9.28246H9.28063H9.2788H9.27698H9.27517H9.27336H9.27156H9.26977H9.26798H9.2662H9.26443H9.26266H9.26091H9.25915H9.25741H9.25567H9.25393H9.25221H9.25049H9.24877H9.24707H9.24537H9.24367H9.24199H9.2403H9.23863H9.23696H9.2353H9.23364H9.23199H9.23034H9.2287H9.22707H9.22544H9.22382H9.22221H9.2206H9.219H9.2174H9.21581H9.21422H9.21264H9.21107H9.2095H9.20793H9.20638H9.20482H9.20328H9.20174H9.2002H9.19867H9.19714H9.19562H9.19411H9.1926H9.1911H9.1896H9.1881H9.18662H9.18513H9.18365H9.18218H9.18071H9.17925H9.17779H9.17634H9.17489H9.17344H9.17201H9.17057H9.16914H9.16772H9.1663H9.16488H9.16347H9.16206H9.16066H9.15926H9.15787H9.15648H9.1551H9.15372H9.15234H9.15097H9.14961H9.14824H9.14688H9.14553H9.14418H9.14283H9.14149H9.14015H9.13882H9.13749H9.13616H9.13484H9.13352H9.13221H9.1309H9.12959H9.12829H9.12699H9.12569H9.1244H9.12311H9.12183H9.12054H9.11927H9.11799H9.11672H9.11545H9.11419H9.11293H9.11167H9.11041H9.10916H9.10791H9.10667H9.10543H9.10419H9.10295H9.10172H9.10049H9.09926H9.09804H9.09682H9.0956H9.09438H9.09317H9.09196H9.09075H9.08955H9.08835H9.08715H9.08595H9.08475H9.08356H9.08237H9.08119H9.08H9.07882H9.07764H9.07646H9.07529H9.07412H9.07295H9.07178H9.07061H9.06945H9.06828H9.06713H9.06597H9.06481H9.06366H9.0625H9.06135H9.06021H9.05906H9.05791H9.05677H9.05563H9.05449H9.05335H9.05222H9.05108H9.04995H9.04882H9.04769H9.04656H9.04543H9.0443H9.04318H9.04206H9.04093H9.03981H9.03869H9.03757H9.03646H9.03534H9.03422H9.03311H9.032H9.03088H9.02977H9.02866H9.02755H9.02644H9.02534H9.02423H9.02312H9.02202H9.02091H9.01981H9.0187H9.0176H9.0165H9.0154H9.01429H9.01319H9.01209H9.01099H9.00989H9.00879H9.00769H9.00659H9.00549H9.00439H9.0033H9.0022H9.0011H9H8.9989H8.9978H8.9967H8.99561H8.99451H8.99341H8.99231H8.99121H8.99011H8.98901H8.98791H8.98681H8.98571H8.9846H8.9835H8.9824H8.9813H8.98019H8.97909H8.97798H8.97688H8.97577H8.97466H8.97356H8.97245H8.97134H8.97023H8.96912H8.968H8.96689H8.96578H8.96466H8.96354H8.96243H8.96131H8.96019H8.95907H8.95794H8.95682H8.9557H8.95457H8.95344H8.95231H8.95118H8.95005H8.94892H8.94778H8.94665H8.94551H8.94437H8.94323H8.94209H8.94094H8.93979H8.93865H8.9375H8.93634H8.93519H8.93403H8.93287H8.93172H8.93055H8.92939H8.92822H8.92705H8.92588H8.92471H8.92354H8.92236H8.92118H8.92H8.91881H8.91763H8.91644H8.91525H8.91405H8.91285H8.91165H8.91045H8.90925H8.90804H8.90683H8.90562H8.9044H8.90318H8.90196H8.90074H8.89951H8.89828H8.89705H8.89581H8.89457H8.89333H8.89209H8.89084H8.88959H8.88833H8.88707H8.88581H8.88455H8.88328H8.88201H8.88073H8.87946H8.87817H8.87689H8.8756H8.87431H8.87301H8.87171H8.87041H8.8691H8.86779H8.86648H8.86516H8.86384H8.86251H8.86118H8.85985H8.85851H8.85717H8.85582H8.85447H8.85312H8.85176H8.85039H8.84903H8.84766H8.84628H8.8449H8.84352H8.84213H8.84074H8.83934H8.83794H8.83653H8.83512H8.8337H8.83228H8.83086H8.82943H8.82799H8.82656H8.82511H8.82366H8.82221H8.82075H8.81929H8.81782H8.81635H8.81487H8.81338H8.8119H8.8104H8.8089H8.8074H8.80589H8.80438H8.80286H8.80133H8.7998H8.79826H8.79672H8.79518H8.79362H8.79207H8.7905H8.78893H8.78736H8.78578H8.78419H8.7826H8.781H8.7794H8.77779H8.77618H8.77456H8.77293H8.7713H8.76966H8.76801H8.76636H8.7647H8.76304H8.76137H8.7597H8.75801H8.75633H8.75463H8.75293H8.75123H8.74951H8.74779H8.74607H8.74433H8.74259H8.74085H8.73909H8.73734H8.73557H8.7338H8.73202H8.73023H8.72844H8.72664H8.72483H8.72302H8.7212H8.71937H8.71754H8.7157H8.71385H8.71199H8.71169C8.14257 41.3317 7.85 40.7372 7.85 40.125V12V11.65H7.5H5.625C4.98296 11.65 4.42074 11.8655 4.01814 12.2681C3.61554 12.6707 3.4 13.233 3.4 13.875V60.7499V61.0999H3.75H86.25Z" fill="#263238" stroke="white" stroke-width="0.7"></path><path d="M22.5 22.9C18.5683 22.9 15.35 19.6817 15.35 15.75C15.35 11.8183 18.5683 8.6 22.5 8.6C26.4317 8.6 29.65 11.8183 29.65 15.75C29.65 19.6817 26.4317 22.9 22.5 22.9ZM22.5 11.65C21.2955 11.65 20.2645 12.053 19.5338 12.7838C18.803 13.5145 18.4 14.5455 18.4 15.75C18.4 16.9545 18.803 17.9855 19.5338 18.7162C20.2645 19.447 21.2955 19.85 22.5 19.85C23.7045 19.85 24.7355 19.447 25.4662 18.7162C26.197 17.9855 26.6 16.9545 26.6 15.75C26.6 14.5455 26.197 13.5145 25.4662 12.7838C24.7355 12.053 23.7045 11.65 22.5 11.65Z" fill="#263238" stroke="white" stroke-width="0.7"></path><path d="M20.625 56.65H9.375C8.89204 56.65 8.51676 56.4905 8.26311 56.2369C8.00946 55.9832 7.85 55.608 7.85 55.125C7.85 54.642 8.00946 54.2668 8.26311 54.0131C8.51676 53.7595 8.89204 53.6 9.375 53.6H20.625C21.108 53.6 21.4832 53.7595 21.7369 54.0131C21.9905 54.2668 22.15 54.642 22.15 55.125C22.15 55.608 21.9905 55.9832 21.7369 56.2369C21.4832 56.4905 21.108 56.65 20.625 56.65Z" fill="#263238" stroke="white" stroke-width="0.7"></path><path d="M39.375 56.65H28.125C27.642 56.65 27.2668 56.4905 27.0131 56.2369C26.7595 55.9832 26.6 55.608 26.6 55.125C26.6 54.642 26.7595 54.2668 27.0131 54.0131C27.2668 53.7595 27.642 53.6 28.125 53.6H39.375C39.858 53.6 40.2332 53.7595 40.4869 54.0131C40.7405 54.2668 40.9 54.642 40.9 55.125C40.9 55.608 40.7405 55.9832 40.4869 56.2369C40.2332 56.4905 39.858 56.65 39.375 56.65Z" fill="#263238" stroke="white" stroke-width="0.7"></path></svg>