<svg xmlns="http://www.w3.org/2000/svg" width="79" height="71" viewBox="0 0 79 71" fill="none"><path d="M29.7198 59.5709L29.7063 59.566L29.6931 59.5607C13.6925 53.1605 10.3298 39.3773 10.3298 29.1601C10.3298 17.3476 16.956 10.7401 24.0048 10.7401C27.044 10.7401 30.4278 11.449 33.0816 13.2181C35.7776 15.0155 37.6798 17.8881 37.6798 22.0426C37.6798 25.4709 35.8655 28.6613 32.8991 30.6389L32.8766 30.6539L32.8533 30.6675C30.5299 32.0228 27.6175 32.5372 25.4 31.2291C24.0009 30.5487 22.1996 31.1331 21.5248 32.4826C20.8234 33.8855 21.4066 35.706 22.7648 36.3851C26.8416 38.4235 31.8008 38.0995 35.9365 35.5152C40.6177 32.5672 43.5448 27.5543 43.5448 22.0426C43.5448 17.0025 41.5526 12.7326 38.1448 9.71308C34.7295 6.68685 29.8424 4.8751 24.0048 4.8751C14.7214 4.8751 4.46484 13.1543 4.46484 29.1601C4.46484 46.2839 12.6078 58.8671 27.4785 64.9477C27.771 64.9632 28.0421 65.0107 28.2493 65.0484L28.2571 65.0498C28.5494 65.1029 28.6713 65.1251 28.7498 65.1251C29.8599 65.1251 30.9652 64.4228 31.3731 63.3407C31.9453 61.7604 31.2185 60.1159 29.7198 59.5709Z" fill="url(#paint0_linear_161_202)" stroke="white" stroke-width="1.8"></path><path d="M65.5968 55.8434L65.5893 55.8407L65.582 55.8378C54.646 51.4634 52.3444 42.0482 52.3444 35.0476C52.3444 26.968 56.8684 22.5026 61.6272 22.5026C63.7009 22.5026 66.0022 22.9867 67.8016 24.1863C69.6245 25.4016 70.91 27.3406 70.91 30.1543C70.91 32.4683 69.6853 34.626 67.6761 35.9655L67.6636 35.9738L67.6507 35.9814C66.071 36.9029 64.1157 37.2369 62.6427 36.3654C61.6246 35.8673 60.3111 36.2884 59.816 37.2787C59.3059 38.2989 59.7262 39.6233 60.7216 40.121C63.5646 41.5425 67.0184 41.3142 69.8941 39.5169L69.894 39.5168L69.8996 39.5135C73.2624 37.4718 75.1797 33.9958 75.1797 30.1543C75.1797 26.6559 73.796 23.6878 71.4272 21.5889C69.0542 19.4863 65.6649 18.2329 61.6272 18.2329C55.1694 18.2329 48.0747 23.9883 48.0747 35.0476C48.0747 46.874 53.7077 55.5751 63.9944 59.7713C64.1274 59.7816 64.2666 59.8074 64.3782 59.8281C64.3962 59.8314 64.4135 59.8346 64.4299 59.8376C64.6023 59.869 64.7509 59.8923 64.8894 59.8923C65.6987 59.8923 66.5054 59.3817 66.8042 58.588C67.2185 57.4451 66.6943 56.2425 65.5968 55.8434Z" fill="url(#paint1_linear_161_202)" stroke="white"></path><defs><linearGradient id="paint0_linear_161_202" x1="3.56503" y1="35.0001" x2="92.625" y2="35.0001" gradientUnits="userSpaceOnUse"><stop stop-color="#6083FF"></stop><stop offset="1" stop-color="#5F5DFF"></stop></linearGradient><linearGradient id="paint1_linear_161_202" x1="14.451" y1="39.0626" x2="75.6797" y2="39.0626" gradientUnits="userSpaceOnUse"><stop stop-color="#6083FF"></stop><stop offset="1" stop-color="#5F5DFF"></stop></linearGradient></defs></svg>