<svg xmlns="http://www.w3.org/2000/svg" width="24" height="24" viewBox="0 0 24 24" fill="none"><path d="M22.8034 18.8598C22.8034 19.2499 22.7167 19.6507 22.5325 20.0408C22.3483 20.4308 22.11 20.7992 21.7958 21.1459C21.2649 21.731 20.6798 22.1536 20.0189 22.4244C19.3688 22.6953 18.6645 22.8361 17.9061 22.8361C16.801 22.8361 15.62 22.5761 14.374 22.0452C13.128 21.5143 11.882 20.7992 10.6469 19.8999C9.40087 18.9898 8.21989 17.9822 7.09308 16.8662C5.97711 15.7394 4.96948 14.5584 4.0702 13.3233C3.18176 12.0881 2.46667 10.853 1.9466 9.62864C1.42654 8.39349 1.1665 7.21251 1.1665 6.0857C1.1665 5.34894 1.29652 4.64468 1.55655 3.9946C1.81659 3.33369 2.2283 2.72694 2.80254 2.18521C3.49596 1.50262 4.25439 1.16675 5.05616 1.16675C5.35953 1.16675 5.6629 1.23176 5.93377 1.36177C6.21547 1.49179 6.46467 1.68681 6.6597 1.96852L9.17334 5.51146C9.36837 5.78233 9.50922 6.03153 9.60673 6.26989C9.70424 6.49742 9.75842 6.72495 9.75842 6.93081C9.75842 7.19084 9.68258 7.45087 9.53089 7.70007C9.39004 7.94927 9.18418 8.2093 8.92415 8.46933L8.10071 9.32527C7.98153 9.44445 7.92735 9.58531 7.92735 9.75866C7.92735 9.84534 7.93819 9.92118 7.95986 10.0079C7.99236 10.0945 8.02487 10.1595 8.04654 10.2246C8.24156 10.5821 8.57744 11.048 9.05416 11.6114C9.54172 12.1748 10.0618 12.749 10.6252 13.3233C11.2103 13.8975 11.7737 14.4284 12.3479 14.916C12.9113 15.3927 13.3772 15.7177 13.7456 15.9128C13.7998 15.9344 13.8648 15.9669 13.9406 15.9994C14.0273 16.0319 14.114 16.0428 14.2115 16.0428C14.3957 16.0428 14.5365 15.9778 14.6557 15.8586L15.4791 15.046C15.75 14.7751 16.01 14.5693 16.2592 14.4392C16.5084 14.2876 16.7576 14.2117 17.0285 14.2117C17.2344 14.2117 17.4511 14.2551 17.6894 14.3526C17.9278 14.4501 18.177 14.5909 18.4478 14.7751L22.0341 17.3213C22.3158 17.5163 22.5109 17.7438 22.63 18.0147C22.7384 18.2856 22.8034 18.5564 22.8034 18.8598Z" stroke="url(#paint0_linear_149_3214)" stroke-width="1.7" stroke-miterlimit="10"></path><path d="M19.0446 8.75113C19.0446 8.10105 18.5354 7.10425 17.7769 6.29165C17.0835 5.54406 16.1626 4.95898 15.2524 4.95898" stroke="url(#paint1_linear_149_3214)" stroke-width="1.7" stroke-linecap="round" stroke-linejoin="round"></path><path d="M22.8367 8.75103C22.8367 4.55801 19.4455 1.16675 15.2524 1.16675" stroke="url(#paint2_linear_149_3214)" stroke-width="1.7" stroke-linecap="round" stroke-linejoin="round"></path><defs><linearGradient id="paint0_linear_149_3214" x1="22.8034" y1="12.0014" x2="1.1665" y2="12.0014" gradientUnits="userSpaceOnUse"><stop stop-color="#6083FF"></stop><stop offset="1" stop-color="#5F5DFF"></stop></linearGradient><linearGradient id="paint1_linear_149_3214" x1="19.0446" y1="6.85506" x2="15.2524" y2="6.85506" gradientUnits="userSpaceOnUse"><stop stop-color="#6083FF"></stop><stop offset="1" stop-color="#5F5DFF"></stop></linearGradient><linearGradient id="paint2_linear_149_3214" x1="22.8367" y1="4.95889" x2="15.2524" y2="4.95889" gradientUnits="userSpaceOnUse"><stop stop-color="#6083FF"></stop><stop offset="1" stop-color="#5F5DFF"></stop></linearGradient></defs></svg>