<svg xmlns="http://www.w3.org/2000/svg" width="90" height="90" viewBox="0 0 90 90" fill="none"><path d="M76.875 18.45C74.0407 18.45 71.55 15.9593 71.55 13.125C71.55 10.2907 74.0407 7.8 76.875 7.8C79.7093 7.8 82.2 10.2907 82.2 13.125C82.2 15.9593 79.7093 18.45 76.875 18.45ZM76.875 10.95C76.2443 10.95 75.6955 11.1615 75.3035 11.5535C74.9115 11.9455 74.7 12.4943 74.7 13.125C74.7 13.7557 74.9115 14.3045 75.3035 14.6965C75.6955 15.0885 76.2443 15.3 76.875 15.3C77.5057 15.3 78.0545 15.0885 78.4465 14.6965C78.8385 14.3045 79.05 13.7557 79.05 13.125C79.05 12.4943 78.8385 11.9455 78.4465 11.5535C78.0545 11.1615 77.5057 10.95 76.875 10.95Z" fill="#263238" stroke="white" stroke-width="0.6"></path><path d="M61.875 18.45C59.0407 18.45 56.55 15.9593 56.55 13.125C56.55 10.2907 59.0407 7.8 61.875 7.8C64.7093 7.8 67.2 10.2907 67.2 13.125C67.2 15.9593 64.7093 18.45 61.875 18.45ZM61.875 10.95C61.2443 10.95 60.6955 11.1615 60.3035 11.5535C59.9115 11.9455 59.7 12.4943 59.7 13.125C59.7 13.7557 59.9115 14.3045 60.3035 14.6965C60.6955 15.0885 61.2443 15.3 61.875 15.3C62.5057 15.3 63.0545 15.0885 63.4465 14.6965C63.8385 14.3045 64.05 13.7557 64.05 13.125C64.05 12.4943 63.8385 11.9455 63.4465 11.5535C63.0545 11.1615 62.5057 10.95 61.875 10.95Z" fill="#263238" stroke="white" stroke-width="0.6"></path><path d="M46.875 18.45C44.0407 18.45 41.55 15.9593 41.55 13.125C41.55 10.2907 44.0407 7.8 46.875 7.8C49.7093 7.8 52.2 10.2907 52.2 13.125C52.2 15.9593 49.7093 18.45 46.875 18.45ZM46.875 10.95C46.2443 10.95 45.6955 11.1615 45.3035 11.5535C44.9115 11.9455 44.7 12.4943 44.7 13.125C44.7 13.7557 44.9115 14.3045 45.3035 14.6965C45.6955 15.0885 46.2443 15.3 46.875 15.3C47.5057 15.3 48.0545 15.0885 48.4465 14.6965C48.8385 14.3045 49.05 13.7557 49.05 13.125C49.05 12.4943 48.8385 11.9455 48.4465 11.5535C48.0545 11.1615 47.5057 10.95 46.875 10.95Z" fill="#263238" stroke="white" stroke-width="0.6"></path><path d="M37.8 75V74.7H37.5H5.625C2.79069 74.7 0.3 72.2093 0.3 69.375V5.625C0.3 2.79069 2.79069 0.3 5.625 0.3H84.375C87.2093 0.3 89.7 2.79069 89.7 5.625V80.625C89.7 83.4593 87.2093 85.95 84.375 85.95H52.125H51.9088L51.8404 86.1551C51.1296 88.2876 49.3657 89.7 46.875 89.7H39.375C38.8807 89.7 38.4921 89.5365 38.2278 89.2722C37.9635 89.0079 37.8 88.6193 37.8 88.125V75ZM86.25 22.8H86.55V22.5V5.625C86.55 4.99433 86.3385 4.44545 85.9465 4.05349C85.5546 3.66153 85.0057 3.45 84.375 3.45H5.625C4.99433 3.45 4.44545 3.66153 4.05349 4.05349C3.66153 4.44545 3.45 4.99433 3.45 5.625V22.5V22.8H3.75H86.25ZM40.95 86.25V86.55H41.25H46.875C47.5057 86.55 48.0546 86.3385 48.4465 85.9465C48.8385 85.5546 49.05 85.0057 49.05 84.375V54.375C49.05 53.7443 48.8385 53.1954 48.4465 52.8035C48.0546 52.4115 47.5057 52.2 46.875 52.2H41.25H40.95V52.5V86.25ZM52.2 82.5V82.8H52.5H84.375C85.0057 82.8 85.5546 82.5885 85.9465 82.1965C86.3385 81.8046 86.55 81.2557 86.55 80.625V58.125C86.55 57.4943 86.3385 56.9454 85.9465 56.5535C85.5546 56.1615 85.0057 55.95 84.375 55.95H76.875C74.0407 55.95 71.55 53.4593 71.55 50.625V43.125C71.55 42.4943 71.3385 41.9454 70.9465 41.5535C70.5546 41.1615 70.0057 40.95 69.375 40.95H65.625C64.9943 40.95 64.4454 41.1615 64.0535 41.5535C63.6615 41.9454 63.45 42.4943 63.45 43.125V50.625C63.45 53.4593 60.9593 55.95 58.125 55.95H52.5H52.2V56.25V82.5ZM60.375 41.55H60.5912L60.6596 41.3449C61.3704 39.2124 63.1343 37.8 65.625 37.8H69.375C71.5027 37.8 73.6334 39.2238 74.3404 41.3449L74.4088 41.55H74.625H76.875C77.5057 41.55 78.0546 41.3385 78.4465 40.9465C78.8385 40.5546 79.05 40.0057 79.05 39.375V35.625C79.05 34.9943 78.8385 34.4454 78.4465 34.0535C78.0546 33.6615 77.5057 33.45 76.875 33.45H13.125C12.4943 33.45 11.9455 33.6615 11.5535 34.0535C11.1615 34.4454 10.95 34.9943 10.95 35.625V39.375C10.95 40.0057 11.1615 40.5546 11.5535 40.9465C11.9455 41.3385 12.4943 41.55 13.125 41.55H60.375ZM75 44.7H74.7V45V50.625C74.7 51.2557 74.9115 51.8046 75.3035 52.1965C75.6954 52.5885 76.2443 52.8 76.875 52.8H84.375C84.7559 52.8 85.011 52.8008 85.2632 52.8428C85.5079 52.8836 85.7603 52.9656 86.1158 53.1433L86.55 53.3604V52.875V26.25V25.95H86.25H3.75H3.45V26.25V69.375C3.45 70.0057 3.66153 70.5546 4.05349 70.9465C4.44545 71.3385 4.99433 71.55 5.625 71.55H37.5H37.8V71.25V50.625C37.8 50.1307 37.9635 49.7421 38.2278 49.4778C38.4921 49.2135 38.8807 49.05 39.375 49.05H46.875C49.0027 49.05 51.1334 50.4738 51.8404 52.5949L51.9088 52.8H52.125H58.125C58.7557 52.8 59.3046 52.5885 59.6965 52.1965C60.0885 51.8046 60.3 51.2557 60.3 50.625V45V44.7H60H13.125C10.2907 44.7 7.8 42.2093 7.8 39.375V35.625C7.8 32.7907 10.2907 30.3 13.125 30.3H76.875C79.7093 30.3 82.2 32.7907 82.2 35.625V39.375C82.2 42.2093 79.7093 44.7 76.875 44.7H75Z" fill="#263238" stroke="white" stroke-width="0.6"></path><path d="M16.875 52.2001H9.375C8.88067 52.2001 8.49205 52.0366 8.22776 51.7723C7.96347 51.508 7.8 51.1194 7.8 50.6251C7.8 50.1307 7.96347 49.7421 8.22776 49.4778C8.49205 49.2135 8.88067 49.0501 9.375 49.0501H16.875C17.3693 49.0501 17.758 49.2135 18.0222 49.4778C18.2865 49.7421 18.45 50.1307 18.45 50.6251C18.45 51.1194 18.2865 51.508 18.0222 51.7723C17.758 52.0366 17.3693 52.2001 16.875 52.2001Z" fill="#263238" stroke="white" stroke-width="0.6"></path><path d="M31.875 52.2001H24.375C23.8807 52.2001 23.492 52.0366 23.2278 51.7723C22.9635 51.508 22.8 51.1194 22.8 50.6251C22.8 50.1307 22.9635 49.7421 23.2278 49.4778C23.492 49.2135 23.8807 49.0501 24.375 49.0501H31.875C32.3693 49.0501 32.758 49.2135 33.0222 49.4778C33.2865 49.7421 33.45 50.1307 33.45 50.6251C33.45 51.1194 33.2865 51.508 33.0222 51.7723C32.758 52.0366 32.3693 52.2001 31.875 52.2001Z" fill="#263238" stroke="white" stroke-width="0.6"></path><path d="M16.875 59.7H9.375C8.88067 59.7 8.49205 59.5365 8.22776 59.2722C7.96347 59.008 7.8 58.6193 7.8 58.125C7.8 57.6307 7.96347 57.242 8.22776 56.9778C8.49205 56.7135 8.88067 56.55 9.375 56.55H16.875C17.3693 56.55 17.758 56.7135 18.0222 56.9778C18.2865 57.242 18.45 57.6307 18.45 58.125C18.45 58.6193 18.2865 59.008 18.0222 59.2722C17.758 59.5365 17.3693 59.7 16.875 59.7Z" fill="#263238" stroke="white" stroke-width="0.6"></path><path d="M31.875 59.7H24.375C23.8807 59.7 23.492 59.5365 23.2278 59.2722C22.9635 59.008 22.8 58.6193 22.8 58.125C22.8 57.6307 22.9635 57.242 23.2278 56.9778C23.492 56.7135 23.8807 56.55 24.375 56.55H31.875C32.3693 56.55 32.758 56.7135 33.0222 56.9778C33.2865 57.242 33.45 57.6307 33.45 58.125C33.45 58.6193 33.2865 59.008 33.0222 59.2722C32.758 59.5365 32.3693 59.7 31.875 59.7Z" fill="#263238" stroke="white" stroke-width="0.6"></path><path d="M16.875 67.1999H9.375C8.88067 67.1999 8.49205 67.0365 8.22776 66.7722C7.96347 66.5079 7.8 66.1193 7.8 65.6249C7.8 65.1306 7.96347 64.742 8.22776 64.4777C8.49205 64.2134 8.88067 64.0499 9.375 64.0499H16.875C17.3693 64.0499 17.758 64.2134 18.0222 64.4777C18.2865 64.742 18.45 65.1306 18.45 65.6249C18.45 66.1193 18.2865 66.5079 18.0222 66.7722C17.758 67.0365 17.3693 67.1999 16.875 67.1999Z" fill="#263238" stroke="white" stroke-width="0.6"></path><path d="M31.875 67.1999H24.375C23.8807 67.1999 23.492 67.0365 23.2278 66.7722C22.9635 66.5079 22.8 66.1193 22.8 65.6249C22.8 65.1306 22.9635 64.742 23.2278 64.4777C23.492 64.2134 23.8807 64.0499 24.375 64.0499H31.875C32.3693 64.0499 32.758 64.2134 33.0222 64.4777C33.2865 64.742 33.45 65.1306 33.45 65.6249C33.45 66.1193 33.2865 66.5079 33.0222 66.7722C32.758 67.0365 32.3693 67.1999 31.875 67.1999Z" fill="#263238" stroke="white" stroke-width="0.6"></path></svg>