<svg xmlns="http://www.w3.org/2000/svg" width="40" height="33" viewBox="0 0 40 33" fill="none"><path d="M4.05859 20.825H4.31702L4.2522 20.5748C3.91177 19.261 3.7 17.9085 3.7 16.5C3.7 7.51183 11.0118 0.2 20 0.2C26.5573 0.2 32.23 4.11003 34.8145 9.70882L34.8681 9.825H34.9961H38.25C38.8969 9.825 39.425 10.3531 39.425 11C39.425 11.6469 38.8969 12.175 38.25 12.175H35.9414H35.683L35.7478 12.4252C36.0882 13.739 36.3 15.0915 36.3 16.5C36.3 25.4882 28.9882 32.8 20 32.8C13.4427 32.8 7.76996 28.89 5.18549 23.2912L5.13186 23.175H5.00391H1.75C1.10313 23.175 0.575 22.6469 0.575 22C0.575 21.3531 1.10313 20.825 1.75 20.825H4.05859ZM31.9023 9.825H32.2484L32.0756 9.52514C29.6673 5.34598 25.1822 2.55 20 2.55C12.2787 2.55 6.05 8.7787 6.05 16.5C6.05 17.9574 6.24579 19.3582 6.66068 20.6847L6.70456 20.825H6.85156H26.875C27.5219 20.825 28.05 21.3531 28.05 22C28.05 22.6469 27.5219 23.175 26.875 23.175H8.09766H7.75157L7.92437 23.4749C10.3327 27.654 14.8178 30.45 20 30.45C27.7213 30.45 33.95 24.2213 33.95 16.5C33.95 15.0426 33.7542 13.6418 33.3393 12.3153L33.2954 12.175H33.1484H13.125C12.4781 12.175 11.95 11.6469 11.95 11C11.95 10.3531 12.4781 9.825 13.125 9.825H31.9023ZM11.95 16.5C11.95 15.8531 12.4781 15.325 13.125 15.325H26.875C27.5219 15.325 28.05 15.8531 28.05 16.5C28.05 17.1469 27.5219 17.675 26.875 17.675H13.125C12.4781 17.675 11.95 17.1469 11.95 16.5Z" fill="url(#paint0_linear_98_78)" stroke="white" stroke-width="0.4"></path><defs><linearGradient id="paint0_linear_98_78" x1="40.625" y1="16.5" x2="-0.624999" y2="16.5" gradientUnits="userSpaceOnUse"><stop stop-color="#6083FF"></stop><stop offset="1" stop-color="#5F5DFF"></stop></linearGradient></defs></svg>