<svg xmlns="http://www.w3.org/2000/svg" width="46" height="46" viewBox="0 0 46 46" fill="none"><g clip-path="url(#clip0_85_100)"><path d="M22.982 4.60004C22.802 4.60243 22.6251 4.64705 22.4654 4.73031L0.615433 16.2303C0.429026 16.3275 0.272838 16.474 0.163844 16.6538C0.0548507 16.8336 -0.00277803 17.0398 -0.00277803 17.25C-0.00277803 17.4603 0.0548507 17.6665 0.163844 17.8463C0.272838 18.0261 0.429026 18.1725 0.615433 18.2698L22.4654 29.7698C22.6303 29.8563 22.8138 29.9015 23 29.9015C23.1862 29.9015 23.3697 29.8563 23.5346 29.7698L45.3846 18.2698C45.571 18.1725 45.7272 18.0261 45.8362 17.8463C45.9452 17.6665 46.0028 17.4603 46.0028 17.25C46.0028 17.0398 45.9452 16.8336 45.8362 16.6538C45.7272 16.474 45.571 16.3275 45.3846 16.2303L23.5346 4.73031C23.3642 4.6414 23.1742 4.59661 22.982 4.60004ZM23 7.05277L42.3793 17.25L23 27.4518L3.62071 17.25L23 7.05277ZM1.13203 22.9911C0.872791 22.9906 0.620994 23.0777 0.417487 23.2383C0.21398 23.3989 0.0707001 23.6236 0.0108883 23.8758C-0.0489235 24.1281 -0.0217587 24.3931 0.0879764 24.628C0.197712 24.8629 0.38358 25.0538 0.615433 25.1698L22.4654 36.6698C22.6303 36.7563 22.8138 36.8015 23 36.8015C23.1862 36.8015 23.3697 36.7563 23.5346 36.6698L45.3846 25.1698C45.5185 25.0996 45.6373 25.0037 45.7341 24.8876C45.831 24.7715 45.904 24.6374 45.9491 24.4931C45.9941 24.3488 46.0103 24.197 45.9967 24.0464C45.9831 23.8958 45.9399 23.7494 45.8697 23.6155C45.7995 23.4816 45.7036 23.3628 45.5875 23.2659C45.4714 23.1691 45.3374 23.096 45.1931 23.051C45.0487 23.0059 44.8969 22.9897 44.7464 23.0034C44.5958 23.017 44.4494 23.0601 44.3154 23.1303L23 34.3518L1.68457 23.1303C1.51499 23.0383 1.32498 22.9904 1.13203 22.9911ZM1.13203 29.8911C0.872791 29.8906 0.620995 29.9777 0.417488 30.1383C0.213981 30.2989 0.070701 30.5236 0.0108892 30.7758C-0.0489225 31.0281 -0.0217578 31.2931 0.0879771 31.528C0.197712 31.7629 0.38358 31.9538 0.615433 32.0698L22.4654 43.5698C22.6303 43.6563 22.8138 43.7015 23 43.7015C23.1862 43.7015 23.3697 43.6563 23.5346 43.5698L45.3846 32.0698C45.5185 31.9996 45.6373 31.9037 45.7341 31.7876C45.831 31.6715 45.904 31.5374 45.9491 31.3931C45.9941 31.2488 46.0103 31.097 45.9967 30.9464C45.9831 30.7958 45.9399 30.6494 45.8697 30.5155C45.7995 30.3816 45.7036 30.2628 45.5875 30.1659C45.4714 30.0691 45.3374 29.996 45.1931 29.951C45.0487 29.9059 44.8969 29.8897 44.7464 29.9034C44.5958 29.917 44.4494 29.9601 44.3154 30.0303L23 41.2518L1.68457 30.0303C1.51499 29.9383 1.32498 29.8904 1.13203 29.8911Z" fill="url(#paint0_linear_85_100)"></path></g><defs><linearGradient id="paint0_linear_85_100" x1="46.0028" y1="24.1507" x2="-0.0201417" y2="24.1507" gradientUnits="userSpaceOnUse"><stop stop-color="#6083FF"></stop><stop offset="1" stop-color="#5F5DFF"></stop></linearGradient><clipPath id="clip0_85_100"><rect width="46" height="46" fill="white"></rect></clipPath></defs></svg>