<svg xmlns="http://www.w3.org/2000/svg" width="90" height="90" viewBox="0 0 90 90" fill="none"><path d="M15 71.55H15.3V71.25V5.625C15.3 2.79069 17.7907 0.3 20.625 0.3H80.625C82.7951 0.3 84.6051 1.01889 86.4353 2.48239C88.6134 4.29868 89.7 6.83743 89.7 9.375V28.125C89.7 30.9593 87.2093 33.45 84.375 33.45H75H74.7V33.75V80.25C74.7 84.9809 71.4323 88.9651 67.1 89.7H67.0986H67.0964H67.0942H67.092H67.0898H67.0876H67.0854H67.0832H67.081H67.0788H67.0766H67.0744H67.0722H67.07H67.0678H67.0656H67.0634H67.0612H67.059H67.0568H67.0546H67.0524H67.0502H67.048H67.0458H67.0436H67.0414H67.0391H67.0369H67.0347H67.0325H67.0303H67.0281H67.0259H67.0237H67.0214H67.0192H67.017H67.0148H67.0126H67.0104H67.0081H67.0059H67.0037H67.0015H66.9992H66.997H66.9948H66.9926H66.9903H66.9881H66.9859H66.9836H66.9814H66.9792H66.9769H66.9747H66.9725H66.9702H66.968H66.9658H66.9635H66.9613H66.959H66.9568H66.9545H66.9523H66.95H66.9478H66.9455H66.9433H66.941H66.9388H66.9365H66.9343H66.932H66.9297H66.9275H66.9252H66.9229H66.9207H66.9184H66.9161H66.9139H66.9116H66.9093H66.907H66.9048H66.9025H66.9002H66.8979H66.8956H66.8933H66.8911H66.8888H66.8865H66.8842H66.8819H66.8796H66.8773H66.875H66.8727H66.8704H66.8681H66.8658H66.8634H66.8611H66.8588H66.8565H66.8542H66.8519H66.8495H66.8472H66.8449H66.8426H66.8402H66.8379H66.8356H66.8332H66.8309H66.8285H66.8262H66.8238H66.8215H66.8191H66.8168H66.8144H66.8121H66.8097H66.8074H66.805H66.8026H66.8002H66.7979H66.7955H66.7931H66.7907H66.7884H66.786H66.7836H66.7812H66.7788H66.7764H66.774H66.7716H66.7692H66.7668H66.7644H66.762H66.7596H66.7572H66.7547H66.7523H66.7499H66.7475H66.745H66.7426H66.7402H66.7377H66.7353H66.7329H66.7304H66.728H66.7255H66.7231H66.7206H66.7181H66.7157H66.7132H66.7107H66.7083H66.7058H66.7033H66.7008H66.6983H66.6958H66.6934H66.6909H66.6884H66.6859H66.6833H66.6808H66.6783H66.6758H66.6733H66.6708H66.6683H66.6657H66.6632H66.6607H66.6581H66.6556H66.653H66.6505H66.6479H66.6454H66.6428H66.6403H66.6377H66.6351H66.6326H66.63H66.6274H66.6248H66.6222H66.6196H66.6171H66.6145H66.6119H66.6092H66.6066H66.604H66.6014H66.5988H66.5962H66.5935H66.5909H66.5883H66.5856H66.583H66.5803H66.5777H66.575H66.5724H66.5697H66.5671H66.5644H66.5617H66.559H66.5564H66.5537H66.551H66.5483H66.5456H66.5429H66.5402H66.5375H66.5347H66.532H66.5293H66.5266H66.5238H66.5211H66.5184H66.5156H66.5129H66.5101H66.5074H66.5046H66.5018H66.4991H66.4963H66.4935H66.4907H66.4879H66.4851H66.4824H66.4796H66.4767H66.4739H66.4711H66.4683H66.4655H66.4626H66.4598H66.457H66.4541H66.4513H66.4484H66.4456H66.4427H66.4398H66.437H66.4341H66.4312H66.4283H66.4254H66.4226H66.4196H66.4167H66.4138H66.4109H66.408H66.4051H66.4022H66.3992H66.3963H66.3933H66.3904H66.3874H66.3845H66.3815H66.3785H66.3756H66.3726H66.3696H66.3666H66.3636H66.3606H66.3576H66.3546H66.3516H66.3486H66.3455H66.3425H66.3395H66.3364H66.3334H66.3303H66.3273H66.3242H66.3211H66.3181H66.315H66.3119H66.3088H66.3057H66.3026H66.2995H66.2964H66.2933H66.2901H66.287H66.2839H66.2807H66.2776H66.2744H66.2713H66.2681H66.2649H66.2618H66.2586H66.2554H66.2522H66.249H66.2458H66.2426H66.2394H66.2362H66.2329H66.2297H66.2265H66.2232H66.22H66.2167H66.2135H66.2102H66.2069H66.2036H66.2003H66.1971H66.1937H66.1904H66.1871H66.1838H66.1805H66.1772H66.1738H66.1705H66.1671H66.1638H66.1604H66.1571H66.1537H66.1503H66.1469H66.1435H66.1401H66.1367H66.1333H66.1299H66.1265H66.123H66.1196H66.1162H66.1127H66.1093H66.1058H66.1023H66.0989H66.0954H66.0919H66.0884H66.0849H66.0814H66.0779H66.0743H66.0708H66.0673H66.0637H66.0602H66.0566H66.0531H66.0495H66.0459H66.0423H66.0388H66.0352H66.0316H66.0279H66.0243H66.0207H66.0171H66.0134H66.0098H66.0061H66.0025H65.9988H65.9951H65.9915H65.9878H65.9841H65.9804H65.9767H65.973H65.9692H65.9655H65.9618H65.958H65.9543H65.9505H65.9468H65.943H65.9392H65.9354H65.9316H65.9278H65.924H65.9202H65.9164H65.9125H65.9087H65.9049H65.901H65.8971H65.8933H65.8894H65.8855H65.8816H65.8777H65.8738H65.8699H65.866H65.8621H65.8581H65.8542H65.8502H65.8463H65.8423H65.8383H65.8344H65.8304H65.8264H65.8223H65.8183H65.8143H65.8103H65.8063H65.8022H65.7982H65.7941H65.79H65.7859H65.7819H65.7778H65.7737H65.7696H65.7654H65.7613H65.7572H65.7531H65.7489H65.7447H65.7406H65.7364H65.7322H65.728H65.7238H65.7196H65.7154H65.7112H65.707H65.7027H65.6985H65.6942H65.69H65.6857H65.6814H65.6771H65.6728H65.6685H65.6642H65.6599H65.6556H65.6512H65.6469H65.6425H65.6381H65.6338H65.6294H65.625H9.375C4.29069 89.7 0.3 85.7093 0.3 80.625V76.875C0.3 74.0407 2.79069 71.55 5.625 71.55H15ZM58.125 86.55H58.725L58.365 86.07C57.2789 84.6219 56.55 82.4351 56.55 80.625V76.875C56.55 76.2443 56.3385 75.6954 55.9465 75.3035C55.5546 74.9115 55.0057 74.7 54.375 74.7H5.625C4.99433 74.7 4.44545 74.9115 4.05349 75.3035C3.66153 75.6954 3.45 76.2443 3.45 76.875V80.625C3.45 83.7907 6.20931 86.55 9.375 86.55H58.125ZM66.75 86.55H66.7713L66.7924 86.547C69.6042 86.1453 71.55 83.3562 71.55 80.25V9.75C71.55 7.55902 72.2823 5.37355 73.365 3.93L73.725 3.45H73.125H20.625C19.9943 3.45 19.4455 3.66153 19.0535 4.05349C18.6615 4.44545 18.45 4.99433 18.45 5.625V71.25V71.55H18.75H54.75C57.5843 71.55 60.075 74.0407 60.075 76.875V80.625C60.075 82.2132 60.8614 83.7765 62.0173 84.9414C62.8554 86.1713 64.4702 86.55 65.625 86.55H65.6272H65.6294H65.6316H65.6338H65.636H65.6382H65.6404H65.6426H65.6448H65.647H65.6492H65.6514H65.6536H65.6558H65.658H65.6602H65.6624H65.6646H65.6667H65.6689H65.6711H65.6733H65.6755H65.6777H65.6799H65.6821H65.6843H65.6865H65.6887H65.6909H65.6931H65.6953H65.6975H65.6997H65.7019H65.7041H65.7063H65.7085H65.7107H65.7129H65.7151H65.7173H65.7195H65.7217H65.7239H65.7261H65.7283H65.7305H65.7327H65.7349H65.7371H65.7393H65.7415H65.7437H65.7458H65.748H65.7502H65.7524H65.7546H65.7568H65.759H65.7612H65.7634H65.7656H65.7678H65.77H65.7722H65.7744H65.7766H65.7788H65.781H65.7832H65.7854H65.7876H65.7898H65.792H65.7942H65.7964H65.7986H65.8008H65.803H65.8052H65.8074H65.8096H65.8118H65.814H65.8162H65.8184H65.8206H65.8228H65.825H65.8271H65.8293H65.8315H65.8337H65.8359H65.8381H65.8403H65.8425H65.8447H65.8469H65.8491H65.8513H65.8535H65.8557H65.8579H65.8601H65.8623H65.8645H65.8667H65.8689H65.8711H65.8733H65.8755H65.8777H65.8799H65.8821H65.8843H65.8865H65.8887H65.8909H65.8931H65.8953H65.8975H65.8997H65.9019H65.9041H65.9062H65.9084H65.9106H65.9128H65.915H65.9172H65.9194H65.9216H65.9238H65.926H65.9282H65.9304H65.9326H65.9348H65.937H65.9392H65.9414H65.9436H65.9458H65.948H65.9502H65.9524H65.9546H65.9568H65.959H65.9612H65.9634H65.9656H65.9678H65.97H65.9722H65.9744H65.9766H65.9788H65.981H65.9832H65.9854H65.9875H65.9897H65.9919H65.9941H65.9963H65.9985H66.0007H66.0029H66.0051H66.0073H66.0095H66.0117H66.0139H66.0161H66.0183H66.0205H66.0227H66.0249H66.0271H66.0293H66.0315H66.0337H66.0359H66.0381H66.0403H66.0425H66.0447H66.0469H66.0491H66.0513H66.0535H66.0557H66.0579H66.0601H66.0623H66.0645H66.0667H66.0688H66.071H66.0732H66.0754H66.0776H66.0798H66.082H66.0842H66.0864H66.0886H66.0908H66.093H66.0952H66.0974H66.0996H66.1018H66.104H66.1062H66.1084H66.1106H66.1128H66.115H66.1172H66.1194H66.1216H66.1238H66.126H66.1282H66.1304H66.1326H66.1348H66.137H66.1392H66.1414H66.1436H66.1458H66.1479H66.1501H66.1523H66.1545H66.1567H66.1589H66.1611H66.1633H66.1655H66.1677H66.1699H66.1721H66.1743H66.1765H66.1787H66.1809H66.1831H66.1853H66.1875H66.1897H66.1919H66.1941H66.1963H66.1985H66.2007H66.2029H66.2051H66.2073H66.2095H66.2117H66.2139H66.2161H66.2183H66.2205H66.2227H66.2249H66.2271H66.2292H66.2314H66.2336H66.2358H66.238H66.2402H66.2424H66.2446H66.2468H66.249H66.2512H66.2534H66.2556H66.2578H66.26H66.2622H66.2644H66.2666H66.2688H66.271H66.2732H66.2754H66.2776H66.2798H66.282H66.2842H66.2864H66.2886H66.2908H66.293H66.2952H66.2974H66.2996H66.3018H66.304H66.3062H66.3083H66.3105H66.3127H66.3149H66.3171H66.3193H66.3215H66.3237H66.3259H66.3281H66.3303H66.3325H66.3347H66.3369H66.3391H66.3413H66.3435H66.3457H66.3479H66.3501H66.3523H66.3545H66.3567H66.3589H66.3611H66.3633H66.3655H66.3677H66.3699H66.3721H66.3743H66.3765H66.3787H66.3809H66.3831H66.3853H66.3875H66.3896H66.3918H66.394H66.3962H66.3984H66.4006H66.4028H66.405H66.4072H66.4094H66.4116H66.4138H66.416H66.4182H66.4204H66.4226H66.4248H66.427H66.4292H66.4314H66.4336H66.4358H66.438H66.4402H66.4424H66.4446H66.4468H66.449H66.4512H66.4534H66.4556H66.4578H66.46H66.4622H66.4644H66.4666H66.4688H66.4709H66.4731H66.4753H66.4775H66.4797H66.4819H66.4841H66.4863H66.4885H66.4907H66.4929H66.4951H66.4973H66.4995H66.5017H66.5039H66.5061H66.5083H66.5105H66.5127H66.5149H66.5171H66.5193H66.5215H66.5237H66.5259H66.5281H66.5303H66.5325H66.5347H66.5369H66.5391H66.5413H66.5435H66.5457H66.5479H66.55H66.5522H66.5544H66.5566H66.5588H66.561H66.5632H66.5654H66.5676H66.5698H66.572H66.5742H66.5764H66.5786H66.5808H66.583H66.5852H66.5874H66.5896H66.5918H66.594H66.5962H66.5984H66.6006H66.6028H66.605H66.6072H66.6094H66.6116H66.6138H66.616H66.6182H66.6204H66.6226H66.6248H66.627H66.6292H66.6313H66.6335H66.6357H66.6379H66.6401H66.6423H66.6445H66.6467H66.6489H66.6511H66.6533H66.6555H66.6577H66.6599H66.6621H66.6643H66.6665H66.6687H66.6709H66.6731H66.6753H66.6775H66.6797H66.6819H66.6841H66.6863H66.6885H66.6907H66.6929H66.6951H66.6973H66.6995H66.7017H66.7039H66.7061H66.7083H66.7104H66.7126H66.7148H66.717H66.7192H66.7214H66.7236H66.7258H66.728H66.7302H66.7324H66.7346H66.7368H66.739H66.7412H66.7434H66.7456H66.7478H66.75ZM74.7 30V30.3H75H84.375C85.0057 30.3 85.5546 30.0885 85.9465 29.6965C86.3385 29.3045 86.55 28.7557 86.55 28.125V9.375C86.55 7.79715 85.7695 5.83703 84.197 4.64783C82.9895 3.45042 81.3881 3.06839 79.4493 3.4542C76.642 3.86017 74.7 6.64683 74.7 9.75V30Z" fill="#263238" stroke="white" stroke-width="0.6"></path><path d="M63.45 45V45.3H63.75H65.625C66.1193 45.3 66.508 45.4635 66.7722 45.7278C67.0365 45.992 67.2 46.3807 67.2 46.875C67.2 47.3693 67.0365 47.7579 66.7722 48.0222C66.508 48.2865 66.1193 48.45 65.625 48.45H61.875C61.2443 48.45 60.6955 48.6615 60.3035 49.0535C59.9115 49.4454 59.7 49.9943 59.7 50.625C59.7 51.2557 59.9115 51.8045 60.3035 52.1965C60.6955 52.5885 61.2443 52.8 61.875 52.8C64.7093 52.8 67.2 55.2907 67.2 58.125C67.2 60.2527 65.7762 62.3833 63.6551 63.0904L63.45 63.1588V63.375V65.625C63.45 66.1193 63.2865 66.5079 63.0222 66.7722C62.758 67.0365 62.3693 67.2 61.875 67.2C61.3807 67.2 60.992 67.0365 60.7278 66.7722C60.4635 66.5079 60.3 66.1193 60.3 65.625V63.75V63.45H60H58.125C57.6307 63.45 57.242 63.2865 56.9778 63.0222C56.7135 62.7579 56.55 62.3693 56.55 61.875C56.55 61.3807 56.7135 60.992 56.9778 60.7277C57.242 60.4634 57.6307 60.3 58.125 60.3H61.875C62.5057 60.3 63.0545 60.0884 63.4465 59.6965C63.8385 59.3045 64.05 58.7557 64.05 58.125C64.05 57.4943 63.8385 56.9454 63.4465 56.5535C63.0545 56.1615 62.5057 55.95 61.875 55.95C59.0407 55.95 56.55 53.4593 56.55 50.625C56.55 48.4973 57.9738 46.3666 60.0949 45.6596L60.3 45.5912V45.375V43.125C60.3 42.6307 60.4635 42.242 60.7278 41.9778C60.992 41.7135 61.3807 41.55 61.875 41.55C62.3693 41.55 62.758 41.7135 63.0222 41.9778C63.2865 42.242 63.45 42.6307 63.45 43.125V45Z" fill="#263238" stroke="white" stroke-width="0.6"></path><path d="M29.7 11.25V11.55H30H31.875C32.3693 11.55 32.758 11.7135 33.0222 11.9778C33.2865 12.242 33.45 12.6307 33.45 13.125C33.45 13.6193 33.2865 14.0079 33.0222 14.2722C32.758 14.5365 32.3693 14.7 31.875 14.7H28.125C27.4943 14.7 26.9455 14.9115 26.5535 15.3035C26.1615 15.6954 25.95 16.2443 25.95 16.875C25.95 17.5057 26.1615 18.0545 26.5535 18.4465C26.9455 18.8385 27.4943 19.05 28.125 19.05C30.9593 19.05 33.45 21.5407 33.45 24.375C33.45 26.5027 32.0262 28.6333 29.9051 29.3404L29.7 29.4088V29.625V31.875C29.7 32.3693 29.5365 32.7579 29.2722 33.0222C29.008 33.2865 28.6193 33.45 28.125 33.45C27.6307 33.45 27.242 33.2865 26.9778 33.0222C26.7135 32.7579 26.55 32.3693 26.55 31.875V30V29.7H26.25H24.375C23.8807 29.7 23.492 29.5365 23.2278 29.2722C22.9635 29.0079 22.8 28.6193 22.8 28.125C22.8 27.6307 22.9635 27.242 23.2278 26.9777C23.492 26.7134 23.8807 26.55 24.375 26.55H28.125C28.7557 26.55 29.3045 26.3384 29.6965 25.9465C30.0885 25.5545 30.3 25.0057 30.3 24.375C30.3 23.7443 30.0885 23.1954 29.6965 22.8035C29.3045 22.4115 28.7557 22.2 28.125 22.2C25.2907 22.2 22.8 19.7093 22.8 16.875C22.8 14.3843 24.2124 12.6204 26.3449 11.9096L26.55 11.8412V11.625V9.375C26.55 8.88067 26.7135 8.49205 26.9778 8.22776C27.242 7.96347 27.6307 7.8 28.125 7.8C28.6193 7.8 29.008 7.96347 29.2722 8.22776C29.5365 8.49205 29.7 8.88067 29.7 9.375V11.25Z" fill="#263238" stroke="white" stroke-width="0.6"></path><path d="M54.375 16.45H39.375C38.8807 16.45 38.492 16.2865 38.2278 16.0222C37.9635 15.758 37.8 15.3693 37.8 14.875C37.8 14.3807 37.9635 13.992 38.2278 13.7278C38.492 13.4635 38.8807 13.3 39.375 13.3H54.375C54.8693 13.3 55.258 13.4635 55.5222 13.7278C55.7865 13.992 55.95 14.3807 55.95 14.875C55.95 15.3693 55.7865 15.758 55.5222 16.0222C55.258 16.2865 54.8693 16.45 54.375 16.45Z" fill="#263238" stroke="white" stroke-width="0.6"></path><path d="M54.375 23.95H39.375C38.8807 23.95 38.492 23.7865 38.2278 23.5222C37.9635 23.258 37.8 22.8693 37.8 22.375C37.8 21.8807 37.9635 21.492 38.2278 21.2278C38.492 20.9635 38.8807 20.8 39.375 20.8H54.375C54.8693 20.8 55.258 20.9635 55.5222 21.2278C55.7865 21.492 55.95 21.8807 55.95 22.375C55.95 22.8693 55.7865 23.258 55.5222 23.5222C55.258 23.7865 54.8693 23.95 54.375 23.95Z" fill="#263238" stroke="white" stroke-width="0.6"></path><path d="M65.625 31.45H39.375C38.8807 31.45 38.492 31.2865 38.2278 31.0222C37.9635 30.758 37.8 30.3693 37.8 29.875C37.8 29.3807 37.9635 28.992 38.2278 28.7278C38.492 28.4635 38.8807 28.3 39.375 28.3H65.625C66.1193 28.3 66.508 28.4635 66.7723 28.7278C67.0365 28.992 67.2 29.3807 67.2 29.875C67.2 30.3693 67.0365 30.758 66.7723 31.0222C66.508 31.2865 66.1193 31.45 65.625 31.45Z" fill="#263238" stroke="white" stroke-width="0.6"></path><path d="M50.625 47.7H24.375C23.8807 47.7 23.492 47.5365 23.2278 47.2722C22.9635 47.008 22.8 46.6193 22.8 46.125C22.8 45.6307 22.9635 45.242 23.2278 44.9778C23.492 44.7135 23.8807 44.55 24.375 44.55H50.625C51.1193 44.55 51.508 44.7135 51.7723 44.9778C52.0365 45.242 52.2 45.6307 52.2 46.125C52.2 46.6193 52.0365 47.008 51.7723 47.2722C51.508 47.5365 51.1193 47.7 50.625 47.7Z" fill="#263238" stroke="white" stroke-width="0.6"></path><path d="M50.625 55.2001H35.625C35.1307 55.2001 34.742 55.0366 34.4778 54.7723C34.2135 54.508 34.05 54.1194 34.05 53.6251C34.05 53.1307 34.2135 52.7421 34.4778 52.4778C34.742 52.2135 35.1307 52.0501 35.625 52.0501H50.625C51.1193 52.0501 51.508 52.2135 51.7722 52.4778C52.0365 52.7421 52.2 53.1307 52.2 53.6251C52.2 54.1194 52.0365 54.508 51.7722 54.7723C51.508 55.0366 51.1193 55.2001 50.625 55.2001Z" fill="#263238" stroke="white" stroke-width="0.6"></path><path d="M50.625 62.7H35.625C35.1307 62.7 34.742 62.5365 34.4778 62.2722C34.2135 62.008 34.05 61.6193 34.05 61.125C34.05 60.6307 34.2135 60.242 34.4778 59.9778C34.742 59.7135 35.1307 59.55 35.625 59.55H50.625C51.1193 59.55 51.508 59.7135 51.7722 59.9778C52.0365 60.242 52.2 60.6307 52.2 61.125C52.2 61.6193 52.0365 62.008 51.7722 62.2722C51.508 62.5365 51.1193 62.7 50.625 62.7Z" fill="#263238" stroke="white" stroke-width="0.6"></path></svg>