<svg xmlns="http://www.w3.org/2000/svg" width="24" height="24" viewBox="0 0 24 24" fill="none"><path fill-rule="evenodd" clip-rule="evenodd" d="M17.9255 20.6339C18.2428 20.3165 18.7572 20.3165 19.0745 20.6339L20.6995 22.2589C21.0168 22.5762 21.0168 23.0905 20.6995 23.4078C20.3822 23.7251 19.8678 23.7251 19.5505 23.4078L17.9255 21.7828C17.6082 21.4655 17.6082 20.9512 17.9255 20.6339Z" fill="url(#paint0_linear_149_3202)"></path><path fill-rule="evenodd" clip-rule="evenodd" d="M6.07452 20.6339C5.75722 20.3165 5.24277 20.3165 4.92547 20.6339L3.30047 22.2589C2.98318 22.5762 2.98318 23.0905 3.30047 23.4078C3.61777 23.7251 4.13222 23.7251 4.44952 23.4078L6.07452 21.7828C6.39182 21.4655 6.39182 20.9512 6.07452 20.6339Z" fill="url(#paint1_linear_149_3202)"></path><path fill-rule="evenodd" clip-rule="evenodd" d="M12 4.14587C7.06673 4.14587 3.0625 8.1501 3.0625 13.0834C3.0625 18.0167 7.06673 22.0209 12 22.0209C16.9333 22.0209 20.9375 18.0167 20.9375 13.0834C20.9375 8.1501 16.9333 4.14587 12 4.14587ZM1.4375 13.0834C1.4375 7.25265 6.16927 2.52087 12 2.52087C17.8307 2.52087 22.5625 7.25265 22.5625 13.0834C22.5625 18.9141 17.8307 23.6459 12 23.6459C6.16927 23.6459 1.4375 18.9141 1.4375 13.0834Z" fill="url(#paint2_linear_149_3202)"></path><path fill-rule="evenodd" clip-rule="evenodd" d="M11.6392 7.89307C12.0879 7.89307 12.4517 8.25684 12.4517 8.70557V12.7031C12.4517 12.8353 12.5032 13.0385 12.6252 13.2524C12.7473 13.4664 12.8958 13.6141 13.0088 13.6811L13.011 13.6823L16.0335 15.4861C16.4188 15.7161 16.5448 16.2148 16.3148 16.6002C16.0849 16.9855 15.5861 17.1115 15.2007 16.8815L12.1804 15.0791L12.1793 15.0784C11.7663 14.8334 11.4376 14.45 11.2136 14.0574C10.9896 13.6644 10.8267 13.1851 10.8267 12.7031V8.70557C10.8267 8.25684 11.1904 7.89307 11.6392 7.89307Z" fill="url(#paint3_linear_149_3202)"></path><path fill-rule="evenodd" clip-rule="evenodd" d="M17.8912 0.62878C18.1882 0.292503 18.7017 0.260761 19.038 0.557876L23.0971 4.1444C23.4335 4.44152 23.4652 4.95499 23.1681 5.29127C22.8709 5.62754 22.3575 5.65928 22.0213 5.36217L17.962 1.77564C17.6257 1.47853 17.594 0.965058 17.8912 0.62878Z" fill="url(#paint4_linear_149_3202)"></path><path fill-rule="evenodd" clip-rule="evenodd" d="M6.10901 0.62878C5.81189 0.292503 5.29842 0.260761 4.96215 0.557876L0.90295 4.1444C0.566673 4.44152 0.534931 4.95499 0.832046 5.29127C1.12916 5.62754 1.64263 5.65928 1.97891 5.36217L6.03811 1.77564C6.37439 1.47853 6.40613 0.965058 6.10901 0.62878Z" fill="url(#paint5_linear_149_3202)"></path><defs><linearGradient id="paint0_linear_149_3202" x1="20.9374" y1="22.0208" x2="17.6875" y2="22.0208" gradientUnits="userSpaceOnUse"><stop stop-color="#6083FF"></stop><stop offset="1" stop-color="#5F5DFF"></stop></linearGradient><linearGradient id="paint1_linear_149_3202" x1="6.31249" y1="22.0208" x2="3.0625" y2="22.0208" gradientUnits="userSpaceOnUse"><stop stop-color="#6083FF"></stop><stop offset="1" stop-color="#5F5DFF"></stop></linearGradient><linearGradient id="paint2_linear_149_3202" x1="22.5625" y1="13.0834" x2="1.4375" y2="13.0834" gradientUnits="userSpaceOnUse"><stop stop-color="#6083FF"></stop><stop offset="1" stop-color="#5F5DFF"></stop></linearGradient><linearGradient id="paint3_linear_149_3202" x1="16.4298" y1="12.4448" x2="10.8267" y2="12.4448" gradientUnits="userSpaceOnUse"><stop stop-color="#6083FF"></stop><stop offset="1" stop-color="#5F5DFF"></stop></linearGradient><linearGradient id="paint4_linear_149_3202" x1="23.3717" y1="2.96002" x2="17.6875" y2="2.96002" gradientUnits="userSpaceOnUse"><stop stop-color="#6083FF"></stop><stop offset="1" stop-color="#5F5DFF"></stop></linearGradient><linearGradient id="paint5_linear_149_3202" x1="6.31264" y1="2.96002" x2="0.628418" y2="2.96002" gradientUnits="userSpaceOnUse"><stop stop-color="#6083FF"></stop><stop offset="1" stop-color="#5F5DFF"></stop></linearGradient></defs></svg>