<svg xmlns="http://www.w3.org/2000/svg" width="25" height="25" viewBox="0 0 25 25" fill="none"><path d="M23.6619 9.25734L13.8777 1.47405C13.5099 1.10618 13.0205 0.902832 12.4999 0.902832C11.9793 0.902832 11.4899 1.10533 11.1221 1.47405L1.25439 9.34002V24.0981H23.7454V9.34171L23.6619 9.25734ZM2.69552 9.17128L11.7582 2.1094C12.1548 1.71283 12.8458 1.71283 13.2424 2.1094L22.7312 9.59906L16.2647 16.0656L13.8777 13.6786C13.5099 13.3107 13.0205 13.1074 12.4999 13.1074C11.9793 13.1074 11.4899 13.3107 11.1221 13.6786L8.69965 16.1002L2.23314 9.63365L2.69552 9.17128ZM8.06346 16.7355L7.9968 16.803L7.99596 16.8022L2.15468 22.6434V10.8267L8.06346 16.7355ZM2.87186 23.1978L3.35533 22.7143H3.35702L11.7582 14.3139C12.1548 13.9174 12.8458 13.9174 13.2424 14.3139L22.1279 23.1978H2.87186ZM22.846 11.1372V22.6443L16.9009 16.7017L22.846 10.7567V11.1372Z" fill="url(#paint0_linear_149_3217)" stroke="url(#paint1_linear_149_3217)" stroke-width="0.7"></path><defs><linearGradient id="paint0_linear_149_3217" x1="23.7454" y1="11.5004" x2="1.25439" y2="11.5004" gradientUnits="userSpaceOnUse"><stop stop-color="#6083FF"></stop><stop offset="1" stop-color="#5F5DFF"></stop></linearGradient><linearGradient id="paint1_linear_149_3217" x1="23.7454" y1="11.5004" x2="1.25439" y2="11.5004" gradientUnits="userSpaceOnUse"><stop stop-color="#6083FF"></stop><stop offset="1" stop-color="#5F5DFF"></stop></linearGradient></defs></svg>