<svg xmlns="http://www.w3.org/2000/svg" width="97" height="82" viewBox="0 0 97 82" fill="none"><path d="M36.775 65V64.6H36.375H6.0625C3.05008 64.6 0.4 61.9499 0.4 58.9375V6.39584C0.4 3.38342 3.05008 0.733344 6.0625 0.733344H90.9375C93.9499 0.733344 96.6 3.38342 96.6 6.39584V58.9375C96.6 61.9499 93.9499 64.6 90.9375 64.6H60.625H60.225V65V77.125V77.525H60.625H66.6875C67.2029 77.525 67.6012 77.6951 67.8698 77.9636C68.1383 78.2321 68.3083 78.6305 68.3083 79.1459C68.3083 79.6612 68.1383 80.0596 67.8698 80.3281C67.6012 80.5967 67.2029 80.7667 66.6875 80.7667H30.3125C29.7971 80.7667 29.3988 80.5967 29.1302 80.3281C28.8617 80.0596 28.6917 79.6612 28.6917 79.1459C28.6917 78.6305 28.8617 78.2321 29.1302 77.9636C29.3988 77.6951 29.7971 77.525 30.3125 77.525H36.375H36.775V77.125V65ZM56.5833 77.525H56.9833V77.125V65V64.6H56.5833H40.4167H40.0167V65V77.125V77.525H40.4167H56.5833ZM4.04167 52.475H3.64167V52.875V58.9375C3.64167 59.6347 3.8758 60.2467 4.31455 60.6855C4.75331 61.1242 5.36535 61.3584 6.0625 61.3584H90.9375C91.6346 61.3584 92.2467 61.1242 92.6854 60.6855C93.1242 60.2467 93.3583 59.6347 93.3583 58.9375V52.875V52.475H92.9583H4.04167ZM40.4167 49.2334H40.8167V48.8334C40.8167 44.6084 44.2751 41.15 48.5 41.15C48.9116 41.15 49.2854 41.1508 49.6054 41.1965C49.9306 41.243 50.1282 41.3272 50.238 41.437L50.5727 41.7718L50.8469 41.3859L61.7594 26.0275L62.0299 25.6469L61.6122 25.4381C57.5275 23.3957 53.4247 22.1625 48.5 22.1625C33.3301 22.1625 21.0388 34.0506 19.8097 48.8001L19.7736 49.2334H20.2083H40.4167ZM44.0583 48.8334V49.2334H44.4583H52.5417H52.9417V48.8334C52.9417 47.53 52.5055 46.4127 51.7131 45.6203C50.9206 44.8279 49.8034 44.3917 48.5 44.3917C47.1966 44.3917 46.0793 44.8279 45.2869 45.6203C44.4945 46.4127 44.0583 47.53 44.0583 48.8334ZM53.8282 42.9491L53.6119 43.2652L53.9183 43.495C55.4018 44.6076 56.1672 46.4723 55.7846 48.7676L55.707 49.2334H56.1792H76.3875H76.807L76.787 48.8143C76.3767 40.1971 71.8634 32.4071 64.8973 27.4899L64.5657 27.2558L64.3365 27.5908L53.8282 42.9491ZM80.4343 48.8619L80.4609 49.2334H80.8333H84.875H85.3013L85.2742 48.8079C84.0486 29.6074 68.1169 14.0792 48.5 14.0792C28.8831 14.0792 12.9514 29.6074 11.7258 48.8079L11.6987 49.2334H12.125H16.1667H16.5391L16.5656 48.8619C17.7636 32.0899 31.3369 18.9208 48.5 18.9208C65.663 18.9208 79.2363 32.0899 80.4343 48.8619ZM92.9583 49.2334H93.3583V48.8334V6.39584C93.3583 5.6987 93.1242 5.08666 92.6854 4.6479C92.2467 4.20914 91.6346 3.97501 90.9375 3.97501H6.0625C5.36535 3.97501 4.75331 4.20914 4.31455 4.6479C3.8758 5.08666 3.64167 5.6987 3.64167 6.39584V48.8334V49.2334H4.04167H8.08333H8.46133L8.48269 48.856C9.68334 27.6444 27.2938 10.8375 48.5 10.8375C70.1079 10.8375 87.3165 27.6419 88.5173 48.856L88.5387 49.2334H88.9167H92.9583Z" fill="#263238" stroke="white" stroke-width="0.8"></path><path d="M22.2289 12.0583H10.1038C9.58849 12.0583 9.19011 11.8883 8.92158 11.6197C8.65305 11.3512 8.48301 10.9528 8.48301 10.4375C8.48301 9.92212 8.65305 9.52375 8.92158 9.25521C9.19011 8.98668 9.58849 8.81664 10.1038 8.81664H22.2289C22.7442 8.81664 23.1426 8.98668 23.4111 9.25521C23.6796 9.52375 23.8497 9.92212 23.8497 10.4375C23.8497 10.9528 23.6796 11.3512 23.4111 11.6197C23.1426 11.8883 22.7442 12.0583 22.2289 12.0583Z" fill="#263238" stroke="white" stroke-width="0.8"></path><path d="M14.1455 20.1417H10.1038C9.58849 20.1417 9.19011 19.9717 8.92158 19.7031C8.65305 19.4346 8.48301 19.0362 8.48301 18.5209C8.48301 18.0055 8.65305 17.6071 8.92158 17.3386C9.19011 17.0701 9.58849 16.9 10.1038 16.9H14.1455C14.6609 16.9 15.0592 17.0701 15.3278 17.3386C15.5963 17.6071 15.7663 18.0055 15.7663 18.5209C15.7663 19.0362 15.5963 19.4346 15.3278 19.7031C15.0592 19.9717 14.6609 20.1417 14.1455 20.1417Z" fill="#263238" stroke="white" stroke-width="0.8"></path><path d="M86.8958 12.0583H74.7708C74.2555 12.0583 73.8571 11.8883 73.5886 11.6197C73.32 11.3512 73.15 10.9528 73.15 10.4375C73.15 9.92212 73.32 9.52375 73.5886 9.25521C73.8571 8.98668 74.2555 8.81664 74.7708 8.81664H86.8958C87.4112 8.81664 87.8096 8.98668 88.0781 9.25521C88.3466 9.52375 88.5167 9.92212 88.5167 10.4375C88.5167 10.9528 88.3466 11.3512 88.0781 11.6197C87.8096 11.8883 87.4112 12.0583 86.8958 12.0583Z" fill="#263238" stroke="white" stroke-width="0.8"></path><path d="M86.8955 20.1417H82.8538C82.3385 20.1417 81.9401 19.9717 81.6716 19.7031C81.403 19.4346 81.233 19.0362 81.233 18.5209C81.233 18.0055 81.403 17.6071 81.6716 17.3386C81.9401 17.0701 82.3385 16.9 82.8538 16.9H86.8955C87.4109 16.9 87.8092 17.0701 88.0778 17.3386C88.3463 17.6071 88.5163 18.0055 88.5163 18.5209C88.5163 19.0362 88.3463 19.4346 88.0778 19.7031C87.8092 19.9717 87.4109 20.1417 86.8955 20.1417Z" fill="#263238" stroke="white" stroke-width="0.8"></path></svg>