<svg xmlns="http://www.w3.org/2000/svg" width="27" height="24" viewBox="0 0 27 24" fill="none"><path d="M4.39272 1.77143H4.34272V1.82143V21.8571V21.9071H4.39272H15.3213H15.3713V21.8571V1.82143V1.77143H15.3213H4.39272ZM3.482 0.05H16.232C16.4603 0.05 16.6792 0.140682 16.8406 0.302097C17.002 0.463513 17.0927 0.682439 17.0927 0.910714V22.7679C17.0927 22.9961 17.002 23.2151 16.8406 23.3765C16.6792 23.5379 16.4603 23.6286 16.232 23.6286H3.482C3.25373 23.6286 3.0348 23.5379 2.87339 23.3765C2.71197 23.2151 2.62129 22.9961 2.62129 22.7679V0.910714C2.62129 0.682439 2.71197 0.463513 2.87339 0.302097C3.0348 0.140682 3.25373 0.05 3.482 0.05Z" fill="url(#paint0_linear_149_3177)" stroke="white" stroke-width="0.1"></path><path d="M6.26429 5.51423H13.45V7.23566H6.26429V5.51423ZM6.26429 10.9785H13.45V12.6999H6.26429V10.9785ZM6.26429 16.4428H13.45V18.1642H6.26429V16.4428ZM17.1929 12.7999H20.7357V14.5214H17.1929V12.7999ZM17.1929 16.4428H20.7357V18.1642H17.1929V16.4428ZM26.2 21.9071V23.6285H0.8V21.9071H26.2Z" fill="url(#paint1_linear_149_3177)" stroke="white" stroke-width="0.1"></path><path d="M17.1427 9.0572H17.0927V9.1072V21.8572V21.9072H17.1427H22.607H22.657V21.8572V9.1072V9.0572H22.607H17.1427ZM16.232 7.33577H23.5177C23.746 7.33577 23.9649 7.42645 24.1263 7.58786C24.2878 7.74928 24.3784 7.96821 24.3784 8.19648V22.7679C24.3784 22.9962 24.2878 23.2151 24.1263 23.3765C23.9649 23.5379 23.746 23.6286 23.5177 23.6286H16.232C16.0037 23.6286 15.7848 23.5379 15.6234 23.3765C15.462 23.2151 15.3713 22.9962 15.3713 22.7679V8.19648C15.3713 7.96821 15.462 7.74928 15.6234 7.58786C15.7848 7.42645 16.0037 7.33577 16.232 7.33577Z" fill="url(#paint2_linear_149_3177)" stroke="white" stroke-width="0.1"></path><defs><linearGradient id="paint0_linear_149_3177" x1="17.1427" y1="11.8393" x2="2.57129" y2="11.8393" gradientUnits="userSpaceOnUse"><stop stop-color="#6083FF"></stop><stop offset="1" stop-color="#5F5DFF"></stop></linearGradient><linearGradient id="paint1_linear_149_3177" x1="26.25" y1="14.5714" x2="0.75" y2="14.5714" gradientUnits="userSpaceOnUse"><stop stop-color="#6083FF"></stop><stop offset="1" stop-color="#5F5DFF"></stop></linearGradient><linearGradient id="paint2_linear_149_3177" x1="24.4284" y1="15.4822" x2="15.3213" y2="15.4822" gradientUnits="userSpaceOnUse"><stop stop-color="#6083FF"></stop><stop offset="1" stop-color="#5F5DFF"></stop></linearGradient></defs></svg>