<svg xmlns="http://www.w3.org/2000/svg" width="19" height="16" viewBox="0 0 19 16" fill="none"><path d="M2.86364 5.80227H2.93864V5.72727V2.93864H4.69773V5.72727V5.80227H4.77273H7.56136V7.56136H4.77273H4.69773V7.63636V10.425H2.93864V7.63636V7.56136H2.86364H0.075V5.80227H2.86364ZM17.1864 13.5341H17.2614V13.4591V12.4091C17.2614 12.3134 17.2229 12.2109 17.1592 12.108C17.0948 12.0043 17.0014 11.8948 16.8828 11.7835C16.6456 11.5608 16.3021 11.3254 15.8716 11.1106C15.0103 10.6808 13.7931 10.3295 12.3636 10.3295C10.9199 10.3295 9.70274 10.6808 8.84481 11.1107C8.41606 11.3255 8.07514 11.5609 7.84016 11.7837C7.72271 11.8951 7.63027 12.0047 7.56673 12.1084C7.5037 12.2113 7.46591 12.3136 7.46591 12.4091V13.4591V13.5341H7.54091H17.1864ZM9.71681 1.17135C10.4188 0.46937 11.3709 0.075 12.3636 0.075C13.3564 0.075 14.3085 0.46937 15.0105 1.17135C15.7124 1.87334 16.1068 2.82543 16.1068 3.81818C16.1068 4.81094 15.7124 5.76303 15.0105 6.46501C14.3085 7.16699 13.3564 7.56136 12.3636 7.56136C11.3709 7.56136 10.4188 7.16699 9.71681 6.46501C9.01482 5.76303 8.62045 4.81094 8.62045 3.81818C8.62045 2.82543 9.01482 1.87334 9.71681 1.17135ZM13.1594 1.89693C12.9071 1.79243 12.6367 1.73864 12.3636 1.73864C11.8121 1.73864 11.2832 1.95773 10.8932 2.34772C10.5032 2.73771 10.2841 3.26665 10.2841 3.81818C10.2841 4.09127 10.3379 4.36169 10.4424 4.61399C10.5469 4.86629 10.7001 5.09554 10.8932 5.28864C11.0863 5.48175 11.3155 5.63492 11.5678 5.73943C11.8201 5.84394 12.0905 5.89773 12.3636 5.89773C12.6367 5.89773 12.9071 5.84394 13.1594 5.73943C13.4117 5.63492 13.641 5.48175 13.8341 5.28864C14.0272 5.09554 14.1804 4.86629 14.2849 4.61399C14.3894 4.36169 14.4432 4.09127 14.4432 3.81818C14.4432 3.54509 14.3894 3.27468 14.2849 3.02237C14.1804 2.77007 14.0272 2.54082 13.8341 2.34772C13.641 2.15462 13.4117 2.00144 13.1594 1.89693ZM5.80227 12.4091C5.80227 11.1803 6.78818 10.2448 8.12186 9.61202C9.45138 8.98127 11.0993 8.66591 12.3636 8.66591C13.6279 8.66591 15.2759 8.98127 16.6054 9.61202C17.9391 10.2448 18.925 11.1803 18.925 12.4091V15.1977H5.80227V12.4091Z" fill="#777777" stroke="#EDF4F4" stroke-width="0.15"></path></svg>