<svg xmlns="http://www.w3.org/2000/svg" width="87" height="87" viewBox="0 0 87 87" fill="none"><path d="M78.7416 66.7623H8.13906C7.54434 66.7623 7.06006 66.278 7.06006 65.6833V18.7509C7.06006 18.1562 7.54434 17.6719 8.13906 17.6719H78.7416C79.3363 17.6719 79.8206 18.1562 79.8206 18.7509V65.6833C79.8206 66.2865 79.3363 66.7623 78.7416 66.7623ZM9.21807 64.6128H77.6626V19.8384H9.21807V64.6128Z" fill="url(#paint0_linear_150_3290)"></path><path d="M15.9897 24.0185H70.8915V60.4157H15.9897V24.0185Z" fill="#AFBDFF"></path><path d="M81.7325 68.3171H5.14863C4.01865 68.3171 3.10107 67.3995 3.10107 66.2695V63.9756C3.10107 62.8456 4.01865 61.928 5.14863 61.928H81.7325C82.8625 61.928 83.7801 62.8456 83.7801 63.9756V66.2695C83.7886 67.391 82.871 68.3171 81.7325 68.3171Z" fill="#FCFCFC"></path><path d="M81.7833 69.3876H5.09756C3.39834 69.3876 2.02197 68.0027 2.02197 66.312V63.9161C2.02197 62.2169 3.40684 60.8405 5.09756 60.8405H81.7833C83.4825 60.8405 84.8589 62.2254 84.8589 63.9161V66.312C84.8674 68.0112 83.4825 69.3876 81.7833 69.3876ZM5.09756 62.9985C4.58779 62.9985 4.17148 63.4148 4.17148 63.9246V66.3205C4.17148 66.8303 4.58779 67.2466 5.09756 67.2466H81.7833C82.2931 67.2466 82.7094 66.8303 82.7094 66.3205V63.9246C82.7094 63.4148 82.2931 62.9985 81.7833 62.9985H5.09756Z" fill="url(#paint1_linear_150_3290)"></path><defs><linearGradient id="paint0_linear_150_3290" x1="79.8206" y1="42.2171" x2="7.06006" y2="42.2171" gradientUnits="userSpaceOnUse"><stop stop-color="#6083FF"></stop><stop offset="1" stop-color="#5F5DFF"></stop></linearGradient><linearGradient id="paint1_linear_150_3290" x1="84.859" y1="65.1141" x2="2.02197" y2="65.1141" gradientUnits="userSpaceOnUse"><stop stop-color="#6083FF"></stop><stop offset="1" stop-color="#5F5DFF"></stop></linearGradient></defs></svg>