<svg xmlns="http://www.w3.org/2000/svg" width="55" height="55" viewBox="0 0 55 55" fill="none"><path d="M27.5 32.6562C30.3477 32.6562 32.6562 30.3477 32.6562 27.5C32.6562 24.6523 30.3477 22.3438 27.5 22.3438C24.6523 22.3438 22.3438 24.6523 22.3438 27.5C22.3438 30.3477 24.6523 32.6562 27.5 32.6562Z" stroke="url(#paint0_linear_85_51)" stroke-width="2" stroke-linecap="round" stroke-linejoin="round"></path><path d="M20.625 17.1875C23.4727 17.1875 25.7812 14.879 25.7812 12.0312C25.7812 9.18353 23.4727 6.875 20.625 6.875C17.7773 6.875 15.4688 9.18353 15.4688 12.0312C15.4688 14.879 17.7773 17.1875 20.625 17.1875Z" stroke="url(#paint1_linear_85_51)" stroke-width="2" stroke-linecap="round" stroke-linejoin="round"></path><path d="M42.9688 27.5C45.8165 27.5 48.125 25.1915 48.125 22.3438C48.125 19.496 45.8165 17.1875 42.9688 17.1875C40.121 17.1875 37.8125 19.496 37.8125 22.3438C37.8125 25.1915 40.121 27.5 42.9688 27.5Z" stroke="url(#paint2_linear_85_51)" stroke-width="2" stroke-linecap="round" stroke-linejoin="round"></path><path d="M42.9688 44.6875C45.8165 44.6875 48.125 42.379 48.125 39.5312C48.125 36.6835 45.8165 34.375 42.9688 34.375C40.121 34.375 37.8125 36.6835 37.8125 39.5312C37.8125 42.379 40.121 44.6875 42.9688 44.6875Z" stroke="url(#paint3_linear_85_51)" stroke-width="2" stroke-linecap="round" stroke-linejoin="round"></path><path d="M12.0312 46.4062C14.879 46.4062 17.1875 44.0977 17.1875 41.25C17.1875 38.4023 14.879 36.0938 12.0312 36.0938C9.18353 36.0938 6.875 38.4023 6.875 41.25C6.875 44.0977 9.18353 46.4062 12.0312 46.4062Z" stroke="url(#paint4_linear_85_51)" stroke-width="2" stroke-linecap="round" stroke-linejoin="round"></path><path d="M25.416 22.7949L22.709 16.7363" stroke="url(#paint5_linear_85_51)" stroke-width="2" stroke-linecap="round" stroke-linejoin="round"></path><path d="M38.0703 23.9766L32.3984 25.8672" stroke="url(#paint6_linear_85_51)" stroke-width="2" stroke-linecap="round" stroke-linejoin="round"></path><path d="M38.9082 36.373L31.5605 30.6582" stroke="url(#paint7_linear_85_51)" stroke-width="2" stroke-linecap="round" stroke-linejoin="round"></path><path d="M23.6543 30.916L15.877 37.834" stroke="url(#paint8_linear_85_51)" stroke-width="2" stroke-linecap="round" stroke-linejoin="round"></path><defs><linearGradient id="paint0_linear_85_51" x1="32.6562" y1="27.5" x2="22.3437" y2="27.5" gradientUnits="userSpaceOnUse"><stop stop-color="#6083FF"></stop><stop offset="1" stop-color="#5F5DFF"></stop></linearGradient><linearGradient id="paint1_linear_85_51" x1="25.7812" y1="12.0312" x2="15.4687" y2="12.0312" gradientUnits="userSpaceOnUse"><stop stop-color="#6083FF"></stop><stop offset="1" stop-color="#5F5DFF"></stop></linearGradient><linearGradient id="paint2_linear_85_51" x1="48.125" y1="22.3437" x2="37.8125" y2="22.3437" gradientUnits="userSpaceOnUse"><stop stop-color="#6083FF"></stop><stop offset="1" stop-color="#5F5DFF"></stop></linearGradient><linearGradient id="paint3_linear_85_51" x1="48.125" y1="39.5312" x2="37.8125" y2="39.5312" gradientUnits="userSpaceOnUse"><stop stop-color="#6083FF"></stop><stop offset="1" stop-color="#5F5DFF"></stop></linearGradient><linearGradient id="paint4_linear_85_51" x1="17.1875" y1="41.25" x2="6.875" y2="41.25" gradientUnits="userSpaceOnUse"><stop stop-color="#6083FF"></stop><stop offset="1" stop-color="#5F5DFF"></stop></linearGradient><linearGradient id="paint5_linear_85_51" x1="25.416" y1="19.7656" x2="22.709" y2="19.7656" gradientUnits="userSpaceOnUse"><stop stop-color="#6083FF"></stop><stop offset="1" stop-color="#5F5DFF"></stop></linearGradient><linearGradient id="paint6_linear_85_51" x1="38.0703" y1="24.9219" x2="32.3984" y2="24.9219" gradientUnits="userSpaceOnUse"><stop stop-color="#6083FF"></stop><stop offset="1" stop-color="#5F5DFF"></stop></linearGradient><linearGradient id="paint7_linear_85_51" x1="38.9082" y1="33.5156" x2="31.5605" y2="33.5156" gradientUnits="userSpaceOnUse"><stop stop-color="#6083FF"></stop><stop offset="1" stop-color="#5F5DFF"></stop></linearGradient><linearGradient id="paint8_linear_85_51" x1="23.6543" y1="34.375" x2="15.877" y2="34.375" gradientUnits="userSpaceOnUse"><stop stop-color="#6083FF"></stop><stop offset="1" stop-color="#5F5DFF"></stop></linearGradient></defs></svg>