<svg xmlns="http://www.w3.org/2000/svg" width="42" height="40" viewBox="0 0 42 40" fill="none"><line x1="34.1804" y1="2.13965" x2="34.1804" y2="33.2098" stroke="url(#paint0_linear_85_88)" stroke-width="1.6"></line><path d="M8.29941 12.4856L2.67775 10.8799L0.76001 10.847V24.3404H2.56474L8.30025 22.7018L12.5675 24.4584V35.2296L21.1881 39.0609L24.3742 35.8739V29.3194L36.8564 34.4604H41.24V0.727051H36.8564L8.29941 12.4856ZM2.44668 22.62V12.5675L7.50668 14.0129V21.1737L2.44668 22.62ZM22.6867 35.1765L20.8128 37.0495L14.2533 34.1341V25.1534L22.6867 28.6262V35.1765ZM39.5533 2.41372V32.7737H37.1903L9.19334 21.2453V13.9421L37.1903 2.41372H39.5533Z" fill="url(#paint1_linear_85_88)" stroke="url(#paint2_linear_85_88)" stroke-width="0.3"></path><defs><linearGradient id="paint0_linear_85_88" x1="32.8804" y1="33.2098" x2="32.8804" y2="2.13965" gradientUnits="userSpaceOnUse"><stop stop-color="#6083FF"></stop><stop offset="1" stop-color="#5F5DFF"></stop></linearGradient><linearGradient id="paint1_linear_85_88" x1="41.24" y1="19.894" x2="0.76001" y2="19.894" gradientUnits="userSpaceOnUse"><stop stop-color="#6083FF"></stop><stop offset="1" stop-color="#5F5DFF"></stop></linearGradient><linearGradient id="paint2_linear_85_88" x1="41.24" y1="19.894" x2="0.76001" y2="19.894" gradientUnits="userSpaceOnUse"><stop stop-color="#6083FF"></stop><stop offset="1" stop-color="#5F5DFF"></stop></linearGradient></defs></svg>