<svg xmlns="http://www.w3.org/2000/svg" width="91" height="90" viewBox="0 0 91 90" fill="none"><path d="M82.6114 49.7785L82.6229 49.7739L82.6341 49.7683C83.316 49.4274 84.1909 49.3331 85.0951 49.4235C85.9861 49.5126 86.878 49.7785 87.5915 50.1312C88.9816 51.1863 89.7052 52.9503 90.0749 54.7798V60.375C90.0749 62.1276 89.0213 63.9096 87.227 64.9889L42.2408 88.9817C42.2396 88.9823 42.2383 88.9829 42.2371 88.9835C41.5042 89.3494 40.4309 89.7 39.75 89.7C38.6889 89.7 37.6146 89.3454 36.8927 88.9859L18.9011 78.4909L18.5382 78.2792L18.4558 78.6912C18.0916 80.5121 17.0045 82.2873 15.6158 82.9817L11.1158 85.2317L10.9978 85.2907L10.9615 85.4176C10.2435 87.9307 8.09927 89.7 5.625 89.7H1.875C1.38067 89.7 0.992048 89.5365 0.727757 89.2722C0.463466 89.0079 0.3 88.6193 0.3 88.125V46.875C0.3 46.3807 0.463466 45.992 0.727757 45.7278C0.992048 45.4635 1.38067 45.3 1.875 45.3H5.625C8.09927 45.3 10.2435 47.0693 10.9615 49.5824L10.9978 49.7093L11.1158 49.7683L15.6158 52.0183L15.627 52.0239L15.6386 52.0285C17.3795 52.7249 18.45 54.4744 18.45 56.625V57.75V58.1281L18.8182 58.0422L30.0681 55.4172L30.3 55.3631V55.125V35.625C30.3 32.7907 32.7907 30.3 35.625 30.3H45H45.3V30V16.875C45.3 14.0407 47.7907 11.55 50.625 11.55H60H60.3V11.25V5.625C60.3 2.79069 62.7906 0.3 65.625 0.3H73.1249C75.9468 0.3 78.4499 2.77798 78.4499 6V51V51.4431L78.8614 51.2785L82.6114 49.7785ZM3.45 86.25V86.55H3.75H5.625C6.25567 86.55 6.80454 86.3385 7.1965 85.9465C7.58846 85.5546 7.79999 85.0057 7.79999 84.375V50.625C7.79999 49.9943 7.58846 49.4455 7.1965 49.0535C6.80454 48.6615 6.25567 48.45 5.625 48.45H3.75H3.45V48.75V86.25ZM10.95 81.375V81.892L11.3988 81.6355L13.959 80.1725C14.4085 80.1455 14.7483 79.9028 14.9684 79.5727C15.196 79.2312 15.3 78.7945 15.3 78.375V56.625C15.3 56.1941 15.1901 55.8433 14.953 55.547C14.726 55.2632 14.4006 55.053 14.0166 54.8604L11.3988 53.3645L10.95 53.108V53.625V81.375ZM75.1032 52.4067L75.2999 52.3345V52.125V5.625C75.2999 4.99433 75.0884 4.44545 74.6965 4.05349C74.3045 3.66153 73.7556 3.45 73.1249 3.45H65.625C64.9943 3.45 64.4454 3.66153 64.0534 4.05349C63.6615 4.44545 63.45 4.99433 63.45 5.625V56.25V56.6795L63.8532 56.5317L75.1032 52.4067ZM48.45 16.875V17.175H48.75H48.825V51.375V51.6209L49.0661 51.6692C50.8335 52.0227 52.6201 53.4436 53.3377 55.587L54.4605 59.7039L54.5458 60.0165L54.8509 59.9075L60.1009 58.0325L60.3 57.9614V57.75V15V14.7H60H50.625C49.9943 14.7 49.4454 14.9115 49.0535 15.3035C48.6615 15.6955 48.45 16.2443 48.45 16.875ZM45.3 33.75V33.45H45H35.625C34.9943 33.45 34.4454 33.6615 34.0535 34.0535C33.6615 34.4455 33.45 34.9943 33.45 35.625V54.375V54.7531L33.8181 54.6672L45.0681 52.0422L45.3 51.9881V51.75V33.75ZM86.5321 60.3H86.6249H86.9249V60V55.125C86.9249 54.2506 86.473 53.7987 86.0967 53.4225L86.0871 53.4129L86.0527 53.3784L86.0091 53.3567C85.8816 53.2929 85.7686 53.2309 85.6571 53.1698C85.6092 53.1435 85.5616 53.1174 85.5133 53.0913C85.3587 53.0081 85.199 52.9272 85.0323 52.8716C84.6774 52.7533 84.3181 52.7596 83.8812 52.974L55.3963 63.4685L55.2 63.5408V63.75C55.2 64.4105 54.8702 65.0884 54.4901 65.849C53.7608 66.9377 52.6942 67.9852 51.3042 68.3334C51.3036 68.3336 51.3029 68.3338 51.3022 68.334L40.0904 70.95H39.75C39.4736 70.95 39.1656 70.8093 38.8671 70.5535C38.59 70.3159 38.346 69.9997 38.1755 69.6784C38.1833 69.1806 38.2732 68.7977 38.4575 68.5027C38.6452 68.2025 38.9521 67.9596 39.457 67.7889L50.6631 65.1742C50.9328 65.1624 51.1719 65.0273 51.3675 64.8806C51.5721 64.7271 51.7722 64.527 51.9536 64.3457L51.9621 64.3371L52.05 64.2493V64.125V64.1228V64.1206V64.1184V64.1161V64.1139V64.1117V64.1094V64.1071V64.1049V64.1026V64.1003V64.098V64.0957V64.0934V64.0911V64.0888V64.0864V64.0841V64.0817V64.0794V64.077V64.0746V64.0723V64.0699V64.0675V64.0651V64.0627V64.0602V64.0578V64.0554V64.0529V64.0505V64.048V64.0456V64.0431V64.0406V64.0381V64.0356V64.0331V64.0306V64.0281V64.0256V64.023V64.0205V64.0179V64.0154V64.0128V64.0103V64.0077V64.0051V64.0025V63.9999V63.9973V63.9947V63.9921V63.9895V63.9868V63.9842V63.9816V63.9789V63.9763V63.9736V63.9709V63.9683V63.9656V63.9629V63.9602V63.9575V63.9548V63.9521V63.9494V63.9466V63.9439V63.9412V63.9384V63.9357V63.9329V63.9302V63.9274V63.9246V63.9218V63.919V63.9163V63.9135V63.9107V63.9078V63.905V63.9022V63.8994V63.8966V63.8937V63.8909V63.888V63.8852V63.8823V63.8795V63.8766V63.8737V63.8708V63.8679V63.8651V63.8622V63.8593V63.8564V63.8534V63.8505V63.8476V63.8447V63.8417V63.8388V63.8359V63.8329V63.83V63.827V63.8241V63.8211V63.8181V63.8151V63.8122V63.8092V63.8062V63.8032V63.8002V63.7972V63.7942V63.7912V63.7882V63.7852V63.7821V63.7791V63.7761V63.773V63.77V63.767V63.7639V63.7609V63.7578V63.7547V63.7517V63.7486V63.7455V63.7425V63.7394V63.7363V63.7332V63.7301V63.727V63.7239V63.7208V63.7177V63.7146V63.7115V63.7084V63.7053V63.7021V63.699V63.6959V63.6927V63.6896V63.6865V63.6833V63.6802V63.677V63.6739V63.6707V63.6676V63.6644V63.6612V63.6581V63.6549V63.6517V63.6485V63.6454V63.6422V63.639V63.6358V63.6326V63.6294V63.6262V63.623V63.6198V63.6166V63.6134V63.6102V63.607V63.6038V63.6006V63.5974V63.5941V63.5909V63.5877V63.5845V63.5812V63.578V63.5748V63.5715V63.5683V63.5651V63.5618V63.5586V63.5553V63.5521V63.5489V63.5456V63.5424V63.5391V63.5358V63.5326V63.5293V63.5261V63.5228V63.5195V63.5163V63.513V63.5097V63.5065V63.5032V63.4999V63.4967V63.4934V63.4901V63.4868V63.4836V63.4803V63.477V63.4737V63.4704V63.4672V63.4639V63.4606V63.4573V63.454V63.4507V63.4475V63.4442V63.4409V63.4376V63.4343V63.431V63.4277V63.4244V63.4211V63.4178V63.4145V63.4113V63.408V63.4047V63.4014V63.3981V63.3948V63.3915V63.3882V63.3849V63.3816V63.3783V63.375V63.3717V63.3684V63.3651V63.3618V63.3585V63.3552V63.3519V63.3486V63.3453V63.342V63.3388V63.3355V63.3322V63.3289V63.3256V63.3223V63.319V63.3157V63.3124V63.3091V63.3058V63.3026V63.2993V63.296V63.2927V63.2894V63.2861V63.2828V63.2796V63.2763V63.273V63.2697V63.2664V63.2632V63.2599V63.2566V63.2533V63.2501V63.2468V63.2435V63.2403V63.237V63.2337V63.2305V63.2272V63.2239V63.2207V63.2174V63.2142V63.2109V63.2077V63.2044V63.2012V63.1979V63.1947V63.1914V63.1882V63.1849V63.1817V63.1785V63.1752V63.172V63.1688V63.1655V63.1623V63.1591V63.1559V63.1526V63.1494V63.1462V63.143V63.1398V63.1366V63.1334V63.1302V63.127V63.1238V63.1206V63.1174V63.1142V63.111V63.1078V63.1046V63.1015V63.0983V63.0951V63.0919V63.0888V63.0856V63.0824V63.0793V63.0761V63.073V63.0698V63.0667V63.0635V63.0604V63.0573V63.0541V63.051V63.0479V63.0448V63.0416V63.0385V63.0354V63.0323V63.0292V63.0261V63.023V63.0199V63.0168V63.0137V63.0106V63.0075V63.0045V63.0014V62.9983V62.9953V62.9922V62.9892V62.9861V62.9831V62.98V62.977V62.9739V62.9709V62.9679V62.9648V62.9618V62.9588V62.9558V62.9528V62.9498V62.9468V62.9438V62.9408V62.9378V62.9349V62.9319V62.9289V62.9259V62.923V62.92V62.9171V62.9141V62.9112V62.9083V62.9053V62.9024V62.8995V62.8966V62.8937V62.8907V62.8878V62.8849V62.8821V62.8792V62.8763V62.8734V62.8705V62.8677V62.8648V62.862V62.8591V62.8563V62.8534V62.8506V62.8478V62.845V62.8422V62.8393V62.8365V62.8337V62.831V62.8282V62.8254V62.8226V62.8198V62.8171V62.8143V62.8116V62.8088V62.8061V62.8034V62.8006V62.7979V62.7952V62.7925V62.7898V62.7871V62.7844V62.7817V62.7791V62.7764V62.7737V62.7711V62.7684V62.7658V62.7632V62.7605V62.7579V62.7553V62.7527V62.7501V62.7475V62.7449V62.7423V62.7397V62.7372V62.7346V62.7321V62.7295V62.727V62.7244V62.7219V62.7194V62.7169V62.7144V62.7119V62.7094V62.7069V62.7045V62.702V62.6995V62.6971V62.6946V62.6922V62.6898V62.6873V62.6849V62.6825V62.6801V62.6777V62.6754V62.673V62.6706V62.6683V62.6659V62.6636V62.6612V62.6589V62.6566V62.6543V62.652V62.6497V62.6474V62.6451V62.6429V62.6406V62.6383V62.6361V62.6339V62.6316V62.6294V62.6272V62.625V62.5792L52.0363 62.5355L50.1613 56.5355L50.1614 56.5355L50.1596 56.5301C49.9617 55.9364 49.6535 55.4042 49.2112 55.0725C48.7568 54.7317 48.1898 54.6252 47.5455 54.8353L18.6853 61.2071L18.45 61.259V61.5V74.625V74.7983L18.6001 74.8849L38.1001 86.1349L38.1078 86.1393L38.1158 86.1433C38.5245 86.3477 38.9453 86.4563 39.3281 86.4563C39.6927 86.4563 40.0454 86.3565 40.3032 86.1197L85.2052 61.7977C85.6566 61.7719 85.9976 61.5287 86.2183 61.1977C86.392 60.9372 86.4936 60.6214 86.5321 60.3Z" fill="#263238" stroke="white" stroke-width="0.6"></path></svg>