<svg xmlns="http://www.w3.org/2000/svg" width="17" height="17" viewBox="0 0 17 17" fill="none"><path d="M7.31 12.41L13.3025 6.4175L12.1125 5.2275L7.31 10.03L4.8875 7.6075L3.6975 8.7975L7.31 12.41ZM8.5 17C7.32417 17 6.21917 16.7767 5.185 16.3302C4.15083 15.8842 3.25125 15.2788 2.48625 14.5138C1.72125 13.7488 1.11577 12.8492 0.6698 11.815C0.223267 10.7808 0 9.67583 0 8.5C0 7.32417 0.223267 6.21917 0.6698 5.185C1.11577 4.15083 1.72125 3.25125 2.48625 2.48625C3.25125 1.72125 4.15083 1.11548 5.185 0.66895C6.21917 0.222983 7.32417 0 8.5 0C9.67583 0 10.7808 0.222983 11.815 0.66895C12.8492 1.11548 13.7488 1.72125 14.5138 2.48625C15.2788 3.25125 15.8842 4.15083 16.3302 5.185C16.7767 6.21917 17 7.32417 17 8.5C17 9.67583 16.7767 10.7808 16.3302 11.815C15.8842 12.8492 15.2788 13.7488 14.5138 14.5138C13.7488 15.2788 12.8492 15.8842 11.815 16.3302C10.7808 16.7767 9.67583 17 8.5 17Z" fill="#08C16A"></path></svg>