<svg xmlns="http://www.w3.org/2000/svg" width="33" height="34" viewBox="0 0 33 34" fill="none"><path d="M32.6306 1.63061C32.6022 1.21499 32.2664 0.886864 31.8508 0.86827H31.8486C25.1319 0.574052 19.1742 3.46593 13.8487 9.61718H3.375C2.99219 9.61718 2.67172 9.87858 2.58094 10.233L2.57984 10.2384L0.392344 18.9884C0.377031 19.0475 0.368281 19.1164 0.368281 19.1864C0.368281 19.6392 0.734687 20.0067 1.18859 20.0078H6.98765C6.6289 20.6947 6.27125 21.3848 5.91906 22.11C5.86765 22.215 5.83703 22.3386 5.83703 22.4687C5.83703 22.6952 5.9289 22.9008 6.07765 23.0506L10.4527 27.4256C10.6014 27.5733 10.8059 27.6651 11.0323 27.6651C11.168 27.6651 11.2948 27.6323 11.4075 27.5755L11.4031 27.5777C12.1046 27.2225 12.8013 26.862 13.4933 26.4959V32.4853C13.4933 32.4864 13.4933 32.4864 13.4933 32.4875C13.4933 32.9392 13.8597 33.3056 14.3114 33.3056C14.3125 33.3056 14.3125 33.3056 14.3136 33.3056C14.3847 33.3056 14.4525 33.2969 14.5181 33.2805L14.5116 33.2816L23.2616 31.0941C23.6214 31.0011 23.8828 30.6795 23.8828 30.2978V19.8142C29.4642 15.2073 33.1742 9.47937 32.6306 1.6328V1.63061ZM2.23859 18.3672L4.01594 11.2578H12.5023C10.9022 13.3239 9.36984 15.6481 8.01687 18.085L7.87359 18.3672H2.23859ZM22.2422 29.6547L15.1328 31.432V25.6012C17.8781 24.0995 20.2012 22.6076 22.415 20.9736L22.2422 21.095V29.6547ZM11.1909 25.8419L7.65156 22.3025C14.2348 8.98061 21.8561 2.48811 30.92 2.48811L31.0337 2.48921C31.3925 13.7866 21.8014 20.4114 11.1909 25.8419ZM24.1562 6.33593C22.4948 6.33593 21.1484 7.68233 21.1484 9.34374C21.1484 11.0051 22.4948 12.3516 24.1562 12.3516C25.8176 12.3516 27.1641 11.0051 27.1641 9.34374C27.1619 7.68343 25.8166 6.33812 24.1562 6.33593ZM24.1562 10.7109C23.4016 10.7109 22.7891 10.0984 22.7891 9.34374C22.7891 8.58905 23.4016 7.97655 24.1562 7.97655C24.9109 7.97655 25.5234 8.58905 25.5234 9.34374C25.5223 10.0984 24.9109 10.7098 24.1562 10.7109ZM3.9 26.0256L3.37937 26.0234C2.98672 26.1022 2.73734 26.2269 2.61266 26.5386L0.425156 32.0073C0.387969 32.097 0.367188 32.202 0.367188 32.3114C0.367188 32.7642 0.733594 33.1317 1.1875 33.1328C1.29687 33.1328 1.40187 33.1109 1.49812 33.0727L1.49266 33.0748L6.96578 30.8917C7.25781 30.7714 7.46343 30.4969 7.48093 30.172V30.1698C7.5039 29.728 7.53343 29.3452 7.55859 29.0159C7.6439 27.9156 7.70078 27.1872 7.19765 26.6403C6.64203 26.0376 5.84031 26.0333 3.90109 26.0245L3.9 26.0256ZM5.92234 28.8902C5.90594 29.0936 5.88843 29.3156 5.87203 29.5606L2.65859 30.8425L3.92844 27.6662C4.90844 27.6706 5.8239 27.675 5.95187 27.6958C5.9639 27.8325 5.97047 27.9911 5.97047 28.1519C5.97047 28.4122 5.95297 28.6681 5.91906 28.9197L5.92234 28.8902Z" fill="url(#paint0_linear_97_67)"></path><defs><linearGradient id="paint0_linear_97_67" x1="32.6833" y1="17.0768" x2="0.367187" y2="17.0768" gradientUnits="userSpaceOnUse"><stop stop-color="#6083FF"></stop><stop offset="1" stop-color="#5F5DFF"></stop></linearGradient></defs></svg>