<svg xmlns="http://www.w3.org/2000/svg" width="16" height="16" viewBox="0 0 16 16" fill="none"><path d="M7.33738 8.9596L7.50809 8.78889H7.26667H0.888889C0.662277 8.78889 0.477218 8.71321 0.326834 8.5623L0.326588 8.56206C0.17568 8.41167 0.1 8.22661 0.1 8C0.1 7.77338 0.175687 7.58796 0.326711 7.43693C0.47707 7.28657 0.662167 7.21111 0.888889 7.21111H7.26667H7.50809L7.33738 7.0404L5.69293 5.39596C5.53328 5.23631 5.45555 5.05053 5.45555 4.83378C5.45555 4.61636 5.53334 4.43031 5.69293 4.27071L5.693 4.27078L5.69594 4.26757C5.83964 4.1108 6.01659 4.03333 6.23378 4.03333C6.45315 4.03333 6.63073 4.10548 6.77373 4.24849L9.97373 7.44849C10.0536 7.52836 10.1079 7.61235 10.1396 7.70029C10.1722 7.79241 10.1889 7.89207 10.1889 8C10.1889 8.10793 10.1722 8.20759 10.1396 8.29971C10.1079 8.38765 10.0536 8.47164 9.97373 8.55151L6.77373 11.7515C6.6149 11.9103 6.43501 11.9798 6.22846 11.9669C6.01636 11.9536 5.84048 11.8755 5.69587 11.7322C5.54948 11.5579 5.47778 11.363 5.47778 11.144C5.47778 10.9246 5.54992 10.7471 5.69293 10.604L7.33738 8.9596ZM8.32659 14.5491L8.32683 14.5488C8.47722 14.3979 8.66228 14.3222 8.88889 14.3222H14.2222H14.3222V14.2222V1.77778V1.67778H14.2222H8.88889C8.66228 1.67778 8.47722 1.6021 8.32683 1.45119L8.32659 1.45094C8.17568 1.30056 8.1 1.1155 8.1 0.888889C8.1 0.662274 8.17569 0.476845 8.32671 0.325822C8.47707 0.175463 8.66217 0.1 8.88889 0.1H14.2222C14.6844 0.1 15.0776 0.263225 15.4075 0.592428C15.7367 0.922273 15.9 1.31559 15.9 1.77778V14.2222C15.9 14.6844 15.7368 15.0777 15.4075 15.4075C15.0777 15.7368 14.6844 15.9 14.2222 15.9H8.88889C8.66228 15.9 8.47722 15.8243 8.32683 15.6734L8.32659 15.6732C8.17568 15.5228 8.1 15.3377 8.1 15.1111C8.1 14.8845 8.17568 14.6994 8.32659 14.5491Z" fill="#777777" stroke="#EDF4F4" stroke-width="0.2"></path></svg>