<svg xmlns="http://www.w3.org/2000/svg" width="77" height="77" viewBox="0 0 77 77" fill="none"><path d="M64.8185 58.5997C64.3071 58.5997 63.8936 58.1861 63.8936 57.6748V38.6579C63.8936 35.2591 63.2243 31.9505 61.8934 28.8299C60.615 25.8145 58.7803 23.1075 56.4567 20.7765C54.1257 18.4454 51.4186 16.6182 48.4033 15.3398C45.2827 14.0164 41.9816 13.3396 38.5753 13.3396C35.1765 13.3396 31.8679 14.0089 28.7473 15.3398C25.7319 16.6182 23.0249 18.4529 20.6938 20.7765C18.3628 23.1075 16.5355 25.8145 15.2572 28.8299C13.9338 31.9505 13.257 35.2516 13.257 38.6579V57.6673C13.257 58.1786 12.8435 58.5922 12.3321 58.5922C11.8208 58.5922 11.4072 58.1786 11.4072 57.6673V38.6579C11.4072 35.0034 12.1291 31.4542 13.5503 28.108C14.9264 24.8746 16.889 21.9721 19.3854 19.4681C21.8819 16.9716 24.792 15.009 28.0254 13.6329C31.3716 12.2117 34.9208 11.4898 38.5753 11.4898C42.2298 11.4898 45.779 12.2117 49.1252 13.6329C52.3586 15.009 55.2611 16.9716 57.7651 19.4681C60.2616 21.9645 62.2242 24.8746 63.6003 28.108C65.0215 31.4542 65.7434 35.0034 65.7434 38.6579V57.6673C65.7434 58.1861 65.3298 58.5997 64.8185 58.5997Z" fill="url(#paint0_linear_150_3283)"></path><path d="M7.51191 63.9687C4.85 63.9687 2.69189 61.8105 2.69189 59.1486V46.5083C2.69189 43.8464 4.85 41.6883 7.51191 41.6883C10.1738 41.6883 12.3319 43.8464 12.3319 46.5083V59.1486C12.3319 61.8105 10.1738 63.9687 7.51191 63.9687Z" fill="#AFBDFF"></path><path d="M7.51202 64.8936C4.34629 64.8936 1.76709 62.3144 1.76709 59.1486V46.5083C1.76709 43.3426 4.34629 40.7634 7.51202 40.7634C10.6777 40.7634 13.2569 43.3426 13.2569 46.5083V59.1486C13.2645 62.3144 10.6853 64.8936 7.51202 64.8936ZM7.51202 42.6132C5.36895 42.6132 3.6169 44.3577 3.6169 46.5083V59.1486C3.6169 61.2917 5.36143 63.0437 7.51202 63.0437C9.65509 63.0437 11.4071 61.2992 11.4071 59.1486V46.5083C11.4071 44.3652 9.66261 42.6132 7.51202 42.6132Z" fill="url(#paint1_linear_150_3283)"></path><path d="M69.6384 63.9687C66.9765 63.9687 64.8184 61.8105 64.8184 59.1486V46.5083C64.8184 43.8464 66.9765 41.6883 69.6384 41.6883C72.3003 41.6883 74.4584 43.8464 74.4584 46.5083V59.1486C74.4584 61.8105 72.3003 63.9687 69.6384 63.9687Z" fill="#AFBDFF"></path><path d="M69.6382 64.8935C66.4725 64.8935 63.8933 62.3143 63.8933 59.1486V46.5083C63.8933 43.3425 66.4725 40.7633 69.6382 40.7633C72.8039 40.7633 75.3831 43.3425 75.3831 46.5083V59.1486C75.3831 62.3143 72.8039 64.8935 69.6382 64.8935ZM69.6382 42.6132C67.4951 42.6132 65.7431 44.3577 65.7431 46.5083V59.1486C65.7431 61.2917 67.4876 63.0437 69.6382 63.0437C71.7813 63.0437 73.5333 61.2992 73.5333 59.1486V46.5083C73.5258 44.3652 71.7813 42.6132 69.6382 42.6132ZM39.6428 57.3665C39.5751 57.3665 39.5074 57.359 39.4397 57.3514C38.951 57.2687 38.5675 56.9003 38.4622 56.4115L35.319 41.974L29.9426 50.0425C29.717 50.3808 29.341 50.5839 28.935 50.5839H21.9719C21.3026 50.5839 20.7612 50.0425 20.7612 49.3732C20.7612 48.704 21.3026 48.1626 21.9719 48.1626H28.2883L34.8904 38.2593C35.1611 37.8533 35.6424 37.6503 36.1236 37.7405C36.6049 37.8307 36.9809 38.1992 37.0861 38.6729L40.1992 52.9826L43.177 48.2002C43.395 47.8467 43.786 47.6287 44.2071 47.6287H55.1856C55.8549 47.6287 56.3963 48.1701 56.3963 48.8393C56.3963 49.5086 55.8549 50.05 55.1856 50.05H44.8839L40.688 56.795C40.4549 57.1559 40.0564 57.3665 39.6428 57.3665Z" fill="url(#paint2_linear_150_3283)"></path><defs><linearGradient id="paint0_linear_150_3283" x1="65.7434" y1="35.0448" x2="11.4072" y2="35.0448" gradientUnits="userSpaceOnUse"><stop stop-color="#6083FF"></stop><stop offset="1" stop-color="#5F5DFF"></stop></linearGradient><linearGradient id="paint1_linear_150_3283" x1="13.257" y1="52.8285" x2="1.76709" y2="52.8285" gradientUnits="userSpaceOnUse"><stop stop-color="#6083FF"></stop><stop offset="1" stop-color="#5F5DFF"></stop></linearGradient><linearGradient id="paint2_linear_150_3283" x1="75.3831" y1="51.3064" x2="20.7612" y2="51.3064" gradientUnits="userSpaceOnUse"><stop stop-color="#6083FF"></stop><stop offset="1" stop-color="#5F5DFF"></stop></linearGradient></defs></svg>