<svg xmlns="http://www.w3.org/2000/svg" width="75" height="75" viewBox="0 0 75 75" fill="none"><path d="M8.4082 41.1548L8.34961 47.937L19.4165 41.1548H40.752C43.6377 41.1548 45.9741 38.7671 45.9741 35.8154V15.0879C45.9741 12.1362 43.6377 9.74854 40.752 9.74854H8.4082C5.52246 9.74854 3.18604 12.1362 3.18604 15.0879V35.8154C3.18604 38.7671 5.52246 41.1548 8.4082 41.1548Z" fill="#AFBDFF"></path><path d="M8.34961 49.0063C8.1665 49.0063 7.99072 48.9624 7.82959 48.8672C7.49267 48.6768 7.28759 48.3179 7.28759 47.937L7.33886 42.1289C4.37988 41.6089 2.12402 38.9795 2.12402 35.8154V15.0879C2.12402 11.5576 4.94385 8.68652 8.4082 8.68652H40.7446C44.209 8.68652 47.0288 11.5576 47.0288 15.0879V35.8154C47.0288 39.3457 44.209 42.2168 40.7446 42.2168H19.7168L8.90625 48.8452C8.73047 48.9478 8.54004 49.0063 8.34961 49.0063ZM8.4082 10.8105C6.11572 10.8105 4.24805 12.7295 4.24805 15.0879V35.8154C4.24805 38.1738 6.11572 40.0928 8.41552 40.0928C8.70117 40.0928 8.97216 40.2026 9.16992 40.4077C9.36767 40.6055 9.47753 40.8838 9.47753 41.1621L9.43359 46.0327L18.8672 40.2466C19.0356 40.144 19.2261 40.0928 19.4238 40.0928H40.7593C43.0591 40.0928 44.9267 38.1738 44.9267 35.8154V15.0879C44.9267 12.7295 43.0591 10.8105 40.7593 10.8105H8.4082Z" fill="url(#paint0_linear_149_3249)"></path><path d="M65.1929 56.6235L65.2734 65.2222L50.9473 56.6235H23.3203C19.585 56.6235 16.5527 53.5913 16.5527 49.856V23.5913C16.5527 19.856 19.585 16.8237 23.3203 16.8237H65.1929C68.9282 16.8237 71.9604 19.856 71.9604 23.5913V49.8633C71.9604 53.5913 68.9355 56.6235 65.1929 56.6235Z" fill="#FAFCFC"></path><path d="M65.2734 66.2842C65.083 66.2842 64.8926 66.2329 64.7241 66.1304L50.6543 57.6855H23.3203C19.0063 57.6855 15.4907 54.1772 15.4907 49.856V23.5913C15.4907 19.2773 18.999 15.7617 23.3203 15.7617H65.1929C69.5068 15.7617 73.0225 19.27 73.0225 23.5913V49.8633C73.0225 53.8184 70.0781 57.0923 66.2695 57.6196L66.3428 65.2222C66.3428 65.603 66.145 65.9619 65.8081 66.1523C65.6396 66.2329 65.4565 66.2842 65.2734 66.2842ZM23.3203 17.8857C20.1782 17.8857 17.6147 20.4419 17.6147 23.5913V49.8633C17.6147 53.0054 20.1709 55.5688 23.3203 55.5688H50.9473C51.1377 55.5688 51.3281 55.6201 51.4966 55.7226L64.2041 63.3472L64.1455 56.6455C64.1455 56.3599 64.2554 56.0889 64.4531 55.8911C64.6509 55.6934 64.9219 55.5762 65.2075 55.5762C68.3496 55.5762 70.9131 53.02 70.9131 49.8706V23.5913C70.9131 20.4492 68.3569 17.8857 65.2075 17.8857H23.3203Z" fill="url(#paint1_linear_149_3249)"></path><path d="M27.5391 36.6064C27.5391 37.4767 27.9041 38.3113 28.5537 38.9266C29.2034 39.542 30.0846 39.8877 31.0034 39.8877C31.9222 39.8877 32.8034 39.542 33.4531 38.9266C34.1028 38.3113 34.4678 37.4767 34.4678 36.6064C34.4678 35.7362 34.1028 34.9016 33.4531 34.2863C32.8034 33.6709 31.9222 33.3252 31.0034 33.3252C30.0846 33.3252 29.2034 33.6709 28.5537 34.2863C27.9041 34.9016 27.5391 35.7362 27.5391 36.6064Z" fill="url(#paint2_linear_149_3249)"></path><path d="M40.7959 36.6064C40.7959 37.4767 41.1609 38.3113 41.8106 38.9266C42.4603 39.542 43.3414 39.8877 44.2603 39.8877C45.1791 39.8877 46.0602 39.542 46.7099 38.9266C47.3596 38.3113 47.7246 37.4767 47.7246 36.6064C47.7246 35.7362 47.3596 34.9016 46.7099 34.2863C46.0602 33.6709 45.1791 33.3252 44.2603 33.3252C43.3414 33.3252 42.4603 33.6709 41.8106 34.2863C41.1609 34.9016 40.7959 35.7362 40.7959 36.6064Z" fill="url(#paint3_linear_149_3249)"></path><path d="M54.0454 36.6064C54.0454 37.4767 54.4104 38.3113 55.0601 38.9266C55.7098 39.542 56.591 39.8877 57.5098 39.8877C58.4286 39.8877 59.3097 39.542 59.9594 38.9266C60.6091 38.3113 60.9741 37.4767 60.9741 36.6064C60.9741 35.7362 60.6091 34.9016 59.9594 34.2863C59.3097 33.6709 58.4286 33.3252 57.5098 33.3252C56.591 33.3252 55.7098 33.6709 55.0601 34.2863C54.4104 34.9016 54.0454 35.7362 54.0454 36.6064Z" fill="url(#paint4_linear_149_3249)"></path><defs><linearGradient id="paint0_linear_149_3249" x1="47.0288" y1="28.8464" x2="2.12402" y2="28.8464" gradientUnits="userSpaceOnUse"><stop stop-color="#6083FF"></stop><stop offset="1" stop-color="#5F5DFF"></stop></linearGradient><linearGradient id="paint1_linear_149_3249" x1="73.0225" y1="41.0229" x2="15.4907" y2="41.0229" gradientUnits="userSpaceOnUse"><stop stop-color="#6083FF"></stop><stop offset="1" stop-color="#5F5DFF"></stop></linearGradient><linearGradient id="paint2_linear_149_3249" x1="34.4678" y1="36.6064" x2="27.5391" y2="36.6064" gradientUnits="userSpaceOnUse"><stop stop-color="#6083FF"></stop><stop offset="1" stop-color="#5F5DFF"></stop></linearGradient><linearGradient id="paint3_linear_149_3249" x1="47.7246" y1="36.6064" x2="40.7959" y2="36.6064" gradientUnits="userSpaceOnUse"><stop stop-color="#6083FF"></stop><stop offset="1" stop-color="#5F5DFF"></stop></linearGradient><linearGradient id="paint4_linear_149_3249" x1="60.9741" y1="36.6064" x2="54.0454" y2="36.6064" gradientUnits="userSpaceOnUse"><stop stop-color="#6083FF"></stop><stop offset="1" stop-color="#5F5DFF"></stop></linearGradient></defs></svg>