<svg xmlns="http://www.w3.org/2000/svg" width="404" height="110" viewBox="0 0 404 110" fill="none"><rect width="404" height="110" rx="4" fill="url(#paint0_linear_189_23)"></rect><path d="M40.596 52.336C39.1587 52.336 37.8893 52.0933 36.788 51.608C35.6867 51.104 34.8187 50.3947 34.184 49.48C33.5493 48.5467 33.2227 47.4173 33.204 46.092H36.984C37.0213 47.0067 37.348 47.7813 37.964 48.416C38.5987 49.032 39.4667 49.34 40.568 49.34C41.52 49.34 42.276 49.116 42.836 48.668C43.396 48.2013 43.676 47.5853 43.676 46.82C43.676 46.0173 43.424 45.392 42.92 44.944C42.4347 44.496 41.7813 44.132 40.96 43.852C40.1387 43.572 39.2613 43.2733 38.328 42.956C36.816 42.4333 35.6587 41.7613 34.856 40.94C34.072 40.1187 33.68 39.0267 33.68 37.664C33.6613 36.5067 33.932 35.5173 34.492 34.696C35.0707 33.856 35.8547 33.212 36.844 32.764C37.8333 32.2973 38.972 32.064 40.26 32.064C41.5667 32.064 42.7147 32.2973 43.704 32.764C44.712 33.2307 45.496 33.884 46.056 34.724C46.6347 35.564 46.9427 36.5627 46.98 37.72H43.144C43.1253 37.0293 42.8547 36.4227 42.332 35.9C41.828 35.3587 41.1187 35.088 40.204 35.088C39.42 35.0693 38.7573 35.2653 38.216 35.676C37.6933 36.068 37.432 36.6467 37.432 37.412C37.432 38.0653 37.6373 38.588 38.048 38.98C38.4587 39.3533 39.0187 39.6707 39.728 39.932C40.4373 40.1933 41.2493 40.4733 42.164 40.772C43.1347 41.108 44.0213 41.5 44.824 41.948C45.6267 42.396 46.2707 42.9933 46.756 43.74C47.2413 44.468 47.484 45.4107 47.484 46.568C47.484 47.5947 47.2227 48.5467 46.7 49.424C46.1773 50.3013 45.4027 51.0107 44.376 51.552C43.3493 52.0747 42.0893 52.336 40.596 52.336ZM56.995 52.336C55.595 52.336 54.3537 52.0373 53.271 51.44C52.1884 50.8427 51.339 50.0027 50.723 48.92C50.107 47.8373 49.799 46.5867 49.799 45.168C49.799 43.7307 50.0977 42.452 50.695 41.332C51.311 40.212 52.151 39.344 53.215 38.728C54.2977 38.0933 55.567 37.776 57.023 37.776C58.3857 37.776 59.5897 38.0747 60.635 38.672C61.6804 39.2693 62.4924 40.0907 63.071 41.136C63.6684 42.1627 63.967 43.3107 63.967 44.58C63.967 44.7853 63.9577 45 63.939 45.224C63.939 45.448 63.9297 45.6813 63.911 45.924H53.355C53.4297 47.0067 53.803 47.856 54.475 48.472C55.1657 49.088 55.9964 49.396 56.967 49.396C57.695 49.396 58.3017 49.2373 58.787 48.92C59.291 48.584 59.6644 48.1547 59.907 47.632H63.547C63.2857 48.5093 62.847 49.312 62.231 50.04C61.6337 50.7493 60.887 51.3093 59.991 51.72C59.1137 52.1307 58.115 52.336 56.995 52.336ZM57.023 40.688C56.1457 40.688 55.371 40.94 54.699 41.444C54.027 41.9293 53.5977 42.676 53.411 43.684H60.327C60.271 42.7693 59.935 42.0413 59.319 41.5C58.703 40.9587 57.9377 40.688 57.023 40.688ZM72.6433 52C71.1873 52 70.0206 51.6453 69.1433 50.936C68.266 50.2267 67.8273 48.9667 67.8273 47.156V41.108H65.4473V38.112H67.8273L68.2473 34.388H71.4113V38.112H75.1633V41.108H71.4113V47.184C71.4113 47.856 71.5513 48.3227 71.8313 48.584C72.13 48.8267 72.634 48.948 73.3433 48.948H75.0793V52H72.6433ZM89.5043 52V45.028L82.9243 32.4H86.9843L91.3243 41.444L95.6363 32.4H99.6403L93.0883 45.028V52H89.5043ZM105.748 52.336C104.404 52.336 103.191 52.028 102.108 51.412C101.044 50.796 100.195 49.9467 99.5601 48.864C98.9441 47.7627 98.6361 46.4933 98.6361 45.056C98.6361 43.6187 98.9534 42.3587 99.5881 41.276C100.223 40.1747 101.072 39.316 102.136 38.7C103.219 38.084 104.432 37.776 105.776 37.776C107.101 37.776 108.296 38.084 109.36 38.7C110.443 39.316 111.292 40.1747 111.908 41.276C112.543 42.3587 112.86 43.6187 112.86 45.056C112.86 46.4933 112.543 47.7627 111.908 48.864C111.292 49.9467 110.443 50.796 109.36 51.412C108.277 52.028 107.073 52.336 105.748 52.336ZM105.748 49.228C106.681 49.228 107.493 48.8827 108.184 48.192C108.875 47.4827 109.22 46.4373 109.22 45.056C109.22 43.6747 108.875 42.6387 108.184 41.948C107.493 41.2387 106.691 40.884 105.776 40.884C104.824 40.884 104.003 41.2387 103.312 41.948C102.64 42.6387 102.304 43.6747 102.304 45.056C102.304 46.4373 102.64 47.4827 103.312 48.192C104.003 48.8827 104.815 49.228 105.748 49.228ZM120.993 52.336C119.257 52.336 117.913 51.7947 116.961 50.712C116.027 49.6293 115.561 48.0427 115.561 45.952V38.112H119.117V45.616C119.117 46.8107 119.359 47.7253 119.845 48.36C120.33 48.9947 121.095 49.312 122.141 49.312C123.13 49.312 123.942 48.9573 124.577 48.248C125.23 47.5387 125.557 46.5493 125.557 45.28V38.112H129.141V52H125.977L125.697 49.648C125.267 50.4693 124.642 51.1227 123.821 51.608C123.018 52.0933 122.075 52.336 120.993 52.336ZM132.54 52V38.112H135.732L136.068 40.716C136.572 39.82 137.253 39.1107 138.112 38.588C138.989 38.0467 140.016 37.776 141.192 37.776V41.556H140.184C139.4 41.556 138.7 41.6773 138.084 41.92C137.468 42.1627 136.982 42.5827 136.628 43.18C136.292 43.7773 136.124 44.608 136.124 45.672V52H132.54ZM148.577 52L155.745 32.4H159.777L166.945 52H163.137L161.569 47.464H153.925L152.329 52H148.577ZM154.905 44.664H160.589L157.733 36.516L154.905 44.664ZM169.106 52V38.112H172.27L172.55 40.464C172.979 39.6427 173.595 38.9893 174.398 38.504C175.219 38.0187 176.181 37.776 177.282 37.776C178.999 37.776 180.334 38.3173 181.286 39.4C182.238 40.4827 182.714 42.0693 182.714 44.16V52H179.13V44.496C179.13 43.3013 178.887 42.3867 178.402 41.752C177.917 41.1173 177.161 40.8 176.134 40.8C175.126 40.8 174.295 41.1547 173.642 41.864C173.007 42.5733 172.69 43.5627 172.69 44.832V52H169.106ZM190.649 52.336C189.454 52.336 188.474 52.1493 187.709 51.776C186.944 51.384 186.374 50.8707 186.001 50.236C185.628 49.6013 185.441 48.9013 185.441 48.136C185.441 46.848 185.945 45.8027 186.953 45C187.961 44.1973 189.473 43.796 191.489 43.796H195.017V43.46C195.017 42.508 194.746 41.808 194.205 41.36C193.664 40.912 192.992 40.688 192.189 40.688C191.461 40.688 190.826 40.8653 190.285 41.22C189.744 41.556 189.408 42.06 189.277 42.732H185.777C185.87 41.724 186.206 40.8467 186.785 40.1C187.382 39.3533 188.148 38.784 189.081 38.392C190.014 37.9813 191.06 37.776 192.217 37.776C194.196 37.776 195.754 38.2707 196.893 39.26C198.032 40.2493 198.601 41.6493 198.601 43.46V52H195.549L195.213 49.76C194.802 50.5067 194.224 51.1227 193.477 51.608C192.749 52.0933 191.806 52.336 190.649 52.336ZM191.461 49.536C192.488 49.536 193.281 49.2 193.841 48.528C194.42 47.856 194.784 47.0253 194.933 46.036H191.881C190.929 46.036 190.248 46.2133 189.837 46.568C189.426 46.904 189.221 47.324 189.221 47.828C189.221 48.3693 189.426 48.7893 189.837 49.088C190.248 49.3867 190.789 49.536 191.461 49.536ZM201.741 52V31.84H205.325V52H201.741ZM210.443 58.16L213.663 51.076H212.823L207.419 38.112H211.311L215.203 47.884L219.263 38.112H223.071L214.251 58.16H210.443ZM231.322 52C229.866 52 228.7 51.6453 227.822 50.936C226.945 50.2267 226.506 48.9667 226.506 47.156V41.108H224.126V38.112H226.506L226.926 34.388H230.09V38.112H233.842V41.108H230.09V47.184C230.09 47.856 230.23 48.3227 230.51 48.584C230.809 48.8267 231.313 48.948 232.022 48.948H233.758V52H231.322ZM238.572 35.956C237.918 35.956 237.377 35.76 236.948 35.368C236.537 34.976 236.332 34.4813 236.332 33.884C236.332 33.2867 236.537 32.8013 236.948 32.428C237.377 32.036 237.918 31.84 238.572 31.84C239.225 31.84 239.757 32.036 240.168 32.428C240.597 32.8013 240.812 33.2867 240.812 33.884C240.812 34.4813 240.597 34.976 240.168 35.368C239.757 35.76 239.225 35.956 238.572 35.956ZM236.78 52V38.112H240.364V52H236.78ZM250.628 52.336C249.21 52.336 247.959 52.028 246.876 51.412C245.794 50.796 244.935 49.9373 244.3 48.836C243.684 47.7347 243.376 46.4747 243.376 45.056C243.376 43.6373 243.684 42.3773 244.3 41.276C244.935 40.1747 245.794 39.316 246.876 38.7C247.959 38.084 249.21 37.776 250.628 37.776C252.402 37.776 253.895 38.2427 255.108 39.176C256.322 40.0907 257.096 41.36 257.432 42.984H253.652C253.466 42.312 253.092 41.7893 252.532 41.416C251.991 41.024 251.347 40.828 250.6 40.828C249.611 40.828 248.771 41.2013 248.08 41.948C247.39 42.6947 247.044 43.7307 247.044 45.056C247.044 46.3813 247.39 47.4173 248.08 48.164C248.771 48.9107 249.611 49.284 250.6 49.284C251.347 49.284 251.991 49.0973 252.532 48.724C253.092 48.3507 253.466 47.8187 253.652 47.128H257.432C257.096 48.696 256.322 49.956 255.108 50.908C253.895 51.86 252.402 52.336 250.628 52.336ZM266.073 52.336C264.841 52.336 263.759 52.14 262.825 51.748C261.892 51.3373 261.145 50.7773 260.585 50.068C260.025 49.3587 259.689 48.5373 259.577 47.604H263.189C263.301 48.1453 263.6 48.612 264.085 49.004C264.589 49.3773 265.233 49.564 266.017 49.564C266.801 49.564 267.371 49.4053 267.725 49.088C268.099 48.7707 268.285 48.4067 268.285 47.996C268.285 47.3987 268.024 46.9973 267.501 46.792C266.979 46.568 266.251 46.3533 265.317 46.148C264.72 46.0173 264.113 45.8587 263.497 45.672C262.881 45.4853 262.312 45.252 261.789 44.972C261.285 44.6733 260.875 44.3 260.557 43.852C260.24 43.3853 260.081 42.816 260.081 42.144C260.081 40.912 260.567 39.876 261.537 39.036C262.527 38.196 263.908 37.776 265.681 37.776C267.324 37.776 268.631 38.1587 269.601 38.924C270.591 39.6893 271.179 40.744 271.365 42.088H267.977C267.772 41.0613 266.997 40.548 265.653 40.548C264.981 40.548 264.459 40.6787 264.085 40.94C263.731 41.2013 263.553 41.528 263.553 41.92C263.553 42.3307 263.824 42.6573 264.365 42.9C264.907 43.1427 265.625 43.3667 266.521 43.572C267.492 43.796 268.379 44.048 269.181 44.328C270.003 44.5893 270.656 44.9907 271.141 45.532C271.627 46.0547 271.869 46.8107 271.869 47.8C271.888 48.6587 271.664 49.4333 271.197 50.124C270.731 50.8147 270.059 51.356 269.181 51.748C268.304 52.14 267.268 52.336 266.073 52.336ZM281.24 52V32.4H288.436C290.004 32.4 291.292 32.6707 292.3 33.212C293.327 33.7347 294.092 34.4533 294.596 35.368C295.1 36.264 295.352 37.2627 295.352 38.364C295.352 39.5587 295.035 40.6507 294.4 41.64C293.784 42.6293 292.814 43.348 291.488 43.796L295.548 52H291.432L287.792 44.272H284.824V52H281.24ZM284.824 41.64H288.212C289.407 41.64 290.284 41.3507 290.844 40.772C291.404 40.1933 291.684 39.428 291.684 38.476C291.684 37.5427 291.404 36.796 290.844 36.236C290.303 35.676 289.416 35.396 288.184 35.396H284.824V41.64ZM300.254 35.956C299.6 35.956 299.059 35.76 298.63 35.368C298.219 34.976 298.014 34.4813 298.014 33.884C298.014 33.2867 298.219 32.8013 298.63 32.428C299.059 32.036 299.6 31.84 300.254 31.84C300.907 31.84 301.439 32.036 301.85 32.428C302.279 32.8013 302.494 33.2867 302.494 33.884C302.494 34.4813 302.279 34.976 301.85 35.368C301.439 35.76 300.907 35.956 300.254 35.956ZM298.462 52V38.112H302.046V52H298.462ZM311.386 47.856C310.714 47.856 310.089 47.7813 309.51 47.632L308.474 48.668C308.792 48.836 309.221 48.976 309.762 49.088C310.304 49.2 311.181 49.312 312.394 49.424C314.242 49.592 315.586 50.0307 316.426 50.74C317.266 51.4493 317.686 52.4293 317.686 53.68C317.686 54.5013 317.462 55.276 317.014 56.004C316.566 56.7507 315.876 57.348 314.942 57.796C314.009 58.2627 312.814 58.496 311.358 58.496C309.38 58.496 307.784 58.1227 306.57 57.376C305.357 56.648 304.75 55.5467 304.75 54.072C304.75 52.8213 305.357 51.7387 306.57 50.824C306.197 50.656 305.87 50.4787 305.59 50.292C305.329 50.1053 305.096 49.9093 304.89 49.704V49.06L307.326 46.484C306.244 45.532 305.702 44.3093 305.702 42.816C305.702 41.8827 305.926 41.0333 306.374 40.268C306.841 39.5027 307.494 38.896 308.334 38.448C309.174 38 310.192 37.776 311.386 37.776C312.17 37.776 312.898 37.888 313.57 38.112H318.834V40.296L316.454 40.464C316.828 41.1733 317.014 41.9573 317.014 42.816C317.014 43.7493 316.79 44.5987 316.342 45.364C315.894 46.1293 315.241 46.736 314.382 47.184C313.542 47.632 312.544 47.856 311.386 47.856ZM311.386 45.112C312.114 45.112 312.712 44.916 313.178 44.524C313.664 44.132 313.906 43.572 313.906 42.844C313.906 42.116 313.664 41.556 313.178 41.164C312.712 40.772 312.114 40.576 311.386 40.576C310.621 40.576 310.005 40.772 309.538 41.164C309.072 41.556 308.838 42.116 308.838 42.844C308.838 43.572 309.072 44.132 309.538 44.524C310.005 44.916 310.621 45.112 311.386 45.112ZM308.026 53.708C308.026 54.3987 308.344 54.912 308.978 55.248C309.632 55.6027 310.425 55.78 311.358 55.78C312.254 55.78 312.982 55.5933 313.542 55.22C314.102 54.8653 314.382 54.38 314.382 53.764C314.382 53.26 314.196 52.84 313.822 52.504C313.468 52.168 312.749 51.9627 311.666 51.888C310.901 51.832 310.192 51.748 309.538 51.636C308.997 51.9347 308.605 52.2613 308.362 52.616C308.138 52.9707 308.026 53.3347 308.026 53.708ZM321.168 52V31.84H324.752V40.24C325.218 39.4747 325.844 38.8773 326.628 38.448C327.43 38 328.345 37.776 329.372 37.776C331.089 37.776 332.414 38.3173 333.348 39.4C334.3 40.4827 334.776 42.0693 334.776 44.16V52H331.22V44.496C331.22 43.3013 330.977 42.3867 330.492 41.752C330.025 41.1173 329.278 40.8 328.252 40.8C327.244 40.8 326.404 41.1547 325.732 41.864C325.078 42.5733 324.752 43.5627 324.752 44.832V52H321.168ZM344.111 52C342.655 52 341.488 51.6453 340.611 50.936C339.734 50.2267 339.295 48.9667 339.295 47.156V41.108H336.915V38.112H339.295L339.715 34.388H342.879V38.112H346.631V41.108H342.879V47.184C342.879 47.856 343.019 48.3227 343.299 48.584C343.598 48.8267 344.102 48.948 344.811 48.948H346.547V52H344.111Z" fill="white"></path><path d="M37.122 77.156C36.2207 77.156 35.432 76.9567 34.756 76.558C34.08 76.1593 33.5513 75.609 33.17 74.907C32.7887 74.1963 32.598 73.3773 32.598 72.45C32.598 71.5227 32.7887 70.708 33.17 70.006C33.5513 69.2953 34.08 68.7407 34.756 68.342C35.432 67.9433 36.2207 67.744 37.122 67.744C38.0233 67.744 38.812 67.9433 39.488 68.342C40.164 68.7407 40.6883 69.2953 41.061 70.006C41.4423 70.708 41.633 71.5227 41.633 72.45C41.633 73.3773 41.4423 74.1963 41.061 74.907C40.6883 75.609 40.164 76.1593 39.488 76.558C38.812 76.9567 38.0233 77.156 37.122 77.156ZM37.122 75.921C37.746 75.921 38.2877 75.7823 38.747 75.505C39.215 75.2277 39.579 74.829 39.839 74.309C40.099 73.789 40.229 73.1693 40.229 72.45C40.229 71.7307 40.099 71.111 39.839 70.591C39.579 70.071 39.215 69.6723 38.747 69.395C38.2877 69.1177 37.746 68.979 37.122 68.979C36.498 68.979 35.952 69.1177 35.484 69.395C35.016 69.6723 34.652 70.071 34.392 70.591C34.1407 71.111 34.015 71.7307 34.015 72.45C34.015 73.1693 34.1407 73.789 34.392 74.309C34.652 74.829 35.016 75.2277 35.484 75.505C35.952 75.7823 36.498 75.921 37.122 75.921ZM47.3541 77.156C46.7041 77.156 46.1148 77.0303 45.5861 76.779C45.0661 76.519 44.6501 76.1247 44.3381 75.596C44.0348 75.0673 43.8831 74.3957 43.8831 73.581V67.9H45.2611V73.594C45.2611 74.3913 45.4518 74.9763 45.8331 75.349C46.2145 75.7217 46.7301 75.908 47.3801 75.908C48.0215 75.908 48.5328 75.7217 48.9141 75.349C49.2955 74.9763 49.4861 74.3913 49.4861 73.594V67.9H50.8641V73.581C50.8641 74.3957 50.7038 75.0673 50.3831 75.596C50.0711 76.1247 49.6465 76.519 49.1091 76.779C48.5805 77.0303 47.9955 77.156 47.3541 77.156ZM53.4117 77V67.9H56.5447C57.264 67.9 57.8534 68.0213 58.3127 68.264C58.7807 68.5067 59.1274 68.836 59.3527 69.252C59.578 69.6593 59.6907 70.1143 59.6907 70.617C59.6907 71.1803 59.539 71.6917 59.2357 72.151C58.941 72.6103 58.4774 72.9397 57.8447 73.139L59.7817 77H58.1827L56.4147 73.334H54.7897V77H53.4117ZM54.7897 72.294H56.4667C57.0907 72.294 57.5457 72.1423 57.8317 71.839C58.1264 71.5357 58.2737 71.1413 58.2737 70.656C58.2737 70.1707 58.1307 69.785 57.8447 69.499C57.5587 69.2043 57.095 69.057 56.4537 69.057H54.7897V72.294ZM66.1563 77V67.9H69.1073C70.1733 67.9 71.0486 68.0863 71.7333 68.459C72.4266 68.8317 72.9379 69.3603 73.2673 70.045C73.6053 70.721 73.7743 71.527 73.7743 72.463C73.7743 73.3903 73.6053 74.1963 73.2673 74.881C72.9379 75.557 72.4266 76.0813 71.7333 76.454C71.0486 76.818 70.1733 77 69.1073 77H66.1563ZM67.5343 75.83H69.0553C69.8786 75.83 70.5286 75.6957 71.0053 75.427C71.4906 75.1583 71.8373 74.7727 72.0453 74.27C72.2619 73.7673 72.3703 73.165 72.3703 72.463C72.3703 71.761 72.2619 71.1543 72.0453 70.643C71.8373 70.1317 71.4906 69.7417 71.0053 69.473C70.5286 69.1957 69.8786 69.057 69.0553 69.057H67.5343V75.83ZM76.0769 77V67.9H81.8619V69.018H77.4549V71.852H81.4719V72.944H77.4549V75.882H81.8619V77H76.0769ZM84.2837 77V67.9H87.2347C88.3007 67.9 89.176 68.0863 89.8607 68.459C90.554 68.8317 91.0653 69.3603 91.3947 70.045C91.7327 70.721 91.9017 71.527 91.9017 72.463C91.9017 73.3903 91.7327 74.1963 91.3947 74.881C91.0653 75.557 90.554 76.0813 89.8607 76.454C89.176 76.818 88.3007 77 87.2347 77H84.2837ZM85.6617 75.83H87.1827C88.006 75.83 88.656 75.6957 89.1327 75.427C89.618 75.1583 89.9647 74.7727 90.1727 74.27C90.3893 73.7673 90.4977 73.165 90.4977 72.463C90.4977 71.761 90.3893 71.1543 90.1727 70.643C89.9647 70.1317 89.618 69.7417 89.1327 69.473C88.656 69.1957 88.006 69.057 87.1827 69.057H85.6617V75.83ZM94.2043 77V67.9H95.5823V77H94.2043ZM102.265 77.156C101.364 77.156 100.584 76.961 99.9249 76.571C99.2749 76.1723 98.7722 75.622 98.4169 74.92C98.0616 74.2093 97.8839 73.3903 97.8839 72.463C97.8839 71.527 98.0616 70.708 98.4169 70.006C98.7722 69.2953 99.2749 68.7407 99.9249 68.342C100.584 67.9433 101.364 67.744 102.265 67.744C103.331 67.744 104.202 68.004 104.878 68.524C105.554 69.044 105.983 69.772 106.165 70.708H104.631C104.51 70.1793 104.25 69.759 103.851 69.447C103.452 69.135 102.919 68.979 102.252 68.979C101.342 68.979 100.623 69.291 100.094 69.915C99.5652 70.5303 99.3009 71.3797 99.3009 72.463C99.3009 73.5377 99.5652 74.3827 100.094 74.998C100.623 75.6133 101.342 75.921 102.252 75.921C102.919 75.921 103.452 75.7737 103.851 75.479C104.25 75.1843 104.51 74.7813 104.631 74.27H106.165C105.983 75.1713 105.554 75.8777 104.878 76.389C104.202 76.9003 103.331 77.156 102.265 77.156ZM107.71 77L111.064 67.9H112.572L115.9 77H114.444L113.664 74.777H109.946L109.166 77H107.71ZM110.336 73.685H113.274L111.805 69.538L110.336 73.685ZM119.09 77V69.018H116.399V67.9H123.146V69.018H120.468V77H119.09ZM125.216 77V67.9H131.001V69.018H126.594V71.852H130.611V72.944H126.594V75.882H131.001V77H125.216ZM133.423 77V67.9H136.374C137.44 67.9 138.315 68.0863 139 68.459C139.693 68.8317 140.204 69.3603 140.534 70.045C140.872 70.721 141.041 71.527 141.041 72.463C141.041 73.3903 140.872 74.1963 140.534 74.881C140.204 75.557 139.693 76.0813 139 76.454C138.315 76.818 137.44 77 136.374 77H133.423ZM134.801 75.83H136.322C137.145 75.83 137.795 75.6957 138.272 75.427C138.757 75.1583 139.104 74.7727 139.312 74.27C139.528 73.7673 139.637 73.165 139.637 72.463C139.637 71.761 139.528 71.1543 139.312 70.643C139.104 70.1317 138.757 69.7417 138.272 69.473C137.795 69.1957 137.145 69.057 136.322 69.057H134.801V75.83ZM149.531 77V69.018H146.84V67.9H153.587V69.018H150.909V77H149.531ZM155.656 77V67.9H161.441V69.018H157.034V71.852H161.051V72.944H157.034V75.882H161.441V77H155.656ZM163.278 77L166.632 67.9H168.14L171.468 77H170.012L169.232 74.777H165.514L164.734 77H163.278ZM165.904 73.685H168.842L167.373 69.538L165.904 73.685ZM173.517 77V67.9H175.142L178.223 73.958L181.291 67.9H182.916V77H181.538V70.279L178.756 75.7H177.69L174.895 70.292V77H173.517ZM189.6 77V67.9H190.978V71.8L194.566 67.9H196.269L192.902 71.527L196.347 77H194.67L191.914 72.58L190.978 73.594V77H189.6ZM198.328 77V67.9H199.706L204.269 74.751V67.9H205.647V77H204.269L199.706 70.149V77H198.328ZM212.473 77.156C211.571 77.156 210.783 76.9567 210.107 76.558C209.431 76.1593 208.902 75.609 208.521 74.907C208.139 74.1963 207.949 73.3773 207.949 72.45C207.949 71.5227 208.139 70.708 208.521 70.006C208.902 69.2953 209.431 68.7407 210.107 68.342C210.783 67.9433 211.571 67.744 212.473 67.744C213.374 67.744 214.163 67.9433 214.839 68.342C215.515 68.7407 216.039 69.2953 216.412 70.006C216.793 70.708 216.984 71.5227 216.984 72.45C216.984 73.3773 216.793 74.1963 216.412 74.907C216.039 75.609 215.515 76.1593 214.839 76.558C214.163 76.9567 213.374 77.156 212.473 77.156ZM212.473 75.921C213.097 75.921 213.638 75.7823 214.098 75.505C214.566 75.2277 214.93 74.829 215.19 74.309C215.45 73.789 215.58 73.1693 215.58 72.45C215.58 71.7307 215.45 71.111 215.19 70.591C214.93 70.071 214.566 69.6723 214.098 69.395C213.638 69.1177 213.097 68.979 212.473 68.979C211.849 68.979 211.303 69.1177 210.835 69.395C210.367 69.6723 210.003 70.071 209.743 70.591C209.491 71.111 209.366 71.7307 209.366 72.45C209.366 73.1693 209.491 73.789 209.743 74.309C210.003 74.829 210.367 75.2277 210.835 75.505C211.303 75.7823 211.849 75.921 212.473 75.921ZM220.79 77.013L218.333 67.9H219.815L221.622 75.44L223.702 67.9H225.223L227.238 75.44L229.045 67.9H230.527L228.031 77H226.419L224.43 69.863L222.376 77L220.79 77.013ZM235.409 77.156C234.742 77.156 234.157 77.039 233.654 76.805C233.151 76.571 232.757 76.2373 232.471 75.804C232.194 75.3707 232.051 74.855 232.042 74.257H233.498C233.507 74.7423 233.676 75.154 234.005 75.492C234.334 75.83 234.798 75.999 235.396 75.999C235.925 75.999 236.336 75.8733 236.631 75.622C236.934 75.362 237.086 75.0327 237.086 74.634C237.086 74.3133 237.012 74.0533 236.865 73.854C236.726 73.6547 236.531 73.49 236.28 73.36C236.037 73.23 235.756 73.113 235.435 73.009C235.114 72.905 234.776 72.7923 234.421 72.671C233.719 72.437 233.19 72.1337 232.835 71.761C232.488 71.3883 232.315 70.8987 232.315 70.292C232.306 69.7807 232.423 69.3343 232.666 68.953C232.917 68.5717 233.264 68.277 233.706 68.069C234.157 67.8523 234.681 67.744 235.279 67.744C235.868 67.744 236.384 67.8523 236.826 68.069C237.277 68.2857 237.628 68.589 237.879 68.979C238.13 69.3603 238.26 69.8067 238.269 70.318H236.813C236.813 70.084 236.752 69.863 236.631 69.655C236.51 69.4383 236.332 69.2607 236.098 69.122C235.864 68.9833 235.578 68.914 235.24 68.914C234.807 68.9053 234.447 69.0137 234.161 69.239C233.884 69.4643 233.745 69.7763 233.745 70.175C233.745 70.5303 233.849 70.8033 234.057 70.994C234.265 71.1847 234.551 71.345 234.915 71.475C235.279 71.5963 235.695 71.7393 236.163 71.904C236.614 72.0513 237.017 72.229 237.372 72.437C237.727 72.645 238.009 72.918 238.217 73.256C238.434 73.594 238.542 74.023 238.542 74.543C238.542 75.0023 238.425 75.4313 238.191 75.83C237.957 76.22 237.606 76.5407 237.138 76.792C236.67 77.0347 236.094 77.156 235.409 77.156ZM244.884 77V67.9H246.262V71.8H250.669V67.9H252.047V77H250.669V72.931H246.262V77H244.884ZM258.877 77.156C257.975 77.156 257.187 76.9567 256.511 76.558C255.835 76.1593 255.306 75.609 254.925 74.907C254.543 74.1963 254.353 73.3773 254.353 72.45C254.353 71.5227 254.543 70.708 254.925 70.006C255.306 69.2953 255.835 68.7407 256.511 68.342C257.187 67.9433 257.975 67.744 258.877 67.744C259.778 67.744 260.567 67.9433 261.243 68.342C261.919 68.7407 262.443 69.2953 262.816 70.006C263.197 70.708 263.388 71.5227 263.388 72.45C263.388 73.3773 263.197 74.1963 262.816 74.907C262.443 75.609 261.919 76.1593 261.243 76.558C260.567 76.9567 259.778 77.156 258.877 77.156ZM258.877 75.921C259.501 75.921 260.042 75.7823 260.502 75.505C260.97 75.2277 261.334 74.829 261.594 74.309C261.854 73.789 261.984 73.1693 261.984 72.45C261.984 71.7307 261.854 71.111 261.594 70.591C261.334 70.071 260.97 69.6723 260.502 69.395C260.042 69.1177 259.501 68.979 258.877 68.979C258.253 68.979 257.707 69.1177 257.239 69.395C256.771 69.6723 256.407 70.071 256.147 70.591C255.895 71.111 255.77 71.7307 255.77 72.45C255.77 73.1693 255.895 73.789 256.147 74.309C256.407 74.829 256.771 75.2277 257.239 75.505C257.707 75.7823 258.253 75.921 258.877 75.921ZM267.194 77.013L264.737 67.9H266.219L268.026 75.44L270.106 67.9H271.627L273.642 75.44L275.449 67.9H276.931L274.435 77H272.823L270.834 69.863L268.78 77L267.194 77.013Z" fill="white" fill-opacity="0.6"></path><defs><linearGradient id="paint0_linear_189_23" x1="404" y1="55" x2="-6.65715e-07" y2="55" gradientUnits="userSpaceOnUse"><stop stop-color="#6083FF"></stop><stop offset="1" stop-color="#5F5DFF"></stop></linearGradient></defs></svg>