<svg xmlns="http://www.w3.org/2000/svg" width="34" height="34" viewBox="0 0 34 34" fill="none"><path d="M31.8 15.8H29.5714C28.9429 9.8 24.2 5 18.2 4.42857V2.2C18.2 1.51429 17.6857 1 17 1C16.3143 1 15.8 1.51429 15.8 2.2V4.42857C9.8 5 5 9.8 4.42857 15.8H2.2C1.51429 15.8 1 16.3143 1 17C1 17.6857 1.51429 18.2 2.2 18.2H4.42857C5 24.2 9.8 29 15.8 29.5714V31.8C15.8 32.4857 16.3143 33 17 33C17.6857 33 18.2 32.4857 18.2 31.8V29.5714C24.2 29 29 24.2 29.5714 18.2H31.8C32.4857 18.2 33 17.6857 33 17C33 16.3143 32.4286 15.8 31.8 15.8ZM25 18.2H27.1143C26.5429 22.8857 22.8286 26.6 18.2 27.1143V25C18.2 24.3143 17.6857 23.8 17 23.8C16.3143 23.8 15.8 24.3143 15.8 25V27.1143C11.1143 26.5429 7.4 22.8286 6.88571 18.2H9C9.68571 18.2 10.2 17.6857 10.2 17C10.2 16.3143 9.68571 15.8 9 15.8H6.88571C7.45714 11.1143 11.1714 7.4 15.8 6.88572V9C15.8 9.68571 16.3143 10.2 17 10.2C17.6857 10.2 18.2 9.68571 18.2 9V6.88572C22.8857 7.45714 26.6 11.1714 27.1143 15.8H25C24.3143 15.8 23.8 16.3143 23.8 17C23.8 17.6857 24.3714 18.2 25 18.2Z" fill="url(#paint0_linear_65_167)" stroke="#F0F3FF" stroke-width="0.3"></path><defs><linearGradient id="paint0_linear_65_167" x1="33" y1="17" x2="1" y2="17" gradientUnits="userSpaceOnUse"><stop stop-color="#6083FF"></stop><stop offset="1" stop-color="#5F5DFF"></stop></linearGradient></defs></svg>