<svg xmlns="http://www.w3.org/2000/svg" width="28" height="26" viewBox="0 0 28 26" fill="none"><path d="M2.64021 12.9985C1.61992 11.7716 1 10.1959 1 8.47825C1 4.57792 4.19001 1.375 8.10326 1.375H14.5608C18.4611 1.375 21.664 4.57792 21.664 8.47825C21.664 12.3786 18.474 15.5815 14.5608 15.5815H11.332" stroke="url(#paint0_linear_68_210)" stroke-width="2" stroke-linecap="round" stroke-linejoin="round"></path><path d="M25.1899 12.9984C26.2102 14.2253 26.8301 15.801 26.8301 17.5187C26.8301 21.419 23.6401 24.6219 19.7268 24.6219H13.2693C9.369 24.6219 6.16608 21.419 6.16608 17.5187C6.16608 13.6183 9.35609 10.4154 13.2693 10.4154H16.4981" stroke="url(#paint1_linear_68_210)" stroke-width="2" stroke-linecap="round" stroke-linejoin="round"></path><defs><linearGradient id="paint0_linear_68_210" x1="21.664" y1="8.47825" x2="1" y2="8.47825" gradientUnits="userSpaceOnUse"><stop stop-color="#6083FF"></stop><stop offset="1" stop-color="#5F5DFF"></stop></linearGradient><linearGradient id="paint1_linear_68_210" x1="26.8301" y1="17.5187" x2="6.16608" y2="17.5187" gradientUnits="userSpaceOnUse"><stop stop-color="#6083FF"></stop><stop offset="1" stop-color="#5F5DFF"></stop></linearGradient></defs></svg>