<svg xmlns="http://www.w3.org/2000/svg" width="16" height="16" viewBox="0 0 16 16" fill="none"><path d="M14.4236 10.8936L12.1669 10.6359C11.9016 10.6048 11.6326 10.6341 11.3802 10.7219C11.1279 10.8096 10.8987 10.9533 10.7098 11.1424L9.07508 12.7771C6.55292 11.4944 4.50289 9.44435 3.22016 6.92219L4.8638 5.27855C5.24584 4.89651 5.43241 4.36344 5.37022 3.82148L5.11257 1.58258C5.0622 1.14917 4.8542 0.749415 4.52818 0.459434C4.20215 0.169452 3.78087 0.00949246 3.34454 0.010011H1.80752C0.803564 0.010011 -0.0315844 0.845159 0.0306075 1.84911C0.501489 9.43652 6.56964 15.4958 14.1482 15.9667C15.1521 16.0289 15.9873 15.1937 15.9873 14.1898V12.6527C15.9961 11.7554 15.3209 11.0002 14.4236 10.8936Z" fill="#0B3954"></path></svg>