<svg xmlns="http://www.w3.org/2000/svg" width="30" height="30" viewBox="0 0 30 30" fill="none"><path d="M14.7318 9.50746C13.8904 9.50746 13.068 9.25797 12.3685 8.79056C11.669 8.32316 11.1238 7.65883 10.8018 6.88157C10.4799 6.1043 10.3956 5.249 10.5598 4.42386C10.7239 3.59872 11.129 2.84079 11.7239 2.2459C12.3188 1.651 13.0768 1.24586 13.9019 1.08173C14.727 0.9176 15.5823 1.00186 16.3596 1.32381C17.1368 1.64577 17.8012 2.19096 18.2686 2.89048C18.736 3.59 18.9855 4.41243 18.9855 5.25374C18.9843 6.38153 18.5358 7.4628 17.7383 8.26027C16.9408 9.05774 15.8595 9.50627 14.7318 9.50746ZM14.7318 2.79106C14.2447 2.79106 13.7685 2.93547 13.3636 3.20608C12.9586 3.47668 12.6429 3.86132 12.4565 4.31132C12.2701 4.76132 12.2214 5.25647 12.3164 5.73418C12.4114 6.2119 12.646 6.65068 12.9904 6.99509C13.3348 7.33951 13.7736 7.57406 14.2513 7.66908C14.729 7.76411 15.2242 7.71533 15.6742 7.52894C16.1242 7.34255 16.5088 7.02687 16.7794 6.62189C17.05 6.2169 17.1944 5.74081 17.1944 5.25374C17.194 4.60074 16.9343 3.97461 16.4726 3.51287C16.0109 3.05113 15.3848 2.79153 14.7318 2.79106Z" fill="url(#paint0_linear_68_212)" stroke="url(#paint1_linear_68_212)" stroke-width="0.15"></path><path d="M4.43329 29.9193C3.59198 29.9193 2.76957 29.6699 2.07005 29.2024C1.37053 28.735 0.825321 28.0707 0.503367 27.2935C0.181413 26.5162 0.097169 25.6609 0.2613 24.8357C0.42543 24.0106 0.830558 23.2527 1.42545 22.6578C2.02034 22.0629 2.77829 21.6578 3.60343 21.4937C4.42857 21.3295 5.28386 21.4137 6.06112 21.7357C6.83839 22.0577 7.50272 22.6028 7.97013 23.3024C8.43753 24.0019 8.68701 24.8243 8.68701 25.6656C8.68583 26.7934 8.23729 27.8747 7.43982 28.6722C6.64235 29.4696 5.56108 29.9182 4.43329 29.9193ZM4.43329 23.2029C3.94622 23.2029 3.47009 23.3474 3.0651 23.618C2.66012 23.8886 2.34447 24.2732 2.15808 24.7232C1.97168 25.1732 1.92291 25.6684 2.01793 26.1461C2.11296 26.6238 2.3475 27.0626 2.69191 27.407C3.03632 27.7514 3.47513 27.9859 3.95285 28.081C4.43056 28.176 4.92573 28.1272 5.37572 27.9408C5.82572 27.7544 6.21033 27.4388 6.48094 27.0338C6.75154 26.6288 6.89597 26.1527 6.89597 25.6656C6.8955 25.0126 6.63588 24.3865 6.17414 23.9248C5.7124 23.463 5.08629 23.2034 4.43329 23.2029Z" fill="url(#paint2_linear_68_212)" stroke="url(#paint3_linear_68_212)" stroke-width="0.15"></path><path d="M25.576 29.9193C24.7347 29.9193 23.9123 29.6699 23.2127 29.2024C22.5132 28.735 21.968 28.0707 21.6461 27.2935C21.3241 26.5162 21.2399 25.6609 21.404 24.8357C21.5681 24.0106 21.9733 23.2527 22.5682 22.6578C23.163 22.0629 23.921 21.6578 24.7461 21.4937C25.5713 21.3295 26.4265 21.4137 27.2038 21.7357C27.9811 22.0577 28.6454 22.6028 29.1128 23.3024C29.5802 24.0019 29.8297 24.8243 29.8297 25.6656C29.8283 26.7933 29.3797 27.8745 28.5822 28.6719C27.7848 29.4693 26.7037 29.9179 25.576 29.9193ZM25.576 23.2029C25.0889 23.2029 24.6128 23.3474 24.2078 23.618C23.8028 23.8886 23.4872 24.2732 23.3008 24.7232C23.1144 25.1732 23.0656 25.6684 23.1606 26.1461C23.2556 26.6238 23.4902 27.0626 23.8346 27.407C24.179 27.7514 24.6178 27.9859 25.0955 28.081C25.5732 28.176 26.0684 28.1272 26.5184 27.9408C26.9684 27.7544 27.353 27.4388 27.6236 27.0338C27.8942 26.6288 28.0387 26.1527 28.0387 25.6656C28.0382 25.0126 27.7786 24.3865 27.3168 23.9248C26.8551 23.463 26.229 23.2034 25.576 23.2029Z" fill="url(#paint4_linear_68_212)" stroke="url(#paint5_linear_68_212)" stroke-width="0.15"></path><path d="M3.87926 22.5333C3.74549 22.533 3.61353 22.5023 3.49329 22.4437C3.3872 22.3929 3.29216 22.3217 3.21359 22.2342C3.13502 22.1467 3.07448 22.0445 3.03539 21.9336C2.99631 21.8226 2.97945 21.7051 2.9858 21.5876C2.99215 21.4702 3.02158 21.3552 3.0724 21.2491L11.4363 7.87216C11.5469 7.67226 11.7298 7.52222 11.9475 7.45277C12.1652 7.38332 12.4012 7.3997 12.6072 7.49857C12.8132 7.59745 12.9736 7.77136 13.0556 7.98465C13.1376 8.19794 13.1349 8.43446 13.0482 8.64585L4.68343 22.022C4.61111 22.1742 4.49728 22.303 4.35502 22.3935C4.21275 22.4839 4.04784 22.5324 3.87926 22.5333Z" fill="url(#paint6_linear_68_212)" stroke="url(#paint7_linear_68_212)" stroke-width="0.15"></path><path d="M25.1313 22.5334C24.9637 22.534 24.7993 22.4876 24.6569 22.3994C24.5144 22.3112 24.3995 22.1849 24.3253 22.0346L16.7178 8.65763C16.6649 8.55211 16.6333 8.43718 16.6249 8.31941C16.6166 8.20163 16.6316 8.08335 16.6691 7.9714C16.7066 7.85945 16.7659 7.75602 16.8435 7.66706C16.9212 7.57811 17.0156 7.50538 17.1215 7.45308C17.2273 7.40077 17.3425 7.36992 17.4603 7.36229C17.5781 7.35465 17.6963 7.37037 17.808 7.40858C17.9197 7.44679 18.0228 7.50672 18.1113 7.58491C18.1997 7.6631 18.2719 7.75804 18.3235 7.86421L25.9354 21.2403C25.9876 21.3457 26.0185 21.4604 26.0264 21.5777C26.0342 21.6951 26.0189 21.8129 25.9812 21.9243C25.9435 22.0358 25.8843 22.1387 25.8068 22.2273C25.7293 22.3158 25.6352 22.3882 25.5298 22.4403C25.406 22.5021 25.2695 22.534 25.1313 22.5334Z" fill="url(#paint8_linear_68_212)" stroke="url(#paint9_linear_68_212)" stroke-width="0.15"></path><path d="M22.2174 26.5584H7.79152C7.55401 26.5584 7.32623 26.464 7.15829 26.2961C6.99034 26.1281 6.896 25.9004 6.896 25.6629C6.896 25.4253 6.99034 25.1976 7.15829 25.0296C7.32623 24.8617 7.55401 24.7673 7.79152 24.7673H22.2174C22.4549 24.7673 22.6827 24.8617 22.8507 25.0296C23.0186 25.1976 23.113 25.4253 23.113 25.6629C23.113 25.9004 23.0186 26.1281 22.8507 26.2961C22.6827 26.464 22.4549 26.5584 22.2174 26.5584Z" fill="url(#paint10_linear_68_212)" stroke="url(#paint11_linear_68_212)" stroke-width="0.15"></path><defs><linearGradient id="paint0_linear_68_212" x1="18.9855" y1="5.25373" x2="10.478" y2="5.25373" gradientUnits="userSpaceOnUse"><stop stop-color="#6083FF"></stop><stop offset="1" stop-color="#5F5DFF"></stop></linearGradient><linearGradient id="paint1_linear_68_212" x1="18.9855" y1="5.25373" x2="10.478" y2="5.25373" gradientUnits="userSpaceOnUse"><stop stop-color="#6083FF"></stop><stop offset="1" stop-color="#5F5DFF"></stop></linearGradient><linearGradient id="paint2_linear_68_212" x1="8.68701" y1="25.6656" x2="0.179565" y2="25.6656" gradientUnits="userSpaceOnUse"><stop stop-color="#6083FF"></stop><stop offset="1" stop-color="#5F5DFF"></stop></linearGradient><linearGradient id="paint3_linear_68_212" x1="8.68701" y1="25.6656" x2="0.179565" y2="25.6656" gradientUnits="userSpaceOnUse"><stop stop-color="#6083FF"></stop><stop offset="1" stop-color="#5F5DFF"></stop></linearGradient><linearGradient id="paint4_linear_68_212" x1="29.8297" y1="25.6656" x2="21.3223" y2="25.6656" gradientUnits="userSpaceOnUse"><stop stop-color="#6083FF"></stop><stop offset="1" stop-color="#5F5DFF"></stop></linearGradient><linearGradient id="paint5_linear_68_212" x1="29.8297" y1="25.6656" x2="21.3223" y2="25.6656" gradientUnits="userSpaceOnUse"><stop stop-color="#6083FF"></stop><stop offset="1" stop-color="#5F5DFF"></stop></linearGradient><linearGradient id="paint6_linear_68_212" x1="14.1152" y1="15.9718" x2="4.9845" y2="15.9718" gradientUnits="userSpaceOnUse"><stop stop-color="#6083FF"></stop><stop offset="1" stop-color="#5F5DFF"></stop></linearGradient><linearGradient id="paint7_linear_68_212" x1="14.1152" y1="15.9718" x2="4.9845" y2="15.9718" gradientUnits="userSpaceOnUse"><stop stop-color="#6083FF"></stop><stop offset="1" stop-color="#5F5DFF"></stop></linearGradient><linearGradient id="paint8_linear_68_212" x1="25.0284" y1="15.9469" x2="15.6227" y2="15.9469" gradientUnits="userSpaceOnUse"><stop stop-color="#6083FF"></stop><stop offset="1" stop-color="#5F5DFF"></stop></linearGradient><linearGradient id="paint9_linear_68_212" x1="25.0284" y1="15.9469" x2="15.6227" y2="15.9469" gradientUnits="userSpaceOnUse"><stop stop-color="#6083FF"></stop><stop offset="1" stop-color="#5F5DFF"></stop></linearGradient><linearGradient id="paint10_linear_68_212" x1="23.113" y1="25.6629" x2="6.896" y2="25.6629" gradientUnits="userSpaceOnUse"><stop stop-color="#6083FF"></stop><stop offset="1" stop-color="#5F5DFF"></stop></linearGradient><linearGradient id="paint11_linear_68_212" x1="23.113" y1="25.6629" x2="6.896" y2="25.6629" gradientUnits="userSpaceOnUse"><stop stop-color="#6083FF"></stop><stop offset="1" stop-color="#5F5DFF"></stop></linearGradient></defs></svg>