<svg width="15" height="19" viewBox="0 0 15 19" fill="none" xmlns="http://www.w3.org/2000/svg">
<path d="M7.5 0L0 3.33333V8.33333C0 12.9583 3.2 17.2833 7.5 18.3333C11.8 17.2833 15 12.9583 15 8.33333V3.33333L7.5 0ZM7.5 4C8.66667 4 9.83333 4.91667 9.83333 6.08333V8.33333C10.3333 8.33333 10.8333 8.83333 10.8333 9.41667V12.3333C10.8333 12.8333 10.3333 13.3333 9.75 13.3333H5.16667C4.66667 13.3333 4.16667 12.8333 4.16667 12.25V9.33333C4.16667 8.83333 4.66667 8.33333 5.16667 8.33333V6.08333C5.16667 4.91667 6.33333 4 7.5 4ZM7.5 5C6.83333 5 6.25 5.41667 6.25 6.08333V8.33333H8.75V6.08333C8.75 5.41667 8.16667 5 7.5 5Z" fill="#263238"/>
</svg>
