<svg xmlns="http://www.w3.org/2000/svg" width="46" height="27" viewBox="0 0 46 27" fill="none"><path d="M0 5.31201C0 6.18601 0.644001 6.83001 1.472 6.83001H7.084V7.88801H6.992C6.164 7.88801 5.52 8.53201 5.52 9.36001C5.52 10.188 6.164 10.832 6.992 10.832H7.084V11.89H3.036C2.208 11.89 1.61 12.534 1.61 13.362C1.61 14.19 2.254 14.834 3.082 14.834H7.13V20.952C7.13 22.194 8.142 23.206 9.384 23.206H13.432C13.984 24.816 15.318 26.012 17.066 26.334C19.412 26.84 21.712 25.46 22.448 23.206H31.556C31.694 23.206 31.878 23.206 32.062 23.16H32.108C32.2 23.206 32.246 23.206 32.338 23.206H33.948C34.5 24.816 35.834 26.012 37.582 26.334C37.858 26.38 38.134 26.426 38.456 26.426C40.48 26.426 42.274 25.092 42.918 23.16H44.528C45.31 23.16 46 22.516 46 21.688V13.408C46 12.58 45.356 11.936 44.528 11.936H43.148L40.342 7.014C40.112 6.554 39.606 6.278 39.054 6.278H33.764V2.414C33.764 1.172 32.752 0.160004 31.51 0.160004H9.384C8.142 0.160004 7.13 1.172 7.13 2.414V3.886H1.518C0.690001 3.88601 0.0460002 4.48401 0 5.31201ZM18.4 7.934H10.074V6.876H12.88C13.708 6.876 14.352 6.232 14.352 5.404C14.352 4.622 13.754 3.932 12.972 3.932H10.166V3.15L30.866 3.104L30.912 20.124L22.448 20.17C21.896 18.56 20.562 17.364 18.814 17.042C17.618 16.812 16.33 17.042 15.272 17.778C14.398 18.376 13.754 19.204 13.432 20.216H10.166V14.88H14.49C15.318 14.88 15.962 14.236 15.962 13.408C15.962 13.04 15.824 12.672 15.548 12.396C15.318 12.12 14.904 11.936 14.49 11.936H10.12V10.878H18.4C19.228 10.878 19.872 10.234 19.872 9.406C19.872 8.578 19.228 7.888 18.4 7.934ZM19.688 21.688C19.688 22.654 18.86 23.482 17.894 23.482C16.928 23.482 16.1 22.7 16.1 21.688C16.1 20.722 16.882 19.894 17.894 19.894C18.86 19.894 19.688 20.676 19.688 21.688ZM40.204 21.688C40.204 22.7 39.422 23.482 38.41 23.482C37.444 23.482 36.616 22.7 36.616 21.688C36.616 20.722 37.398 19.894 38.41 19.894C39.376 19.894 40.158 20.676 40.204 21.688ZM35.742 17.732C34.868 18.33 34.224 19.158 33.902 20.17H33.81V14.834H43.056V20.124H42.918C42.366 18.514 41.032 17.318 39.284 16.996C38.088 16.72 36.846 16.996 35.742 17.732ZM38.18 9.314L39.698 11.936H33.81V9.314H38.18Z" fill="#6183FF"></path></svg>