<svg xmlns="http://www.w3.org/2000/svg" width="34" height="47" viewBox="0 0 34 47" fill="none"><path d="M30.1813 25.8485L30.1922 25.3729C30.1995 24.9894 30.3999 24.6424 30.7259 24.4452L31.1339 24.1996C33.2633 22.9067 33.9919 20.1822 32.7897 17.9927L32.5583 17.5801C32.3762 17.244 32.3762 16.8423 32.5566 16.5099L32.8298 16.0196C33.9719 13.8494 33.2487 11.1742 31.1922 9.93426L30.7277 9.64297C30.398 9.44398 30.1976 9.09607 30.1904 8.70991L30.1794 8.23963C30.1303 5.7453 28.1411 3.75025 25.651 3.6982L25.1775 3.68814C24.795 3.67995 24.4488 3.47908 24.2503 3.15036L24.0062 2.74595C22.722 0.613094 20.0025 -0.119225 17.8175 1.08325L17.404 1.31149C17.0689 1.49597 16.6663 1.49691 16.3312 1.31067L15.9204 1.08512C15.3893 0.791963 14.8165 0.609351 14.2163 0.541851C14.0023 0.518103 13.7883 0.516232 13.5642 0.516232C11.9794 0.562791 10.5458 1.39735 9.7298 2.74864L9.48661 3.15223C9.28905 3.48096 8.94107 3.68182 8.55587 3.69001L8.08594 3.70007C5.59675 3.75294 3.60666 5.74705 3.55659 8.23881L3.54563 8.71353C3.53746 9.09794 3.33709 9.44492 3.00837 9.64391L2.60671 9.88864C0.476349 11.1814 -0.252286 13.9069 0.947208 16.0936L1.17581 16.5082C1.36077 16.8451 1.36077 17.2468 1.17581 17.5837L0.949075 17.9964C-0.251352 20.184 0.478216 22.9094 2.60939 24.2014L3.01199 24.4443C3.33896 24.6424 3.53932 24.9911 3.54749 25.3792L3.55846 25.8468C3.59219 27.4755 4.49014 28.9547 5.89093 29.76L1.45821 39.389C1.26053 39.8181 1.24233 40.2965 1.40535 40.7366C1.5693 41.1803 1.89266 41.5309 2.31252 41.7244C2.54474 41.8322 2.80065 41.8888 3.05388 41.8888H8.65599L11.8128 45.8441C12.1051 46.2111 12.5223 46.4412 12.9895 46.4942C13.454 46.5472 13.9167 46.4138 14.2828 46.1199C14.5032 45.9427 14.6798 45.7108 14.7947 45.4497L16.8985 40.6306L19.0006 45.446C19.1882 45.877 19.5307 46.2094 19.9788 46.3882C20.1882 46.4668 20.3996 46.5051 20.6108 46.5051C20.8494 46.5051 21.0844 46.4558 21.3157 46.3572C21.5763 46.2422 21.8057 46.0651 21.9843 45.8441L25.1392 41.8888H30.7422C31.7114 41.8888 32.4982 41.0981 32.4982 40.1267C32.4982 39.871 32.4418 39.6153 32.3362 39.389L27.8934 29.7326C29.2669 28.9218 30.1485 27.4518 30.1813 25.8485ZM12.7418 41.3666L10.8728 39.0255C10.5386 38.6074 10.0386 38.3663 9.50027 38.3663H5.80073L9.31729 30.7242C9.38287 30.7881 9.44017 30.8593 9.48848 30.9397L9.73167 31.3433C11.0204 33.4761 13.7409 34.2066 15.9231 33.0068L16.3365 32.7767C16.3976 32.742 16.4614 32.7146 16.527 32.6945L12.7418 41.3666ZM27.9954 38.3663H24.294C23.7549 38.3663 23.2539 38.6074 22.9224 39.0255L21.0553 41.3666L18.8148 36.2334L19.9806 33.5656C20.0061 33.5674 20.0298 33.5674 20.0535 33.5674C21.6601 33.5674 23.1756 32.7274 24.008 31.3433L24.2503 30.9397C24.3086 30.8447 24.3796 30.7607 24.4616 30.6894L27.9954 38.3663ZM26.6784 25.3035L26.6693 25.7773C26.6566 26.3762 26.1775 26.8547 25.5763 26.8657L25.1064 26.8766C23.5126 26.9132 22.0699 27.7495 21.2465 29.1118L21.0025 29.5171C20.6837 30.0431 20.0461 30.2165 19.5142 29.9189L19.1026 29.6924C18.404 29.3053 17.6372 29.1099 16.8703 29.1099C16.1034 29.1099 15.3366 29.3053 14.6379 29.6924L14.2245 29.9189C13.7053 30.2128 13.0514 30.0357 12.7382 29.5153L12.4931 29.1135C11.6689 27.7495 10.2262 26.9132 8.63323 26.8766L8.15782 26.8657C7.56035 26.8547 7.08226 26.3745 7.06942 25.7755L7.06032 25.3035C7.02846 23.7065 6.19422 22.2593 4.83077 21.4312L4.42643 21.1847C3.91368 20.8742 3.73782 20.2205 4.02652 19.6947L4.29165 19.208C5.02203 17.8239 5.00745 16.1785 4.25337 14.8071L4.02652 14.3945C3.73875 13.8685 3.91368 13.213 4.42643 12.9017L4.82809 12.6579C6.19154 11.8315 7.02578 10.3844 7.05857 8.78747L7.06942 8.31275C7.08226 7.71285 7.56129 7.23263 8.15876 7.21976L8.63055 7.21064C10.2226 7.1787 11.6661 6.34332 12.4931 4.97648L12.739 4.57113C12.8912 4.31821 13.1252 4.13923 13.403 4.06529C13.4695 4.04704 13.5368 4.03417 13.597 4.02961C13.8056 4.02598 14.0378 4.06611 14.2254 4.16929L14.6371 4.39671C16.036 5.16915 17.7036 5.16822 19.0989 4.39764L19.5125 4.17023C20.0516 3.86981 20.6801 4.04061 21.0007 4.56926L21.2448 4.97367C22.0699 6.34145 23.5126 7.17695 25.1028 7.20888L25.5763 7.21976C26.1757 7.23263 26.6547 7.71285 26.6675 8.31181L26.6766 8.78653C26.7112 10.3825 27.5454 11.8298 28.9079 12.6588L29.3124 12.9017C29.8223 13.213 29.9973 13.8676 29.7113 14.3908L29.4817 14.808C28.7295 16.1813 28.7149 17.8275 29.4508 19.2227L29.7113 19.6938C30.0009 20.2188 29.8261 20.8734 29.3105 21.1857L28.9098 21.4304C27.5473 22.2566 26.713 23.7039 26.6784 25.3035Z" fill="#6183FF"></path><path d="M24.5927 11.5869C24.1573 11.5504 23.7055 11.7101 23.4068 12.0069L14.4494 20.7136L9.89193 16.0252C9.59857 15.7312 9.18699 15.5695 8.73153 15.5695C8.23605 15.5695 7.81992 15.7895 7.61127 16.1439C7.34358 16.4881 7.206 16.9346 7.24334 17.3436C7.28617 17.7335 7.46377 18.0668 7.69238 18.2238L13.3146 24.0462C13.6114 24.3448 13.9913 24.5018 14.413 24.5018C14.8092 24.5018 15.1881 24.3403 15.4768 24.049L25.5089 14.2429C25.8003 13.9489 25.9625 13.5353 25.9625 13.0797C25.9625 12.6771 25.7986 12.2954 25.5654 12.1028C25.345 11.8069 25.008 11.6289 24.5927 11.5869Z" fill="#6183FF"></path></svg>