<svg xmlns="http://www.w3.org/2000/svg" width="44" height="47" viewBox="0 0 44 47" fill="none"><path d="M35.3167 28.9955C33.0954 28.9955 30.9666 29.8285 29.2543 31.4945C29.1155 31.6334 28.9304 31.8185 28.7453 32.0499L17.6386 25.247C17.87 24.5066 17.9626 23.7662 17.9626 22.9794C17.9626 22.1927 17.87 21.4523 17.6386 20.7118L28.7916 14.0016C30.4113 15.9452 32.8177 17.1022 35.3167 17.1022C40.037 17.1022 43.8318 13.2611 43.8318 8.58708C43.8318 3.91304 40.037 0.071991 35.3167 0.071991C30.5964 0.071991 26.8016 3.91304 26.8016 8.63336C26.8016 9.28125 26.8942 10.0217 27.0793 10.7621L15.8338 17.5187C14.2604 15.6213 11.8539 14.5106 9.35493 14.5106C4.63461 14.5106 0.839844 18.3517 0.839844 23.0257C0.839844 27.746 4.68089 31.5408 9.35493 31.5408C11.8539 31.5408 14.2141 30.4301 15.8338 28.5328L27.033 35.3356C26.8479 35.9835 26.8016 36.6776 26.8016 37.5106C26.8016 39.732 27.6346 41.8607 29.3006 43.573C30.9203 45.1927 33.0491 46.072 35.363 46.072C37.5843 46.072 39.7131 45.239 41.4254 43.573C43.0451 41.9533 43.9244 39.8245 43.9244 37.5106C43.9244 35.2893 43.0914 33.1605 41.4254 31.4482C39.7131 29.8748 37.5843 28.9955 35.3167 28.9955ZM40.1759 37.5569C40.1759 38.8064 39.7131 40.0096 38.7875 40.9814C37.9083 41.8607 36.705 42.3698 35.363 42.3698C34.1135 42.3698 32.9103 41.907 31.9384 40.9814C31.0592 40.1022 30.5501 38.899 30.5501 37.5569C30.5501 36.3074 31.0129 35.1042 31.9384 34.1324C32.8177 33.2531 34.0209 32.744 35.363 32.744C36.6125 32.744 37.8157 33.2068 38.7875 34.1324C39.7131 35.1042 40.1759 36.3074 40.1759 37.5569ZM30.5501 8.63336C30.5501 5.99553 32.6789 3.82048 35.363 3.82048C38.0008 3.82048 40.2221 5.99553 40.2221 8.63336C40.2221 11.2712 38.0934 13.4462 35.4093 13.4462C32.7714 13.4 30.5501 11.2249 30.5501 8.63336ZM14.2141 23.072C14.2141 25.7098 12.0853 27.8849 9.40121 27.8849C6.71711 27.8849 4.63461 25.7098 4.63461 23.072C4.63461 20.4342 6.76339 18.3054 9.40121 18.3054C12.039 18.3054 14.2141 20.4342 14.2141 23.072Z" fill="#6183FF"></path></svg>