<svg xmlns="http://www.w3.org/2000/svg" width="37" height="33" viewBox="0 0 37 33" fill="none"><path d="M5.89223 2.53846V30.4615H21.3208V2.53846H5.89223ZM4.60652 0H22.6065C22.9475 0 23.2745 0.133722 23.5157 0.371748C23.7568 0.609775 23.8922 0.932608 23.8922 1.26923V31.7307C23.8922 32.0673 23.7568 32.3902 23.5157 32.6282C23.2745 32.8662 22.9475 32.9999 22.6065 32.9999H4.60652C4.26552 32.9999 3.9385 32.8662 3.69738 32.6282C3.45626 32.3902 3.3208 32.0673 3.3208 31.7307V1.26923C3.3208 0.932608 3.45626 0.609775 3.69738 0.371748C3.9385 0.133722 4.26552 0 4.60652 0Z" fill="url(#paint0_linear_402_880)"></path><path d="M8.46429 7.61536H18.75V10.1538H8.46429V7.61536ZM8.46429 15.2307H18.75V17.7692H8.46429V15.2307ZM8.46429 22.8461H18.75V25.3846H8.46429V22.8461ZM23.8929 17.7692H29.0357V20.3076H23.8929V17.7692ZM23.8929 22.8461H29.0357V25.3846H23.8929V22.8461ZM0.75 30.4615H36.75V32.9999H0.75V30.4615Z" fill="url(#paint1_linear_402_880)"></path><path d="M23.8922 12.6923V30.4615H31.6065V12.6923H23.8922ZM22.6065 10.1538H32.8922C33.2332 10.1538 33.5602 10.2875 33.8014 10.5256C34.0425 10.7636 34.1779 11.0864 34.1779 11.423V31.7307C34.1779 32.0673 34.0425 32.3901 33.8014 32.6282C33.5602 32.8662 33.2332 32.9999 32.8922 32.9999H22.6065C22.2655 32.9999 21.9385 32.8662 21.6974 32.6282C21.4563 32.3901 21.3208 32.0673 21.3208 31.7307V11.423C21.3208 11.0864 21.4563 10.7636 21.6974 10.5256C21.9385 10.2875 22.2655 10.1538 22.6065 10.1538Z" fill="url(#paint2_linear_402_880)"></path><defs><linearGradient id="paint0_linear_402_880" x1="23.8922" y1="16.5" x2="3.3208" y2="16.5" gradientUnits="userSpaceOnUse"><stop stop-color="#6083FF"></stop><stop offset="1" stop-color="#5F5DFF"></stop></linearGradient><linearGradient id="paint1_linear_402_880" x1="36.75" y1="20.3076" x2="0.75" y2="20.3076" gradientUnits="userSpaceOnUse"><stop stop-color="#6083FF"></stop><stop offset="1" stop-color="#5F5DFF"></stop></linearGradient><linearGradient id="paint2_linear_402_880" x1="34.1779" y1="21.5769" x2="21.3208" y2="21.5769" gradientUnits="userSpaceOnUse"><stop stop-color="#6083FF"></stop><stop offset="1" stop-color="#5F5DFF"></stop></linearGradient></defs></svg>