<svg xmlns="http://www.w3.org/2000/svg" width="40" height="40" viewBox="0 0 40 40" fill="none"><path d="M38.1115 31.5599C38.1115 32.2079 37.9675 32.8739 37.6615 33.5219C37.3555 34.1698 36.9595 34.7818 36.4375 35.3578C35.5556 36.3298 34.5836 37.0318 33.4856 37.4817C32.4057 37.9317 31.2357 38.1657 29.9757 38.1657C28.1398 38.1657 26.1778 37.7337 24.1079 36.8518C22.0379 35.9698 19.968 34.7818 17.9161 33.2879C15.8461 31.7759 13.8842 30.102 12.0122 28.248C10.1583 26.3761 8.48433 24.4141 6.99037 22.3622C5.51441 20.3102 4.32644 18.2583 3.46247 16.2244C2.59849 14.1724 2.1665 12.2105 2.1665 10.3385C2.1665 9.11455 2.3825 7.94458 2.81449 6.86462C3.24647 5.76665 3.93045 4.75867 4.88443 3.8587C6.0364 2.72473 7.29636 2.16675 8.62832 2.16675C9.13231 2.16675 9.6363 2.27475 10.0863 2.49074C10.5543 2.70673 10.9683 3.03072 11.2922 3.49871L15.4681 9.38454C15.7921 9.83453 16.0261 10.2485 16.1881 10.6445C16.3501 11.0225 16.4401 11.4005 16.4401 11.7425C16.4401 12.1745 16.3141 12.6065 16.0621 13.0204C15.8281 13.4344 15.4861 13.8664 15.0541 14.2984L13.6862 15.7204C13.4882 15.9184 13.3982 16.1524 13.3982 16.4403C13.3982 16.5843 13.4162 16.7103 13.4522 16.8543C13.5062 16.9983 13.5602 17.1063 13.5962 17.2143C13.9202 17.8083 14.4782 18.5823 15.2701 19.5183C16.0801 20.4542 16.9441 21.4082 17.8801 22.3622C18.852 23.3161 19.788 24.1981 20.742 25.0081C21.678 25.8001 22.4519 26.3401 23.0639 26.6641C23.1539 26.7001 23.2619 26.7541 23.3879 26.808C23.5319 26.862 23.6759 26.88 23.8379 26.88C24.1439 26.88 24.3779 26.7721 24.5759 26.5741L25.9438 25.2241C26.3938 24.7741 26.8258 24.4321 27.2398 24.2161C27.6538 23.9641 28.0678 23.8381 28.5178 23.8381C28.8598 23.8381 29.2197 23.9101 29.6157 24.0721C30.0117 24.2341 30.4257 24.4681 30.8757 24.7741L36.8335 29.004C37.3015 29.328 37.6255 29.706 37.8235 30.156C38.0035 30.6059 38.1115 31.0559 38.1115 31.5599Z" stroke="url(#paint0_linear_402_889)" stroke-width="2.7" stroke-miterlimit="10"></path><path d="M31.8672 14.7665C31.8672 13.6865 31.0212 12.0306 29.7613 10.6806C28.6093 9.43865 27.0793 8.46667 25.5674 8.46667" stroke="url(#paint1_linear_402_889)" stroke-width="2.7" stroke-linecap="round" stroke-linejoin="round"></path><path d="M38.167 14.7664C38.167 7.80059 32.5332 2.16675 25.5674 2.16675" stroke="url(#paint2_linear_402_889)" stroke-width="2.7" stroke-linecap="round" stroke-linejoin="round"></path><defs><linearGradient id="paint0_linear_402_889" x1="38.1115" y1="20.1662" x2="2.1665" y2="20.1662" gradientUnits="userSpaceOnUse"><stop stop-color="#6083FF"></stop><stop offset="1" stop-color="#5F5DFF"></stop></linearGradient><linearGradient id="paint1_linear_402_889" x1="31.8672" y1="11.6166" x2="25.5674" y2="11.6166" gradientUnits="userSpaceOnUse"><stop stop-color="#6083FF"></stop><stop offset="1" stop-color="#5F5DFF"></stop></linearGradient><linearGradient id="paint2_linear_402_889" x1="38.167" y1="8.46657" x2="25.5674" y2="8.46657" gradientUnits="userSpaceOnUse"><stop stop-color="#6083FF"></stop><stop offset="1" stop-color="#5F5DFF"></stop></linearGradient></defs></svg>