<svg xmlns="http://www.w3.org/2000/svg" width="37" height="38" viewBox="0 0 37 38" fill="none"><path d="M36.0318 13.8694L20.8464 1.78939C20.2754 1.21843 19.5159 0.902832 18.7079 0.902832C17.8999 0.902832 17.1404 1.21712 16.5694 1.78939L1.25439 13.9977V36.9028H36.1614V14.0003L36.0318 13.8694ZM3.49108 13.7358L17.5568 2.77547C18.1723 2.15999 19.2448 2.15999 19.8603 2.77547L34.5873 14.3997L24.551 24.436L20.8464 20.7314C20.2754 20.1604 19.5159 19.8448 18.7079 19.8448C17.8999 19.8448 17.1404 20.1604 16.5694 20.7314L12.8097 24.4897L2.77346 14.4534L3.49108 13.7358ZM11.8224 25.4758L11.7189 25.5806L11.7176 25.5793L2.65167 34.6452V16.3051L11.8224 25.4758ZM3.76478 35.5056L4.51514 34.7552H4.51776L17.5568 21.7174C18.1723 21.102 19.2448 21.102 19.8603 21.7174L33.651 35.5056H3.76478ZM34.7654 16.787V34.6465L25.5384 25.4234L34.7654 16.1964V16.787Z" fill="url(#paint0_linear_402_874)" stroke="url(#paint1_linear_402_874)" stroke-width="0.7"></path><defs><linearGradient id="paint0_linear_402_874" x1="36.1614" y1="17.3508" x2="1.25439" y2="17.3508" gradientUnits="userSpaceOnUse"><stop stop-color="#6083FF"></stop><stop offset="1" stop-color="#5F5DFF"></stop></linearGradient><linearGradient id="paint1_linear_402_874" x1="36.1614" y1="17.3508" x2="1.25439" y2="17.3508" gradientUnits="userSpaceOnUse"><stop stop-color="#6083FF"></stop><stop offset="1" stop-color="#5F5DFF"></stop></linearGradient></defs></svg>