<svg xmlns="http://www.w3.org/2000/svg" width="36" height="37" viewBox="0 0 36 37" fill="none"><path fill-rule="evenodd" clip-rule="evenodd" d="M27.2471 31.6988C27.7354 31.2083 28.527 31.2083 29.0153 31.6988L31.516 34.2104C32.0043 34.7008 32.0043 35.4958 31.516 35.9863C31.0277 36.4767 30.2361 36.4767 29.7478 35.9863L27.2471 33.4747C26.7588 32.9842 26.7588 32.1892 27.2471 31.6988Z" fill="url(#paint0_linear_402_898)"></path><path fill-rule="evenodd" clip-rule="evenodd" d="M9.00974 31.6988C8.52145 31.2083 7.72975 31.2083 7.24146 31.6988L4.74073 34.2104C4.25244 34.7008 4.25244 35.4958 4.74073 35.9863C5.22902 36.4767 6.02072 36.4767 6.50901 35.9863L9.00974 33.4747C9.49803 32.9842 9.49803 32.1892 9.00974 31.6988Z" fill="url(#paint1_linear_402_898)"></path><path fill-rule="evenodd" clip-rule="evenodd" d="M18.1283 6.21463C10.5364 6.21463 4.37426 12.4036 4.37426 20.0286C4.37426 27.6536 10.5364 33.8426 18.1283 33.8426C25.7201 33.8426 31.8823 27.6536 31.8823 20.0286C31.8823 12.4036 25.7201 6.21463 18.1283 6.21463ZM1.87354 20.0286C1.87354 11.0165 9.1553 3.703 18.1283 3.703C27.1012 3.703 34.383 11.0165 34.383 20.0286C34.383 29.0407 27.1012 36.3542 18.1283 36.3542C9.1553 36.3542 1.87354 29.0407 1.87354 20.0286Z" fill="url(#paint2_linear_402_898)"></path><path fill-rule="evenodd" clip-rule="evenodd" d="M17.5731 12.0063C18.2637 12.0063 18.8235 12.5686 18.8235 13.2622V19.4408C18.8235 19.6451 18.9028 19.9592 19.0906 20.2899C19.2784 20.6206 19.507 20.8488 19.6809 20.9525L19.6842 20.9543L24.3356 23.7422C24.9286 24.0977 25.1225 24.8686 24.7685 25.4642C24.4148 26.0598 23.6471 26.2545 23.054 25.899L18.406 23.1131L18.4044 23.1121C17.7688 22.7334 17.2629 22.1408 16.9183 21.534C16.5735 20.9267 16.3228 20.1858 16.3228 19.4408V13.2622C16.3228 12.5686 16.8826 12.0063 17.5731 12.0063Z" fill="url(#paint3_linear_402_898)"></path><path fill-rule="evenodd" clip-rule="evenodd" d="M27.1943 0.77857C27.6514 0.258813 28.4416 0.209753 28.9591 0.668979L35.2058 6.21238C35.7234 6.67161 35.7723 7.46524 35.315 7.98499C34.8577 8.50475 34.0676 8.55381 33.5501 8.09458L27.3033 2.55118C26.7858 2.09195 26.737 1.29833 27.1943 0.77857Z" fill="url(#paint4_linear_402_898)"></path><path fill-rule="evenodd" clip-rule="evenodd" d="M9.06256 0.77857C8.60531 0.258813 7.81513 0.209753 7.29765 0.668979L1.0509 6.21238C0.533398 6.67161 0.48455 7.46524 0.941783 7.98499C1.39902 8.50475 2.1892 8.55381 2.7067 8.09458L8.95344 2.55118C9.47095 2.09195 9.51979 1.29833 9.06256 0.77857Z" fill="url(#paint5_linear_402_898)"></path><defs><linearGradient id="paint0_linear_402_898" x1="31.8822" y1="33.8425" x2="26.8809" y2="33.8425" gradientUnits="userSpaceOnUse"><stop stop-color="#6083FF"></stop><stop offset="1" stop-color="#5F5DFF"></stop></linearGradient><linearGradient id="paint1_linear_402_898" x1="9.37596" y1="33.8425" x2="4.37451" y2="33.8425" gradientUnits="userSpaceOnUse"><stop stop-color="#6083FF"></stop><stop offset="1" stop-color="#5F5DFF"></stop></linearGradient><linearGradient id="paint2_linear_402_898" x1="34.383" y1="20.0286" x2="1.87354" y2="20.0286" gradientUnits="userSpaceOnUse"><stop stop-color="#6083FF"></stop><stop offset="1" stop-color="#5F5DFF"></stop></linearGradient><linearGradient id="paint3_linear_402_898" x1="24.9454" y1="19.0415" x2="16.3228" y2="19.0415" gradientUnits="userSpaceOnUse"><stop stop-color="#6083FF"></stop><stop offset="1" stop-color="#5F5DFF"></stop></linearGradient><linearGradient id="paint4_linear_402_898" x1="35.6284" y1="4.38178" x2="26.8809" y2="4.38178" gradientUnits="userSpaceOnUse"><stop stop-color="#6083FF"></stop><stop offset="1" stop-color="#5F5DFF"></stop></linearGradient><linearGradient id="paint5_linear_402_898" x1="9.37592" y1="4.38178" x2="0.628418" y2="4.38178" gradientUnits="userSpaceOnUse"><stop stop-color="#6083FF"></stop><stop offset="1" stop-color="#5F5DFF"></stop></linearGradient></defs></svg>